<?xml version="1.0" encoding="utf-8"?>
<!-- Generator: Adobe Illustrator 17.1.0, SVG Export Plug-In . SVG Version: 6.00 Build 0)  -->
<!DOCTYPE svg PUBLIC "-//W3C//DTD SVG 1.1//EN" "http://www.w3.org/Graphics/SVG/1.1/DTD/svg11.dtd">
<svg version="1.1" id="Layer_1" xmlns="http://www.w3.org/2000/svg" xmlns:xlink="http://www.w3.org/1999/xlink" x="0px" y="0px"
	 width="1000px" height="1000px" viewBox="0 0 1000 1000" enable-background="new 0 0 1000 1000" xml:space="preserve">
<g>
	<path d="M879.6,890V110c0-46.9-38.1-85-85-85H197.1c-46.9,0-85,38.1-85,85v780c0,46.9,38.1,85,85,85h597.4
		C841.4,975,879.6,936.9,879.6,890z M182.1,890V756h135.1v-69.6c0-0.1,0-0.3,0-0.4H182.1V535h51.1v-69.6c0-0.1,0-0.3,0-0.4h-51.1
		V312h51.1v-69.6c0-0.1,0-0.3,0-0.4h-51.1V110c0-8.3,6.7-15,15-15h597.4c8.3,0,15,6.7,15,15v132H566.7c0,0.1,0,0.3,0,0.4V312h242.8
		v153h-50.8c0,0.1,0,0.3,0,0.4V535h50.8v151h-52.8c0,0.1,0,0.3,0,0.4V756h52.8v134c0,8.3-6.7,15-15,15H197.1
		C188.9,905,182.1,898.3,182.1,890z"/>
	<path d="M377.3,312h45.5v-69.6c0-0.1,0-0.3,0-0.4h-45.5c0,0.1,0,0.3,0,0.4V312z"/>
	<path d="M566.7,465.4V535h48v-69.6c0-0.1,0-0.3,0-0.4h-48C566.7,465.1,566.7,465.3,566.7,465.4z"/>
	<path d="M377.3,535h45.5v-69.6c0-0.1,0-0.3,0-0.4h-45.5c0,0.1,0,0.3,0,0.4V535z"/>
	<path d="M461.3,686.4V756h151.5v-69.6c0-0.1,0-0.3,0-0.4H461.2C461.2,686.1,461.3,686.3,461.3,686.4z"/>
	<path d="M304.8,355.1h0.8c23,0,41.6-18.6,41.6-41.6V312v-69.6c0-0.1,0-0.3,0-0.4c-0.2-22.8-18.8-41.1-41.6-41.1h-0.8
		c-22.8,0-41.3,18.4-41.6,41.1c0,0.1,0,0.3,0,0.4V312v1.6C263.3,336.5,281.9,355.1,304.8,355.1z"/>
	<path d="M494.3,355.1h0.8c23,0,41.6-18.6,41.6-41.6V312v-69.6c0-0.1,0-0.3,0-0.4c-0.2-22.8-18.8-41.1-41.6-41.1h-0.8
		c-22.8,0-41.3,18.4-41.6,41.1c0,0.1,0,0.3,0,0.4V312v1.6C452.8,336.5,471.4,355.1,494.3,355.1z"/>
	<path d="M347.3,535v-69.6c0-0.1,0-0.3,0-0.4c-0.2-22.8-18.8-41.1-41.6-41.1h-0.8c-22.8,0-41.3,18.4-41.6,41.1c0,0.1,0,0.3,0,0.4
		V535v1.6c0,23,18.6,41.6,41.6,41.6h0.8c23,0,41.6-18.6,41.6-41.6V535z"/>
	<path d="M494.3,578.1h0.8c23,0,41.6-18.6,41.6-41.6V535v-69.6c0-0.1,0-0.3,0-0.4c-0.2-22.8-18.8-41.1-41.6-41.1h-0.8
		c-22.8,0-41.3,18.4-41.6,41.1c0,0.1,0,0.3,0,0.4V535v1.6C452.8,559.5,471.4,578.1,494.3,578.1z"/>
	<path d="M687.2,423.9h-0.8c-22.8,0-41.3,18.4-41.6,41.1c0,0.1,0,0.3,0,0.4V535v1.6c0,23,18.6,41.6,41.6,41.6h0.8
		c23,0,41.6-18.6,41.6-41.6V535v-69.6c0-0.1,0-0.3,0-0.4C728.5,442.2,710,423.9,687.2,423.9z"/>
	<path d="M389.7,644.9h-0.8c-22.8,0-41.3,18.4-41.6,41.1c0,0.1,0,0.3,0,0.4V756v1.6c0,23,18.6,41.6,41.6,41.6h0.8
		c23,0,41.6-18.6,41.6-41.6V756v-69.6c0-0.1,0-0.3,0-0.4C431,663.2,412.5,644.9,389.7,644.9z"/>
	<path d="M685.2,644.9h-0.8c-22.8,0-41.3,18.4-41.6,41.1c0,0.1,0,0.3,0,0.4V756v1.6c0,23,18.6,41.6,41.6,41.6h0.8
		c23,0,41.6-18.6,41.6-41.6V756v-69.6c0-0.1,0-0.3,0-0.4C726.5,663.2,708,644.9,685.2,644.9z"/>
</g>
</svg>
