<?xml version="1.0" encoding="utf-8"?>
<!-- Generator: Adobe Illustrator 17.1.0, SVG Export Plug-In . SVG Version: 6.00 Build 0)  -->
<!DOCTYPE svg PUBLIC "-//W3C//DTD SVG 1.1//EN" "http://www.w3.org/Graphics/SVG/1.1/DTD/svg11.dtd">
<svg version="1.1" id="Capa_1" xmlns="http://www.w3.org/2000/svg" xmlns:xlink="http://www.w3.org/1999/xlink" x="0px" y="0px"
	 width="1000px" height="1000px" viewBox="0 0 1000 1000" enable-background="new 0 0 1000 1000" xml:space="preserve">
<path d="M953.4,252.5c-14.5-35.7-35.3-67.7-61.7-95.2c-26.4-27.5-57.2-49.1-91.5-64.2C764.7,77.4,727,69.5,688.1,69.5
	c-69.2,0-135.9,25.8-188.1,72.8c-52.3-47-118.9-72.8-188.1-72.8c-38.9,0-76.6,7.9-112.1,23.6c-34.3,15.1-65.1,36.7-91.5,64.2
	c-26.4,27.5-47.2,59.5-61.7,95.2C31.6,289.3,24,328.3,23.9,368.4c-0.1,1.9-0.1,6,0.2,11.9c1.6,46.1,13,90,33.8,130.4
	c28.3,65.2,72.1,129.2,130.1,190.4c74.9,79,173.4,152.7,292.6,219l0.3,0.2c11.8,6.6,26.2,6.6,38,0l0.3-0.2
	c41-22.8,79.6-46.5,115.5-70.9v-39.9h-65.2c-44.1,0-80-35.9-80-80v-33.4c0-44.1,35.9-80,80-80h65.2v-65.2c0-44.1,35.9-80,80-80h33.4
	c44.1,0,80,35.9,80,80v65.2h53.9c24.4-34.5,44.4-69.7,59.8-105.2c20.8-40.4,32.2-84.3,33.8-130.3c0.3-5.9,0.3-10,0.2-11.8
	C976,328.3,968.4,289.3,953.4,252.5z"/>
<path d="M748.2,500.6h-33.4c-27.6,0-50,22.4-50,50v95.2h-95.2c-27.6,0-50,22.4-50,50v33.4c0,27.6,22.4,50,50,50h95.2v48.9v46.4
	c0,27.6,22.4,50,50,50h33.4c27.6,0,50-22.4,50-50v-95.2h95.2c27.6,0,50-22.4,50-50v-33.4c0-27.6-22.4-50-50-50h-33.7h-61.5v-95.2
	C798.2,523,775.8,500.6,748.2,500.6z"/>
</svg>
