<?xml version="1.0" encoding="utf-8"?>
<!-- Generator: Adobe Illustrator 17.1.0, SVG Export Plug-In . SVG Version: 6.00 Build 0)  -->
<!DOCTYPE svg PUBLIC "-//W3C//DTD SVG 1.1//EN" "http://www.w3.org/Graphics/SVG/1.1/DTD/svg11.dtd">
<svg version="1.1" id="Layer_1" xmlns="http://www.w3.org/2000/svg" xmlns:xlink="http://www.w3.org/1999/xlink" x="0px" y="0px"
	 width="1000px" height="1000px" viewBox="0 0 1000 1000" enable-background="new 0 0 1000 1000" xml:space="preserve">
<g>
	<path d="M74,103.7v797.5c0,27.6,22.4,50,50,50h140.7c27.6,0,50-22.4,50-50V103.7c0-27.6-22.4-50-50-50H124
		C96.4,53.7,74,76.1,74,103.7z M270.5,852.1c0,11-9,20-20,20H138.2c-11,0-20-9-20-20v-3.8c0-11,9-20,20-20h112.3c11,0,20,9,20,20
		V852.1z M270.5,283.7c0,11-9,20-20,20H138.2c-11,0-20-9-20-20v-3.8c0-11,9-20,20-20h112.3c11,0,20,9,20,20V283.7z M138.2,144h112.3
		c11,0,20,9,20,20v3.8c0,11-9,20-20,20H138.2c-11,0-20-9-20-20V164C118.2,153,127.2,144,138.2,144z"/>
	<path d="M600.4,88.1c-10.6-25.5-39.9-37.6-65.4-27l-129.9,54c-25.5,10.6-37.6,39.9-27,65.4l306.3,736.3
		c10.6,25.5,39.9,37.6,65.4,27l129.9-54c25.5-10.6,37.6-39.9,27-65.4L600.4,88.1z M443.6,222.8l-1.5-3.5
		c-4.2-10.2,0.6-21.9,10.8-26.1L556.7,150c10.2-4.2,21.9,0.6,26.1,10.8l1.5,3.5c4.2,10.2-0.6,21.9-10.8,26.1l-103.7,43.1
		C459.6,237.8,447.9,233,443.6,222.8z M618,297.4l-103.7,43.1c-10.2,4.2-21.9-0.6-26.1-10.8l-1.5-3.5c-4.2-10.2,0.6-21.9,10.8-26.1
		l103.7-43.1c10.2-4.2,21.9,0.6,26.1,10.8l1.5,3.5C633,281.4,628.2,293.1,618,297.4z M836.3,822.1l-103.7,43.1
		c-10.2,4.2-21.9-0.6-26.1-10.8l-1.5-3.5c-4.2-10.2,0.6-21.9,10.8-26.1l103.7-43.1c10.2-4.2,21.9,0.6,26.1,10.8l1.5,3.5
		C851.3,806.2,846.5,817.9,836.3,822.1z"/>
</g>
</svg>
