<?xml version="1.0" encoding="utf-8"?>
<!-- Generator: Adobe Illustrator 17.1.0, SVG Export Plug-In . SVG Version: 6.00 Build 0)  -->
<!DOCTYPE svg PUBLIC "-//W3C//DTD SVG 1.1//EN" "http://www.w3.org/Graphics/SVG/1.1/DTD/svg11.dtd">
<svg version="1.1" id="Capa_1" xmlns="http://www.w3.org/2000/svg" xmlns:xlink="http://www.w3.org/1999/xlink" x="0px" y="0px"
	 width="1000px" height="1000px" viewBox="0 0 1000 1000" enable-background="new 0 0 1000 1000" xml:space="preserve">
<g>
	<path d="M788.2,39.4H205.8c-27.6,0-50,22.4-50,50v815.9c0,27.6,22.4,50,50,50h582.5c27.6,0,50-22.4,50-50V89.4
		C838.2,61.7,815.9,39.4,788.2,39.4z M779.6,856.9c0,22.1-17.9,40-40,40H254.4c-22.1,0-40-17.9-40-40V563c0-22.1,17.9-40,40-40
		h485.2c22.1,0,40,17.9,40,40V856.9z M779.6,431.5c0,22.1-17.9,40-40,40H254.4c-22.1,0-40-17.9-40-40V137.6c0-22.1,17.9-40,40-40
		h485.2c22.1,0,40,17.9,40,40V431.5z"/>
	<path d="M739.6,127.6H254.4c-5.5,0-10,4.5-10,10v293.9c0,5.5,4.5,10,10,10h485.2c5.5,0,10-4.5,10-10V137.6
		C749.6,132.1,745.1,127.6,739.6,127.6z M656.3,305.9c0,22.1-17.9,40-40,40H377.7c-22.1,0-40-17.9-40-40v-15.7c0-8.3,6.7-15,15-15
		s15,6.7,15,15v0v15.7c0,5.5,4.5,10,10,10h238.6c5.5,0,10-4.5,10-10v-15.7v0c0-8.3,6.7-15,15-15s15,6.7,15,15V305.9z"/>
	<path d="M739.6,553H254.4c-5.5,0-10,4.5-10,10v293.9c0,5.5,4.5,10,10,10h485.2c5.5,0,10-4.5,10-10V563
		C749.6,557.5,745.1,553,739.6,553z M656.3,723c0,23.5-19.1,42.6-42.6,42.6h-236c-22.1,0-40-17.9-40-40V710c0-8.3,6.7-15,15-15
		s15,6.7,15,15v0v15.7c0,5.5,4.5,10,10,10h236c7,0,12.6-5.7,12.6-12.6V710v0c0-8.3,6.7-15,15-15s15,6.7,15,15V723z"/>
</g>
</svg>
