<?xml version="1.0" encoding="utf-8"?>
<!-- Generator: Adobe Illustrator 17.1.0, SVG Export Plug-In . SVG Version: 6.00 Build 0)  -->
<!DOCTYPE svg PUBLIC "-//W3C//DTD SVG 1.1//EN" "http://www.w3.org/Graphics/SVG/1.1/DTD/svg11.dtd">
<svg version="1.1" id="Layer_1" xmlns="http://www.w3.org/2000/svg" xmlns:xlink="http://www.w3.org/1999/xlink" x="0px" y="0px"
	 width="1000px" height="1000px" viewBox="0 0 1000 1000" enable-background="new 0 0 1000 1000" xml:space="preserve">
<g>
	<path d="M942.2,899c0-27.6-22.4-50-50-50h-750V98c0-27.6-22.4-50-50-50s-50,22.4-50,50v751c0,55.1,44.9,100,100,100h750
		C919.8,949,942.2,926.6,942.2,899z"/>
	<path d="M371,464.7L190.7,697.1c-8.5,10.9-6.5,26.6,4.4,35.1l39.5,30.7c10.9,8.5,26.6,6.5,35.1-4.4l153.9-198.3
		c8.4-10.9,21-17.8,34.7-19.1l170.3-16.5c13.2-1.3,25.4-7.7,33.8-18L837,294.4l42,34.8c16,13.2,40.2,2.4,40.9-18.4l6.1-170.7
		c0.6-16.1-14.1-28.6-29.9-25.4l-170.7,34.4c-20.6,4.1-27.2,30.3-11,43.8l45.6,37.8L611.4,411c-8.4,10.2-20.6,16.7-33.8,18
		l-172,16.6C392,447,379.4,453.9,371,464.7z"/>
</g>
</svg>
