<?xml version="1.0" encoding="utf-8"?>
<!-- Generator: Adobe Illustrator 17.1.0, SVG Export Plug-In . SVG Version: 6.00 Build 0)  -->
<!DOCTYPE svg PUBLIC "-//W3C//DTD SVG 1.1//EN" "http://www.w3.org/Graphics/SVG/1.1/DTD/svg11.dtd">
<svg version="1.1" id="Layer_1" xmlns="http://www.w3.org/2000/svg" xmlns:xlink="http://www.w3.org/1999/xlink" x="0px" y="0px"
	 width="1000px" height="1000px" viewBox="0 0 1000 1000" enable-background="new 0 0 1000 1000" xml:space="preserve">
<g>
	<path d="M90.9,986h818.3c27.6,0,50-22.4,50-50v-8c0-27.6-22.4-50-50-50h-51.3V507H730.2v371h-68.4V507H534.2v371h-68.4V507H338.2
		v371h-68.4V507H142.2v371H90.9c-27.6,0-50,22.4-50,50v8C40.9,963.6,63.3,986,90.9,986z"/>
	<path d="M920.1,367.7l-389.1-309C522,51.4,511,47.8,500,47.8c-11,0-22,3.6-31,10.8L79.1,367.5c-12,9.5-19,23.9-19,39.2V427
		c0,27.6,22.4,50,50,50h32.1h127.6h68.4h127.6h68.4h127.6h68.4h127.6h31.5c27.8,0,50.3-22.7,50-50.6l-0.2-20.2
		C938.8,391.2,931.9,377,920.1,367.7z"/>
</g>
</svg>
