<?xml version="1.0" encoding="utf-8"?>
<!-- Generator: Adobe Illustrator 17.1.0, SVG Export Plug-In . SVG Version: 6.00 Build 0)  -->
<!DOCTYPE svg PUBLIC "-//W3C//DTD SVG 1.1//EN" "http://www.w3.org/Graphics/SVG/1.1/DTD/svg11.dtd">
<svg version="1.1" id="Capa_1" xmlns="http://www.w3.org/2000/svg" xmlns:xlink="http://www.w3.org/1999/xlink" x="0px" y="0px"
	 width="1000px" height="1000px" viewBox="0 0 1000 1000" enable-background="new 0 0 1000 1000" xml:space="preserve">
<path d="M96.7,34H50.9c-13.8,0-25,11.2-25,25v866.1c0,13.8,11.2,25,25,25h45.8c13.8,0,25-11.2,25-25V59C121.7,45.2,110.5,34,96.7,34
	z"/>
<path d="M239.2,787.9c13.8,0,25-11.2,25-25V59c0-13.8-11.2-25-25-25h-45.8c-13.8,0-25,11.2-25,25v703.9c0,13.8,11.2,25,25,25H239.2z
	"/>
<path d="M381.8,787.9c13.8,0,25-11.2,25-25V59c0-13.8-11.2-25-25-25H336c-13.8,0-25,11.2-25,25v703.9c0,13.8,11.2,25,25,25H381.8z"
	/>
<path d="M524.4,787.9c13.8,0,25-11.2,25-25V59c0-13.8-11.2-25-25-25h-45.8c-13.8,0-25,11.2-25,25v703.9c0,13.8,11.2,25,25,25H524.4z
	"/>
<path d="M667,787.9c13.8,0,25-11.2,25-25V59c0-13.8-11.2-25-25-25h-45.8c-13.8,0-25,11.2-25,25v703.9c0,13.8,11.2,25,25,25H667z"/>
<path d="M834.5,59c0-13.8-11.2-25-25-25h-45.8c-13.8,0-25,11.2-25,25v703.9c0,13.8,11.2,25,25,25h45.8c13.8,0,25-11.2,25-25V59z"/>
<path d="M953.1,34h-45.8c-13.8,0-25,11.2-25,25v866.1c0,13.8,11.2,25,25,25h45.8c13.8,0,25-11.2,25-25V59
	C978.1,45.2,966.9,34,953.1,34z"/>
<path d="M181.1,930.7c8.7,12.7,21.5,19.5,37.2,19.5c15.6,0,28.3-6.7,37-19.5c8.4-12.4,12.6-29.8,12.6-51.8
	c0-63.6-34.7-70.5-49.6-70.5c-15,0-49.8,6.9-49.8,70.5C168.5,900.9,172.7,918.3,181.1,930.7z M218.3,831.1c9.9,0,21.8,8.3,21.8,47.8
	c0,42.2-13.7,48.6-21.8,48.6c-19.2,0-22-30.4-22-48.6C196.3,839.4,208.2,831.1,218.3,831.1z"/>
<path d="M396.9,930.7c8.4-12.4,12.6-29.8,12.6-51.8c0-63.6-34.7-70.5-49.6-70.5c-15,0-49.8,6.9-49.8,70.5c0,22,4.3,39.5,12.6,51.8
	c8.7,12.7,21.5,19.5,37.2,19.5C375.5,950.1,388.3,943.4,396.9,930.7z M337.9,878.9c0-39.5,12-47.8,22-47.8c9.9,0,21.8,8.3,21.8,47.8
	c0,42.2-13.7,48.6-21.8,48.6C340.8,927.4,337.9,897,337.9,878.9z"/>
<path d="M464.5,930.7c8.7,12.7,21.5,19.5,37.2,19.5c15.6,0,28.3-6.7,37-19.5c8.4-12.4,12.6-29.8,12.6-51.8
	c0-63.6-34.7-70.5-49.6-70.5c-15,0-49.8,6.9-49.8,70.5C451.8,900.9,456.1,918.3,464.5,930.7z M501.6,831.1c9.9,0,21.8,8.3,21.8,47.8
	c0,42.2-13.7,48.6-21.8,48.6c-19.2,0-22-30.4-22-48.6C479.6,839.4,491.6,831.1,501.6,831.1z"/>
<path d="M606.1,930.7c8.7,12.7,21.5,19.5,37.2,19.5c15.6,0,28.3-6.7,37-19.5c8.4-12.4,12.6-29.8,12.6-51.8
	c0-63.6-34.7-70.5-49.6-70.5c-15,0-49.8,6.9-49.8,70.5C593.5,900.9,597.7,918.3,606.1,930.7z M643.3,831.1c9.9,0,21.8,8.3,21.8,47.8
	c0,42.2-13.7,48.6-21.8,48.6c-19.2,0-22-30.4-22-48.6C621.3,839.4,633.2,831.1,643.3,831.1z"/>
<path d="M785,808.4c-15,0-49.8,6.9-49.8,70.5c0,22,4.3,39.5,12.6,51.8c8.7,12.7,21.5,19.5,37.2,19.5c15.6,0,28.3-6.7,37-19.5
	c8.4-12.4,12.6-29.8,12.6-51.8C834.5,815.3,799.9,808.4,785,808.4z M785,927.4c-19.2,0-22-30.4-22-48.6c0-39.5,12-47.8,22-47.8
	c9.9,0,21.8,8.3,21.8,47.8C806.8,921.1,793.1,927.4,785,927.4z"/>
</svg>
