<?xml version="1.0" encoding="utf-8"?>
<!-- Generator: Adobe Illustrator 17.1.0, SVG Export Plug-In . SVG Version: 6.00 Build 0)  -->
<!DOCTYPE svg PUBLIC "-//W3C//DTD SVG 1.1//EN" "http://www.w3.org/Graphics/SVG/1.1/DTD/svg11.dtd">
<svg version="1.1" id="Layer_1" xmlns="http://www.w3.org/2000/svg" xmlns:xlink="http://www.w3.org/1999/xlink" x="0px" y="0px"
	 width="1000px" height="1000px" viewBox="0 0 1000 1000" enable-background="new 0 0 1000 1000" xml:space="preserve">
<g>
	<path d="M72.2,231.5v563.3h850.9V231.5H72.2z M260.6,693.1c0,13.8-11.2,25-25,25h-45.3c-13.8,0-25-11.2-25-25V501.4
		c0-13.8,11.2-25,25-25h45.3c13.8,0,25,11.2,25,25V693.1z M450.4,693.1c0,13.8-11.2,25-25,25h-45.3c-13.8,0-25-11.2-25-25V361.6
		c0-13.8,11.2-25,25-25h45.3c13.8,0,25,11.2,25,25V693.1z M640.2,693.1c0,13.8-11.2,25-25,25h-45.3c-13.8,0-25-11.2-25-25V337.4
		c0-13.8,11.2-25,25-25h45.3c13.8,0,25,11.2,25,25V693.1z M830,693.1c0,13.8-11.2,25-25,25h-45.3c-13.8,0-25-11.2-25-25v-70.8
		c0-13.8,11.2-25,25-25H805c13.8,0,25,11.2,25,25V693.1z"/>
	<path d="M649.3,109.5V90.5c0-27.6-22.4-50-50-50H400.7c-27.6,0-50,22.4-50,50v19.1H48.6c-13.8,0-25,11.2-25,25v37.6
		c0,13.8,11.2,25,25,25h902.9c13.8,0,25-11.2,25-25v-37.6c0-13.8-11.2-25-25-25H649.3z"/>
	<path d="M976.4,892.2v-37.6c0-13.8-11.2-25-25-25H48.6c-13.8,0-25,11.2-25,25v37.6c0,13.8,11.2,25,25,25h902.9
		C965.2,917.2,976.4,906,976.4,892.2z"/>
</g>
</svg>
