<?xml version="1.0" encoding="utf-8"?>
<!-- Generator: Adobe Illustrator 17.1.0, SVG Export Plug-In . SVG Version: 6.00 Build 0)  -->
<!DOCTYPE svg PUBLIC "-//W3C//DTD SVG 1.1//EN" "http://www.w3.org/Graphics/SVG/1.1/DTD/svg11.dtd">
<svg version="1.1" id="Capa_1" xmlns="http://www.w3.org/2000/svg" xmlns:xlink="http://www.w3.org/1999/xlink" x="0px" y="0px"
	 width="1000px" height="1000px" viewBox="0 0 1000 1000" enable-background="new 0 0 1000 1000" xml:space="preserve">
<path d="M499.9,961.9c60.3,0,110.8-41.7,124.3-97.9H375.6C389.1,920.2,439.6,961.9,499.9,961.9z"/>
<path d="M500.8,114.9c28.2,0,55.8,4.5,82.4,13.3v-9.7c0-45-36.5-81.5-81.5-81.5h-1.6c-45,0-81.5,36.5-81.5,81.5v8.5
	c25.3-8,51.6-12,78.4-12H500.8z"/>
<path d="M268.3,338.3l-78.5,469.5C187.5,821.5,198,834,212,834H372h255.8h158.8c13.9,0,24.5-12.5,22.2-26.3l-79.6-469.9
	c-14.1-83-71.2-149.4-146.1-177.9c-25.7-9.8-53.5-15.1-82.4-15.1h-4c-27.4,0-53.8,4.8-78.4,13.7
	C341.4,186.3,282.5,253.7,268.3,338.3z"/>
</svg>
