<?xml version="1.0" encoding="utf-8"?>
<!-- Generator: Adobe Illustrator 17.1.0, SVG Export Plug-In . SVG Version: 6.00 Build 0)  -->
<!DOCTYPE svg PUBLIC "-//W3C//DTD SVG 1.1//EN" "http://www.w3.org/Graphics/SVG/1.1/DTD/svg11.dtd">
<svg version="1.1" id="Layer_1" xmlns="http://www.w3.org/2000/svg" xmlns:xlink="http://www.w3.org/1999/xlink" x="0px" y="0px"
	 width="1000px" height="1000px" viewBox="0 0 1000 1000" enable-background="new 0 0 1000 1000" xml:space="preserve">
<g>
	<path d="M54,755.9c0,30.2,24.5,54.6,54.6,54.6h350.9l0,0l379.2,65.2c29.7,5.1,58-14.8,63.1-44.6l53.7-312.3l-396.2-68.1
		c-12.7-2.2-24.9,5.6-28.3,18l-8.4,30.5c-1.1,4.2-1.2,8.5-0.2,12.7l21.4,85.5c2.8,11.3-12.7,17.5-18.4,7.3l-45.7-81.2
		c-1.7-3.1-2.8-6.5-3.1-10.1l-4.5-51.7c-1.1-12.9-11.9-22.8-24.9-22.8H54V755.9z M109.7,725.2c0-13.8,11.2-25,25-25H279
		c13.8,0,25,11.2,25,25v4.8c0,13.8-11.2,25-25,25H134.7c-13.8,0-25-11.2-25-25V725.2z"/>
	<path d="M550.7,293.5L547,334c-1.2,13,7.8,24.7,20.7,26.9l403.2,68.6l6-34.7c5.1-29.7-14.8-58-44.6-63.1l-352.5-60.6
		C565.4,268.6,552,278.9,550.7,293.5z"/>
	<path d="M54,313.2v35.2h389.1c15.4,0,27.1-13.8,24.7-29l-6.4-39.8c-2-12.1-12.4-21-24.7-21H108.7C78.5,258.5,54,283,54,313.2z"/>
</g>
</svg>
