<?xml version="1.0" encoding="utf-8"?>
<!-- Generator: Adobe Illustrator 17.1.0, SVG Export Plug-In . SVG Version: 6.00 Build 0)  -->
<!DOCTYPE svg PUBLIC "-//W3C//DTD SVG 1.1//EN" "http://www.w3.org/Graphics/SVG/1.1/DTD/svg11.dtd">
<svg version="1.1" id="Layer_1" xmlns="http://www.w3.org/2000/svg" xmlns:xlink="http://www.w3.org/1999/xlink" x="0px" y="0px"
	 width="1000px" height="1000px" viewBox="0 0 1000 1000" enable-background="new 0 0 1000 1000" xml:space="preserve">
<g>
	<path d="M20,833.9V926c0,27.6,22.4,50,50,50h526.1c27.6,0,50-22.4,50-50v-92.1c0-56.4-45.7-102.1-102.1-102.1h-49.7
		c-17.3,0-33.3,8.9-42.5,23.6l-74.9,120.5l-31.1-55.2l55-88.9H333h-67.9l55,88.9L289,875.9l-74.9-120.5
		c-9.1-14.7-25.2-23.6-42.5-23.6h-49.7C65.7,731.8,20,777.5,20,833.9z"/>
	<path d="M334.7,303.4c-103,0-188.3,84.3-187.5,187.3c0.8,101.5,82.9,183.7,184.4,184.4c103,0.8,187.3-84.5,187.3-187.5V328.4
		c0-13.8-11.2-25-25-25H334.7z"/>
	<path d="M931.8,12.5h-320c-27.6,0-50,22.4-50,50v370v41.6c0,20.5,23.3,32.3,39.8,20.2l71-52.1c8.6-6.3,18.9-9.7,29.6-9.7h229.6
		c27.6,0,50-22.4,50-50v-320C981.8,34.9,959.4,12.5,931.8,12.5z M887.4,111.8l-68.1,106.8h23.2c12.4,0,22.5,10.1,22.5,22.5
		s-10.1,22.5-22.5,22.5h-39.5V280h39.5c12.4,0,22.5,10.1,22.5,22.5S855,325,842.6,325h-39.5v32c0,12.4-10.1,22.5-22.5,22.5
		s-22.5-10.1-22.5-22.5v-32h-39.5c-12.4,0-22.5-10.1-22.5-22.5s10.1-22.5,22.5-22.5h39.5v-16.5h-39.5c-12.4,0-22.5-10.1-22.5-22.5
		s10.1-22.5,22.5-22.5h23.2l-68.1-106.8c-6.7-10.5-3.6-24.4,6.9-31.1c10.5-6.7,24.4-3.6,31.1,6.9l68.9,108l68.9-108
		c6.7-10.5,20.6-13.6,31.1-6.9C891,87.4,894.1,101.3,887.4,111.8z"/>
</g>
</svg>
