<?xml version="1.0" encoding="utf-8"?>
<!-- Generator: Adobe Illustrator 17.1.0, SVG Export Plug-In . SVG Version: 6.00 Build 0)  -->
<!DOCTYPE svg PUBLIC "-//W3C//DTD SVG 1.1//EN" "http://www.w3.org/Graphics/SVG/1.1/DTD/svg11.dtd">
<svg version="1.1" id="Layer_1" xmlns="http://www.w3.org/2000/svg" xmlns:xlink="http://www.w3.org/1999/xlink" x="0px" y="0px"
	 width="1000px" height="1000px" viewBox="0 0 1000 1000" enable-background="new 0 0 1000 1000" xml:space="preserve">
<g>
	<path d="M199.8,697.7h61.8v256.7c0,16,13,29,29,29h168.9c16,0,29-13,29-29v-522l75.8,86.3c9.5,10.8,23.2,17,37.6,17l148.6-0.1
		c16,0,29-13,29-29v-44.4c0-16-13-29-29-29H648.6c-14.5,0-28.2-6.3-37.7-17.2l-93.7-107.7c-12.2-14-29.8-22-48.4-22h-18.2
		l-56.2,90.5L374.8,342l34.6-55.8h-84.5l34.6,55.8l-19.6,34.7l-56.2-90.5h-83.8c-16,0-29,13-29,29v353.4
		C170.8,684.7,183.8,697.7,199.8,697.7z"/>
	<path d="M366.4,242c56.5,0.4,102.2-46.1,102.2-102.7V64.1c0-13.8-11.2-25-25-25h-75.3c-56.5,0-103.1,45.7-102.7,102.2
		C266.1,196.7,310.9,241.6,366.4,242z"/>
	<path d="M643,240.8h57.2v66.6h-48.3c-15.2,0-27.5,12.3-27.5,27.5s12.3,27.5,27.5,27.5h48.3v31.1c0,15.2,12.3,27.5,27.5,27.5
		s27.5-12.3,27.5-27.5v-31.1h54.6c15.2,0,27.5-12.3,27.5-27.5V213.3c0-15.2-12.3-27.5-27.5-27.5h-54.6v-66.6H796
		c15.2,0,27.5-12.3,27.5-27.5c0-15.2-12.3-27.5-27.5-27.5h-40.9V33c0-15.2-12.3-27.5-27.5-27.5S700.2,17.8,700.2,33v31.1H643
		c-15.2,0-27.5,12.3-27.5,27.5v121.6C615.5,228.5,627.8,240.8,643,240.8z M755.2,240.8h27.1v66.6h-27.1V240.8z M670.5,119.1h29.7
		v66.6h-29.7V119.1z"/>
</g>
</svg>
