<?xml version="1.0" encoding="utf-8"?>
<!-- Generator: Adobe Illustrator 17.1.0, SVG Export Plug-In . SVG Version: 6.00 Build 0)  -->
<!DOCTYPE svg PUBLIC "-//W3C//DTD SVG 1.1//EN" "http://www.w3.org/Graphics/SVG/1.1/DTD/svg11.dtd">
<svg version="1.1" id="Layer_1" xmlns="http://www.w3.org/2000/svg" xmlns:xlink="http://www.w3.org/1999/xlink" x="0px" y="0px"
	 width="1000px" height="1000px" viewBox="0 0 1000 1000" enable-background="new 0 0 1000 1000" xml:space="preserve">
<g>
	<path d="M149.8,340.9v297.3c0,27.6,22.4,50,50,50h40.8v235.7c0,27.6,22.4,50,50,50h126.9c27.6,0,50-22.4,50-50v-501l75.8,86.3
		c9.5,10.8,23.2,17,37.6,17l127.7-0.1c27.6,0,50-22.4,50-50v-2.4c0-27.6-22.4-50-50-50h-80.9c-14.5,0-28.2-6.3-37.7-17.2
		l-93.7-107.7c-12.2-14-29.8-22-48.4-22h-18.2l-56.2,90.5l-19.6-34.7l34.6-55.8h-84.5l34.6,55.8l-19.6,34.7l-56.2-90.5h-48.7
		C178.5,276.7,149.8,305.4,149.8,340.9z"/>
	<path d="M345.4,232.5c56.5,0.4,102.2-46.1,102.2-102.7V54.6c0-13.8-11.2-25-25-25h-75.3c-56.5,0-103.1,45.7-102.7,102.2
		C245.1,187.3,289.9,232.1,345.4,232.5z"/>
	<path d="M621.5,348.7c4.8,8.8,14.1,14.3,24.1,14.3h201.6c15.2,0,27.5-12.3,27.5-27.5S862.5,308,847.3,308H691.8
		c11.2-24.1,19.6-48.7,26-72.4h53.8c15.2,0,27.5-12.3,27.5-27.5s-12.3-27.5-27.5-27.5h-42c4.8-29.1,6.7-54.4,7.5-72.4h76.1v19.4
		c0,15.2,12.3,27.5,27.5,27.5s27.5-12.3,27.5-27.5V80.8c0-15.2-12.3-27.5-27.5-27.5H710c-7.5,0-14.6,3-19.8,8.4
		c-5.2,5.4-8,12.6-7.7,20.1c0,0.8,1.2,43.7-8.8,98.9h-27c-15.2,0-27.5,12.3-27.5,27.5s12.3,27.5,27.5,27.5h13.8
		c-8.8,28.8-21,58.2-38.1,85.1C617.1,329.2,616.7,340,621.5,348.7z"/>
</g>
</svg>
