<?xml version="1.0" encoding="utf-8"?>
<!-- Generator: Adobe Illustrator 17.1.0, SVG Export Plug-In . SVG Version: 6.00 Build 0)  -->
<!DOCTYPE svg PUBLIC "-//W3C//DTD SVG 1.1//EN" "http://www.w3.org/Graphics/SVG/1.1/DTD/svg11.dtd">
<svg version="1.1" id="Layer_1" xmlns="http://www.w3.org/2000/svg" xmlns:xlink="http://www.w3.org/1999/xlink" x="0px" y="0px"
	 width="1000px" height="1000px" viewBox="0 0 1000 1000" enable-background="new 0 0 1000 1000" xml:space="preserve">
<g>
	<path d="M67.2,970h526.1c27.6,0,50-22.4,50-50v-92.1c0-56.4-45.7-102.1-102.1-102.1h-49.7c-17.3,0-33.3,8.9-42.5,23.6l-74.9,120.5
		l-31.1-55.2l55-88.9h-67.9h-67.9l55,88.9l-31.1,55.2l-74.9-120.5c-9.1-14.7-25.2-23.6-42.5-23.6h-49.7
		c-56.4,0-102.1,45.7-102.1,102.1V920C17.2,947.6,39.6,970,67.2,970z"/>
	<path d="M331.9,297.4c-103,0-188.3,84.3-187.5,187.3c0.8,101.5,82.9,183.7,184.4,184.4c103,0.8,187.3-84.5,187.3-187.5V322.4
		c0-13.8-11.2-25-25-25H331.9z"/>
	<path d="M929,6.5H609c-27.6,0-50,22.4-50,50v370v41.6c0,20.5,23.3,32.3,39.8,20.2l71-52.1c8.6-6.3,18.9-9.7,29.6-9.7H929
		c27.6,0,50-22.4,50-50v-320C979,28.9,956.6,6.5,929,6.5z M862.4,340.6H683c-8.2,0-15.8-4.5-19.7-11.7c-4-7.2-3.7-16,0.7-22.9
		c14.3-22.5,24.5-47.2,31.9-71.2h-12.8c-12.4,0-22.5-10.1-22.5-22.5s10.1-22.5,22.5-22.5h23.6c8.4-46.1,7.3-81.9,7.3-82.5
		c-0.2-6.1,2.1-12,6.3-16.4c4.2-4.4,10.1-6.9,16.2-6.9h108.6c12.4,0,22.5,10.1,22.5,22.5v38.2c0,12.4-10.1,22.5-22.5,22.5
		s-22.5-10.1-22.5-22.5v-15.7h-63.9c-0.6,15.1-2.2,36.3-6.3,60.8h41c12.4,0,22.5,10.1,22.5,22.5s-10.1,22.5-22.5,22.5h-50.7
		c-5.4,19.9-12.5,40.6-21.9,60.8h141.6c12.4,0,22.5,10.1,22.5,22.5S874.8,340.6,862.4,340.6z"/>
</g>
</svg>
