<?xml version="1.0" encoding="utf-8"?>
<!-- Generator: Adobe Illustrator 17.1.0, SVG Export Plug-In . SVG Version: 6.00 Build 0)  -->
<!DOCTYPE svg PUBLIC "-//W3C//DTD SVG 1.1//EN" "http://www.w3.org/Graphics/SVG/1.1/DTD/svg11.dtd">
<svg version="1.1" id="Capa_1" xmlns="http://www.w3.org/2000/svg" xmlns:xlink="http://www.w3.org/1999/xlink" x="0px" y="0px"
	 width="1000px" height="1000px" viewBox="0 0 1000 1000" enable-background="new 0 0 1000 1000" xml:space="preserve">
<g>
	<path d="M499.1,255.4c66.3,0.5,120.5-54.7,120.5-121V41.2c0-13.8-11.2-25-25-25h-93.2c-66.3,0-121.5,54.2-121,120.5
		C380.9,202,433.8,254.9,499.1,255.4z"/>
	<path d="M225.5,636.1v-45.4c0-13.5,11-24.5,24.5-24.5H750c13.5,0,24.5,11,24.5,24.5v48.2c8.4-1.9,17-2.8,25.7-2.8h25.3v-45.4
		c0-41.6-33.9-75.5-75.5-75.5H525.5V479h-51v36.2H250c-41.6,0-75.5,33.9-75.5,75.5v48.5c8.8-2.1,17.9-3.2,27.1-3.2H225.5z"/>
	<path d="M199,838.4c0.5,0,0.9,0,1.4,0c47.5,0,86.2-39.6,86.2-87.3v-70c0-8.3-6.7-15-15-15h-46.1h-23.9c-9.4,0-18.5,1.5-27.1,4.3
		c-35.2,11.5-60.9,44.6-60.3,83.3C115,800.1,152.5,837.6,199,838.4z"/>
	<path d="M310.6,864.7h-48.2l-41.5,66.8l-14.4-25.6l25.5-41.2h-2.5h-28.9h-29.2H169l25.5,41.2L180,931.5l-41.5-66.8H90.3
		c-19.3,0-35,15.7-35,35v78.2h290.3v-78.2C345.6,880.4,329.9,864.7,310.6,864.7z"/>
	<path d="M800.2,666.1c-8.9,0-17.6,1.4-25.7,3.9c-35.9,11-62.3,44.5-61.6,83.8c0.8,46.4,38.3,84,84.7,84.7c0.5,0,0.9,0,1.4,0
		c47.5,0,86.2-39.6,86.2-87.3v-70c0-8.3-6.7-15-15-15h-44.7H800.2z"/>
	<path d="M909.1,864.7h-48.2l-41.5,66.8L805,905.9l25.5-41.2h-2.5H799h-29.2h-2.3l25.5,41.2l-14.4,25.6l-41.5-66.8h-48.2
		c-19.3,0-35,15.7-35,35v78.2h290.3v-78.2C944.1,880.4,928.5,864.7,909.1,864.7z"/>
	<path d="M525.5,449h175.9V341.9c0-27.6-22.4-50-50-50h-65.5l-57.6,92.7l-20-35.5l35.4-57.2H500h-43.7l35.4,57.2l-20,35.5
		l-57.6-92.7h-65.5c-27.6,0-50,22.4-50,50V449h175.9H525.5z"/>
</g>
</svg>
