<?xml version="1.0" encoding="utf-8"?>
<!-- Generator: Adobe Illustrator 17.1.0, SVG Export Plug-In . SVG Version: 6.00 Build 0)  -->
<!DOCTYPE svg PUBLIC "-//W3C//DTD SVG 1.1//EN" "http://www.w3.org/Graphics/SVG/1.1/DTD/svg11.dtd">
<svg version="1.1" id="Layer_1" xmlns="http://www.w3.org/2000/svg" xmlns:xlink="http://www.w3.org/1999/xlink" x="0px" y="0px"
	 width="1000px" height="1000px" viewBox="0 0 1000 1000" enable-background="new 0 0 1000 1000" xml:space="preserve">
<g>
	<path d="M149.8,351.1v297.3c0,27.6,22.4,50,50,50h40.8v235.7c0,27.6,22.4,50,50,50h126.9c27.6,0,50-22.4,50-50v-501l75.8,86.3
		c9.5,10.8,23.2,17,37.6,17l127.7-0.1c27.6,0,50-22.4,50-50v-2.4c0-27.6-22.4-50-50-50h-80.9c-14.5,0-28.2-6.3-37.7-17.2L496.2,309
		c-12.2-14-29.8-22-48.4-22h-18.2l-56.2,90.5l-19.6-34.7l34.6-55.8h-84.5l34.6,55.8l-19.6,34.7L262.6,287h-48.7
		C178.5,287,149.8,315.7,149.8,351.1z"/>
	<path d="M345.4,242.8c56.5,0.4,102.2-46.1,102.2-102.7V64.9c0-13.8-11.2-25-25-25h-75.3c-56.5,0-103.1,45.7-102.7,102.2
		C245.1,197.5,289.9,242.4,345.4,242.8z"/>
	<path d="M599.5,229.4c-15.2,0-27.5,12.3-27.5,27.5s12.3,27.5,27.5,27.5h19.4v61.7c0,15.2,12.3,27.5,27.5,27.5h174.9
		c15.2,0,27.5-12.3,27.5-27.5V298c0-15.2-12.3-27.5-27.5-27.5s-27.5,12.3-27.5,27.5v20.6H673.9v-34.2h54.5
		c15.2,0,27.5-12.3,27.5-27.5s-12.3-27.5-27.5-27.5h-54.5v-21.6h54.5c15.2,0,27.5-12.3,27.5-27.5s-12.3-27.5-27.5-27.5h-54.5v-34.2
		h119.9V140c0,15.2,12.3,27.5,27.5,27.5s27.5-12.3,27.5-27.5V91.1c0-15.2-12.3-27.5-27.5-27.5H646.4c-15.2,0-27.5,12.3-27.5,27.5
		v61.7h-19.4c-15.2,0-27.5,12.3-27.5,27.5s12.3,27.5,27.5,27.5h19.4v21.6H599.5z"/>
</g>
</svg>
