<?xml version="1.0" encoding="utf-8"?>
<!-- Generator: Adobe Illustrator 17.1.0, SVG Export Plug-In . SVG Version: 6.00 Build 0)  -->
<!DOCTYPE svg PUBLIC "-//W3C//DTD SVG 1.1//EN" "http://www.w3.org/Graphics/SVG/1.1/DTD/svg11.dtd">
<svg version="1.1" id="Layer_1" xmlns="http://www.w3.org/2000/svg" xmlns:xlink="http://www.w3.org/1999/xlink" x="0px" y="0px"
	 width="1000px" height="1000px" viewBox="0 0 1000 1000" enable-background="new 0 0 1000 1000" xml:space="preserve">
<g>
	<path d="M643.3,841.4c0-56.4-45.7-102.1-102.1-102.1h-77.4l-89.5,144.1l-31.1-55.2l55-88.9h-67.9h-67.9l55,88.9l-31.1,55.2
		l-89.5-144.1h-77.4c-56.4,0-102.1,45.7-102.1,102.1v142.1h626.1V841.4z"/>
	<path d="M328.8,682.6c103,0.8,187.3-84.5,187.3-187.5V335.9c0-13.8-11.2-25-25-25H331.9c-103,0-188.3,84.3-187.5,187.3
		C145.1,599.7,227.3,681.9,328.8,682.6z"/>
	<rect x="792.1" y="242.8" width="26.4" height="60.8"/>
	<rect x="718.5" y="137" width="28.7" height="60.8"/>
	<path d="M598.8,501.8l71-52.1c8.6-6.3,18.9-9.7,29.6-9.7H929c27.6,0,50-22.4,50-50V70c0-27.6-22.4-50-50-50H609
		c-27.6,0-50,22.4-50,50v370v41.6C559,502.1,582.3,513.9,598.8,501.8z M673.5,114.5c0-12.4,10.1-22.5,22.5-22.5h51.2V63.5
		c0-12.4,10.1-22.5,22.5-22.5s22.5,10.1,22.5,22.5V92h34.8c12.4,0,22.5,10.1,22.5,22.5S839.4,137,826.9,137h-34.8v60.8H841
		c12.4,0,22.5,10.1,22.5,22.5v105.8c0,12.4-10.1,22.5-22.5,22.5h-48.9v28.5c0,12.4-10.1,22.5-22.5,22.5s-22.5-10.1-22.5-22.5v-28.5
		h-41.1c-12.4,0-22.5-10.1-22.5-22.5s10.1-22.5,22.5-22.5h41.1v-60.8H696c-12.4,0-22.5-10.1-22.5-22.5V114.5z"/>
</g>
</svg>
