<?xml version="1.0" encoding="utf-8"?>
<!-- Generator: Adobe Illustrator 17.1.0, SVG Export Plug-In . SVG Version: 6.00 Build 0)  -->
<!DOCTYPE svg PUBLIC "-//W3C//DTD SVG 1.1//EN" "http://www.w3.org/Graphics/SVG/1.1/DTD/svg11.dtd">
<svg version="1.1" id="Capa_1" xmlns="http://www.w3.org/2000/svg" xmlns:xlink="http://www.w3.org/1999/xlink" x="0px" y="0px"
	 width="1000px" height="1000px" viewBox="0 0 1000 1000" enable-background="new 0 0 1000 1000" xml:space="preserve">
<g>
	<path d="M315.8,480.7c-0.2-23,4.2-45.3,13.1-66.5c5.7-13.6,13.1-26.3,22.1-37.9h-29.8L262,471.6l-20.6-36.5l36.4-58.8h-44.9H188
		l36.4,58.8l-20.6,36.5l-59.2-95.3H75.8c-27.6,0-50,22.4-50,50v163.5h330.5C330.4,559.3,316.1,521.1,315.8,480.7z"/>
	<path d="M232,338.7c68.1,0.5,123.9-55.9,123.9-124.1V109.4c0-9.1-7.4-16.5-16.5-16.5H234c-68.1,0-124.6,55.8-124.1,123.9
		C110.5,283.9,164.8,338.2,232,338.7z"/>
	<path d="M926.2,376.3h-68.8l-59.2,95.3l-20.6-36.5l36.4-58.8h-44.9h-44.9l36.4,58.8L740,471.6l-59.2-95.3h-23.7v101.9
		c0,23-4.5,45.4-13.4,66.6c-6.9,16.4-16.2,31.6-27.8,45.1h360.3V426.3C976.2,398.7,953.8,376.3,926.2,376.3z"/>
	<path d="M768.2,338.7c68.1,0.5,123.9-55.9,123.9-124.1V109.4c0-9.1-7.4-16.5-16.5-16.5H770.2c-68.1,0-124.6,55.8-124.1,123.9
		C646.7,283.9,701,338.2,768.2,338.7z"/>
	<path d="M673.4,663h-85.8l-67.8,109l-23.6-41.8l41.6-67.3h-51.4h-51.4l41.6,67.3L453.2,772l-67.8-109h-85.8c-27.6,0-50,22.4-50,50
		v194.2h473.8V713C723.4,685.4,701,663,673.4,663z"/>
	<path d="M399.3,589.8c23.7,18.8,53.6,30,86.1,30.3c0.3,0,0.7,0,1.1,0c32.6,0,62.6-11.4,86.5-30.3c33-26.1,54.2-66.6,54.2-111.6
		V376.3v-18.6c0-10.4-8.5-18.9-18.9-18.9H487.7c-36.9,0-70.7,14.3-96.1,37.6c-28.3,25.9-46.1,63.1-45.8,104.1
		C346.1,524.8,367,564.2,399.3,589.8z"/>
</g>
</svg>
