<?xml version="1.0" encoding="utf-8"?>
<!-- Generator: Adobe Illustrator 17.1.0, SVG Export Plug-In . SVG Version: 6.00 Build 0)  -->
<!DOCTYPE svg PUBLIC "-//W3C//DTD SVG 1.1//EN" "http://www.w3.org/Graphics/SVG/1.1/DTD/svg11.dtd">
<svg version="1.1" id="Layer_1" xmlns="http://www.w3.org/2000/svg" xmlns:xlink="http://www.w3.org/1999/xlink" x="0px" y="0px"
	 width="1000px" height="1000px" viewBox="0 0 1000 1000" enable-background="new 0 0 1000 1000" xml:space="preserve">
<g>
	<path d="M67.2,984.3h526.1c27.6,0,50-22.4,50-50v-92.1c0-56.4-45.7-102.1-102.1-102.1h-77.4l-89.5,144.1l-31.1-55.2l55-88.9h-67.9
		h-67.9l55,88.9l-31.1,55.2l-89.5-144.1h-77.4c-56.4,0-102.1,45.7-102.1,102.1v92.1C17.2,962,39.6,984.3,67.2,984.3z"/>
	<path d="M331.9,311.7c-103,0-188.3,84.3-187.5,187.3c0.8,101.5,82.9,183.7,184.4,184.4c103,0.8,187.3-84.5,187.3-187.5V336.7
		c0-13.8-11.2-25-25-25H331.9z"/>
	<path d="M979,390.8v-320c0-27.6-22.4-50-50-50H609c-27.6,0-50,22.4-50,50v370v41.6c0,20.5,23.3,32.3,39.8,20.2l71-52.1
		c8.6-6.3,18.9-9.7,29.6-9.7H929C956.6,440.8,979,418.4,979,390.8z M873.4,156.3c0,12.4-10.1,22.5-22.5,22.5s-22.5-10.1-22.5-22.5
		v-17.7H728.3v29h44.6c12.4,0,22.5,10.1,22.5,22.5s-10.1,22.5-22.5,22.5h-44.6v18.6h44.6c12.4,0,22.5,10.1,22.5,22.5
		s-10.1,22.5-22.5,22.5h-44.6v29h100.1v-17c0-12.4,10.1-22.5,22.5-22.5s22.5,10.1,22.5,22.5v39.5c0,12.4-10.1,22.5-22.5,22.5H705.8
		c-12.4,0-22.5-10.1-22.5-22.5v-51.5h-17.5c-12.4,0-22.5-10.1-22.5-22.5s10.1-22.5,22.5-22.5h17.5v-18.6h-17.5
		c-12.4,0-22.5-10.1-22.5-22.5s10.1-22.5,22.5-22.5h17.5v-51.5c0-12.4,10.1-22.5,22.5-22.5h145.1c12.4,0,22.5,10.1,22.5,22.5V156.3z
		"/>
</g>
</svg>
