<?xml version="1.0" encoding="utf-8"?>
<!-- Generator: Adobe Illustrator 17.1.0, SVG Export Plug-In . SVG Version: 6.00 Build 0)  -->
<!DOCTYPE svg PUBLIC "-//W3C//DTD SVG 1.1//EN" "http://www.w3.org/Graphics/SVG/1.1/DTD/svg11.dtd">
<svg version="1.1" id="Layer_1" xmlns="http://www.w3.org/2000/svg" xmlns:xlink="http://www.w3.org/1999/xlink" x="0px" y="0px"
	 width="1000px" height="1000px" viewBox="0 0 1000 1000" enable-background="new 0 0 1000 1000" xml:space="preserve">
<g>
	<path d="M844.8,46.9c-12.8-8.2-29.8-4.4-38,8.4l-75,117.7l-75-117.7c-8.2-12.8-25.2-16.6-38-8.4c-12.8,8.2-16.6,25.2-8.4,38
		l73.8,115.8h-21.7c-15.2,0-27.5,12.3-27.5,27.5s12.3,27.5,27.5,27.5h41.8v22.1h-41.8c-15.2,0-27.5,12.3-27.5,27.5
		s12.3,27.5,27.5,27.5h41.8v25.1c0,15.2,12.3,27.5,27.5,27.5s27.5-12.3,27.5-27.5v-25.1H801c15.2,0,27.5-12.3,27.5-27.5
		s-12.3-27.5-27.5-27.5h-41.8v-22.1H801c15.2,0,27.5-12.3,27.5-27.5s-12.3-27.5-27.5-27.5h-21.7l73.8-115.8
		C861.4,72.1,857.6,55.1,844.8,46.9z"/>
	<path d="M335.4,974.7h126.9c27.6,0,50-22.4,50-50v-501l75.8,86.3c9.5,10.8,23.2,17,37.6,17l127.7-0.1c27.6,0,50-22.4,50-50v-2.4
		c0-27.6-22.4-50-50-50h-80.9c-14.5,0-28.2-6.3-37.7-17.2L541,299.6c-12.2-14-29.8-22-48.4-22h-18.2l-56.2,90.5l-19.6-34.7
		l34.6-55.8h-84.5l34.6,55.8l-19.6,34.7l-56.2-90.5h-48.7c-35.4,0-64.1,28.7-64.1,64.1l0,297.3c0,27.6,22.4,50,50,50h40.8v235.7
		C285.4,952.3,307.8,974.7,335.4,974.7z"/>
	<path d="M390.2,233.4c56.5,0.4,102.2-46.1,102.2-102.7V55.4c0-13.8-11.2-25-25-25h-75.3c-56.5,0-103.1,45.7-102.7,102.2
		C289.9,188.1,334.8,232.9,390.2,233.4z"/>
</g>
</svg>
