<?xml version="1.0" encoding="utf-8"?>
<!-- Generator: Adobe Illustrator 17.1.0, SVG Export Plug-In . SVG Version: 6.00 Build 0)  -->
<!DOCTYPE svg PUBLIC "-//W3C//DTD SVG 1.1//EN" "http://www.w3.org/Graphics/SVG/1.1/DTD/svg11.dtd">
<svg version="1.1" id="Layer_1" xmlns="http://www.w3.org/2000/svg" xmlns:xlink="http://www.w3.org/1999/xlink" x="0px" y="0px"
	 width="1000px" height="1000px" viewBox="0 0 1000 1000" enable-background="new 0 0 1000 1000" xml:space="preserve">
<g>
	<path d="M871.5,930.7V69.3c0-27.6-22.4-50-50-50H178.1c-27.6,0-50,22.4-50,50v861.5c0,27.6,22.4,50,50,50h643.4
		C849.1,980.7,871.5,958.4,871.5,930.7z M333,865.9c0,13.8-11.2,25-25,25h-57.7c-13.8,0-25-11.2-25-25v-57.7c0-13.8,11.2-25,25-25
		H308c13.8,0,25,11.2,25,25V865.9z M333,717.6c0,13.8-11.2,25-25,25h-57.7c-13.8,0-25-11.2-25-25V660c0-13.8,11.2-25,25-25H308
		c13.8,0,25,11.2,25,25V717.6z M333,569.3c0,13.8-11.2,25-25,25h-57.7c-13.8,0-25-11.2-25-25v-57.7c0-13.8,11.2-25,25-25H308
		c13.8,0,25,11.2,25,25V569.3z M333,421c0,13.8-11.2,25-25,25h-57.7c-13.8,0-25-11.2-25-25v-57.7c0-13.8,11.2-25,25-25H308
		c13.8,0,25,11.2,25,25V421z M480.3,865.9c0,13.8-11.2,25-25,25h-57.7c-13.8,0-25-11.2-25-25v-57.7c0-13.8,11.2-25,25-25h57.7
		c13.8,0,25,11.2,25,25V865.9z M480.3,717.6c0,13.8-11.2,25-25,25h-57.7c-13.8,0-25-11.2-25-25V660c0-13.8,11.2-25,25-25h57.7
		c13.8,0,25,11.2,25,25V717.6z M480.3,569.3c0,13.8-11.2,25-25,25h-57.7c-13.8,0-25-11.2-25-25v-57.7c0-13.8,11.2-25,25-25h57.7
		c13.8,0,25,11.2,25,25V569.3z M480.3,421c0,13.8-11.2,25-25,25h-57.7c-13.8,0-25-11.2-25-25v-57.7c0-13.8,11.2-25,25-25h57.7
		c13.8,0,25,11.2,25,25V421z M627.6,865.9c0,13.8-11.2,25-25,25H545c-13.8,0-25-11.2-25-25v-57.7c0-13.8,11.2-25,25-25h57.7
		c13.8,0,25,11.2,25,25V865.9z M627.6,717.6c0,13.8-11.2,25-25,25H545c-13.8,0-25-11.2-25-25V660c0-13.8,11.2-25,25-25h57.7
		c13.8,0,25,11.2,25,25V717.6z M627.6,569.3c0,13.8-11.2,25-25,25H545c-13.8,0-25-11.2-25-25v-57.7c0-13.8,11.2-25,25-25h57.7
		c13.8,0,25,11.2,25,25V569.3z M627.6,421c0,13.8-11.2,25-25,25H545c-13.8,0-25-11.2-25-25v-57.7c0-13.8,11.2-25,25-25h57.7
		c13.8,0,25,11.2,25,25V421z M774.9,865.9c0,13.8-11.2,25-25,25h-57.7c-13.8,0-25-11.2-25-25V660c0-13.8,11.2-25,25-25h57.7
		c13.8,0,25,11.2,25,25V865.9z M774.9,569.3c0,13.8-11.2,25-25,25h-57.7c-13.8,0-25-11.2-25-25v-57.7c0-13.8,11.2-25,25-25h57.7
		c13.8,0,25,11.2,25,25V569.3z M774.9,421c0,13.8-11.2,25-25,25h-57.7c-13.8,0-25-11.2-25-25v-57.7c0-13.8,11.2-25,25-25h57.7
		c13.8,0,25,11.2,25,25V421z M774.9,219.7c0,13.8-11.2,25-25,25H249.6c-13.8,0-25-11.2-25-25v-86.5c0-13.8,11.2-25,25-25h500.3
		c13.8,0,25,11.2,25,25V219.7z"/>
</g>
</svg>
