<?xml version="1.0" encoding="utf-8"?>
<!-- Generator: Adobe Illustrator 17.1.0, SVG Export Plug-In . SVG Version: 6.00 Build 0)  -->
<!DOCTYPE svg PUBLIC "-//W3C//DTD SVG 1.1//EN" "http://www.w3.org/Graphics/SVG/1.1/DTD/svg11.dtd">
<svg version="1.1" id="Capa_1" xmlns="http://www.w3.org/2000/svg" xmlns:xlink="http://www.w3.org/1999/xlink" x="0px" y="0px"
	 width="1000px" height="1000px" viewBox="0 0 1000 1000" enable-background="new 0 0 1000 1000" xml:space="preserve">
<path d="M300.2,529.6c51.8-12.4,126.4-19.9,199.8-19.9c72.3,0,145.8,7.3,197.5,19.4l36.4-374.7c5.9-65.2-45.5-121.4-110.9-121.4
	H376.5c-65.3,0-116.6,55.9-111,120.9L300.2,529.6z"/>
<path d="M651.4,882.7c0,27.8,22.6,50.4,50.4,50.4c27.8,0,50.4-22.6,50.4-50.4c0-11.5-3.8-22-10.3-30.5
	c-13.7-23.1-41.5-42.8-81.5-57.7c-30.9-11.5-67.8-19.4-107.2-23.2v-89.8H446.7v89.8c-39.4,3.8-76.3,11.7-107.2,23.2
	c-44.2,16.4-73.5,38.8-85.4,65.1c-3.6,6.9-5.6,14.8-5.6,23.1c0,27.8,22.6,50.4,50.4,50.4c27.8,0,50.4-22.6,50.4-50.4
	c0-16.4-7.8-30.9-19.9-40.1c7.3-3.8,15.3-7.3,24.1-10.6c35.4-13.2,79.9-21.1,127.1-22.8v68.5c-17.9,7.7-30.4,25.5-30.4,46.3
	c0,27.8,22.6,50.4,50.4,50.4c27.8,0,50.4-22.6,50.4-50.4c0-20.7-12.5-38.5-30.4-46.3v-68.4c46.8,1.8,90.9,9.7,125.9,22.8
	c8.9,3.3,17.2,7,24.5,10.8C659.1,852,651.4,866.5,651.4,882.7z"/>
<path d="M808.6,592.5V476.4l-59.2-0.2c0,0,1.9,73.2-42.8,86.2c-28.9-8.2-68.5-14.6-112-18.5c-30.4-2.7-62.7-4.2-94.6-4.2
	s-64.2,1.5-94.6,4.2c-43.5,3.9-83.1,10.3-112,18.5c-41.1-14.1-43.1-87-43.1-87h-57.9v117.1c0,32.6,26.5,59.1,59.1,59.1H364h82.7
	h106.5h82.7h113.5C782.1,651.6,808.6,625.1,808.6,592.5z"/>
<path d="M162.5,451.5c0.6,0,1.2,0.1,1.8,0.1h95.4c0-2.1-0.1-4.2-0.3-6.2c-3.1-33.8-31.6-60.3-66.2-60.3c-19.3,0-36.7,8.2-48.9,21.4
	C128.8,423.2,140.3,450.1,162.5,451.5z"/>
<path d="M838.6,451.3c21.2-2.6,31.6-28.6,16.5-44.9c-12.2-13.2-29.6-21.4-48.9-21.4c-34.9,0-63.5,26.9-66.3,61.1
	c-0.1,1.8-0.2,3.6-0.2,5.4h95.4C836.3,451.5,837.4,451.4,838.6,451.3z"/>
</svg>
