<?xml version="1.0" encoding="utf-8"?>
<!-- Generator: Adobe Illustrator 17.1.0, SVG Export Plug-In . SVG Version: 6.00 Build 0)  -->
<!DOCTYPE svg PUBLIC "-//W3C//DTD SVG 1.1//EN" "http://www.w3.org/Graphics/SVG/1.1/DTD/svg11.dtd">
<svg version="1.1" id="Layer_1" xmlns="http://www.w3.org/2000/svg" xmlns:xlink="http://www.w3.org/1999/xlink" x="0px" y="0px"
	 width="1000px" height="1000px" viewBox="0 0 1000 1000" enable-background="new 0 0 1000 1000" xml:space="preserve">
<g>
	<path d="M926.4,336.8H527c-13.8,0-27,5.7-36.4,15.7L424,423.4l17.6,21.5h397.8c9.7,0,17.5,7.8,17.5,17.5s-7.8,17.5-17.5,17.5H470.2
		l37.6,46c4.3,5.2,7.9,11,10.7,17.1h320.9c9.7,0,17.5,7.8,17.5,17.5s-7.8,17.5-17.5,17.5H526l0.9,89.1c0.1,14.8-5.5,28.7-15.9,39.2
		c-10.3,10.4-24.5,16.3-39,16.3c-3.8,0-7.7-0.4-11.4-1.2l-89.2-18.8c-17.8-3.7-33.9-13.5-45.4-27.6l-64.5-78.8L96.7,770.9
		c-15,16-3.7,42.1,18.2,42.1h811.5c27.6,0,50-22.4,50-50V386.8C976.4,359.2,954,336.8,926.4,336.8z M839.4,728H603.7
		c-9.7,0-17.5-7.8-17.5-17.5s7.8-17.5,17.5-17.5h235.6c9.7,0,17.5,7.8,17.5,17.5S849,728,839.4,728z"/>
	<path d="M204.9,479.8l51.6,63l25.5,31.2l3.1,3.8l63.9,78c7.2,8.8,17.2,14.9,28.4,17.2l89.2,18.8c1.8,0.4,3.5,0.5,5.2,0.5
		c13.5,0,25.1-11.1,24.9-25.2l-0.9-89.3l0-1.9c-0.1-11.4-4.1-22.4-11.3-31.2l-1.6-1.9l-51.6-63l-28.2-34.4l-0.5-0.6L249.1,257.2
		l24.8-20.3l104,127c4.6,5.6,10.9,8.8,17.6,9.4c0.9,0.1,1.7,0.1,2.6,0.1c5.8,0,11.7-1.9,16.5-5.9c11.1-9.1,12.8-25.5,3.7-36.7
		L266,144.9c-5.2-6.3-12.6-9.6-20.2-9.6c-5.7,0-11.3,1.8-16.1,5.6c-11.5,9-12.9,26.2-3.7,37.5l14.8,18.1L216,216.8L189,183.8
		c-17.1-20.9-42.1-31.8-67.2-31.8c-19.3,0-38.8,6.4-54.9,19.6l-1.4,1.1c-37.1,30.4-42.5,85-12.1,122.1l122.9,150L204.9,479.8z"/>
</g>
</svg>
