<?xml version="1.0" encoding="utf-8"?>
<!-- Generator: Adobe Illustrator 17.1.0, SVG Export Plug-In . SVG Version: 6.00 Build 0)  -->
<!DOCTYPE svg PUBLIC "-//W3C//DTD SVG 1.1//EN" "http://www.w3.org/Graphics/SVG/1.1/DTD/svg11.dtd">
<svg version="1.1" id="Layer_1" xmlns="http://www.w3.org/2000/svg" xmlns:xlink="http://www.w3.org/1999/xlink" x="0px" y="0px"
	 width="1000px" height="1000px" viewBox="0 0 1000 1000" enable-background="new 0 0 1000 1000" xml:space="preserve">
<g>
	<path d="M474.2,966.1c224.2,0,409.2-167.5,436.8-384.1c3.8-29.9-19.5-56.3-49.6-56.3H549.2c-41.4,0-75-33.6-75-75V138.5
		c0-30.1-26.4-53.4-56.3-49.6C201.3,116.6,33.9,301.6,33.9,525.7C33.9,769.4,230.6,966.1,474.2,966.1z"/>
	<path d="M578.7,42.4c-29.8-3.8-56,19.7-56,49.6v337.2c0,27.6,22.4,50,50,50H910c30,0,53.4-26.2,49.6-56
		C934.4,224.8,777.2,67.6,578.7,42.4z"/>
</g>
</svg>
