<?xml version="1.0" encoding="utf-8"?>
<!-- Generator: Adobe Illustrator 17.1.0, SVG Export Plug-In . SVG Version: 6.00 Build 0)  -->
<!DOCTYPE svg PUBLIC "-//W3C//DTD SVG 1.1//EN" "http://www.w3.org/Graphics/SVG/1.1/DTD/svg11.dtd">
<svg version="1.1" id="Capa_1" xmlns="http://www.w3.org/2000/svg" xmlns:xlink="http://www.w3.org/1999/xlink" x="0px" y="0px"
	 width="1000px" height="1000px" viewBox="0 0 1000 1000" enable-background="new 0 0 1000 1000" xml:space="preserve">
<path d="M774.6,129.2h-41.1c0,0.9,0.1,1.8,0.1,2.7v27.9c0,10.9-2.2,21.3-6.2,30.8h9.6c16.6,0,30,13.4,30,30v476.6h-80.9
	c-46.4,0-84.2,37.8-84.2,84.2v83H500H262.9c-16.6,0-30-13.4-30-30V220.6c0-16.6,13.4-30,30-30h9.6c-4-9.5-6.2-19.9-6.2-30.8v-27.9
	c0-0.9,0-1.8,0.1-2.7h-41.1c-29.4,0-53.3,23.9-53.3,53.3v735.5c0,29.4,23.9,53.3,53.3,53.3h549.2c29.4,0,53.3-23.9,53.3-53.3V182.5
	C827.9,153,804,129.2,774.6,129.2z M652,851.1v-69.7c0-18.9,15.3-34.2,34.2-34.2h68.1L652,851.1z"/>
<path d="M540.6,19h-81.2c-27.6,0-50,22.4-50,50v12.9h-63c-26.7,0-48.5,20.9-49.9,47.3c0,0.9-0.1,1.8-0.1,2.7v27.9
	c0,11.6,4,22.3,10.6,30.8c9.2,11.7,23.4,19.2,39.4,19.2h307.2c16,0,30.2-7.5,39.4-19.2c6.7-8.5,10.6-19.2,10.6-30.8v-27.9
	c0-0.9,0-1.8-0.1-2.7c-1.4-26.4-23.2-47.3-49.9-47.3h-63V69C590.6,41.4,568.2,19,540.6,19z M500,62.6c18.2,0,33,14.8,33,33
	s-14.8,33-33,33s-33-14.8-33-33S481.8,62.6,500,62.6z"/>
<path d="M638.8,372.9H361.2c-13.8,0-25,11.2-25,25s11.2,25,25,25h277.6c13.8,0,25-11.2,25-25S652.6,372.9,638.8,372.9z"/>
<path d="M638.8,525.2H361.2c-13.8,0-25,11.2-25,25s11.2,25,25,25h277.6c13.8,0,25-11.2,25-25S652.6,525.2,638.8,525.2z"/>
</svg>
