<?xml version="1.0" encoding="utf-8"?>
<!-- Generator: Adobe Illustrator 17.1.0, SVG Export Plug-In . SVG Version: 6.00 Build 0)  -->
<!DOCTYPE svg PUBLIC "-//W3C//DTD SVG 1.1//EN" "http://www.w3.org/Graphics/SVG/1.1/DTD/svg11.dtd">
<svg version="1.1" id="Layer_1" xmlns="http://www.w3.org/2000/svg" xmlns:xlink="http://www.w3.org/1999/xlink" x="0px" y="0px"
	 width="1000px" height="1000px" viewBox="0 0 1000 1000" enable-background="new 0 0 1000 1000" xml:space="preserve">
<g>
	<path d="M243.8,618.2V429H92c-27.6,0-50,22.4-50,50v370v41.6c0,20.5,23.3,32.3,39.8,20.2l71-52.1c8.6-6.3,18.9-9.7,29.6-9.7H504
		c27.6,0,50-22.4,50-50V698.2H323.8C279.7,698.2,243.8,662.3,243.8,618.2z"/>
	<path d="M920.2,97H323.8c-27.6,0-50,22.4-50,50v282v189.2c0,27.6,22.4,50,50,50H554h231.2c10.6,0,21,3.4,29.6,9.7l115.7,84.9
		c4.6,3.4,9.7,4.9,14.7,4.9c13,0,25.1-10.3,25.1-25v-74.4V147C970.2,119.4,947.8,97,920.2,97z"/>
</g>
</svg>
