<?xml version="1.0" encoding="utf-8"?>
<!-- Generator: Adobe Illustrator 17.1.0, SVG Export Plug-In . SVG Version: 6.00 Build 0)  -->
<!DOCTYPE svg PUBLIC "-//W3C//DTD SVG 1.1//EN" "http://www.w3.org/Graphics/SVG/1.1/DTD/svg11.dtd">
<svg version="1.1" id="Layer_1" xmlns="http://www.w3.org/2000/svg" xmlns:xlink="http://www.w3.org/1999/xlink" x="0px" y="0px"
	 width="1000px" height="1000px" viewBox="0 0 1000 1000" enable-background="new 0 0 1000 1000" xml:space="preserve">
<g>
	<path d="M28,742c0,27.6,22.4,50,50,50h844c27.6,0,50-22.4,50-50V400H28V742z M447.6,504.2c0-13.8,11.2-25,25-25H889
		c13.8,0,25,11.2,25,25v8c0,13.8-11.2,25-25,25H472.6c-13.8,0-25-11.2-25-25V504.2z M86.9,504.2c0-13.8,11.2-25,25-25H331
		c13.8,0,25,11.2,25,25v8c0,13.8-11.2,25-25,25H111.9c-13.8,0-25-11.2-25-25V504.2z M86.9,700.2c0-13.8,11.2-25,25-25H331
		c13.8,0,25,11.2,25,25v8c0,13.8-11.2,25-25,25H111.9c-13.8,0-25-11.2-25-25V700.2z"/>
	<path d="M922,208H78c-27.6,0-50,22.4-50,50v46h944v-46C972,230.4,949.6,208,922,208z"/>
</g>
</svg>
