<?xml version="1.0" encoding="utf-8"?>
<!-- Generator: Adobe Illustrator 17.1.0, SVG Export Plug-In . SVG Version: 6.00 Build 0)  -->
<!DOCTYPE svg PUBLIC "-//W3C//DTD SVG 1.1//EN" "http://www.w3.org/Graphics/SVG/1.1/DTD/svg11.dtd">
<svg version="1.1" id="Layer_1" xmlns="http://www.w3.org/2000/svg" xmlns:xlink="http://www.w3.org/1999/xlink" x="0px" y="0px"
	 width="1000px" height="1000px" viewBox="0 0 1000 1000" enable-background="new 0 0 1000 1000" xml:space="preserve">
<g>
	<path d="M902.4,115.3H97.6C73,115.3,53,135.3,53,160v227.1c0,24.6,20,44.6,44.6,44.6h98.7v-55v-55H188c-13.8,0-25-11.2-25-25v-46.3
		c0-13.8,11.2-25,25-25h47.4v36.6v59.8v55v55v79.8v342.7c0,27.6,22.4,50,50,50h41.8V431.7v-55v-55v-96.3v-1.1H413v1.1v96.3v55v55
		v472.4h302c27.6,0,50-22.4,50-50V511.5v-79.8v-55v-55v-59.8v-36.6H812c13.8,0,25,11.2,25,25v46.3c0,13.8-11.2,25-25,25h-7.8v55v55
		h98.2c24.6,0,44.6-20,44.6-44.6V160C947,135.3,927,115.3,902.4,115.3z M520.1,376.7c-5.3-6.5-6.5-16.1-1-24.1l21.3-30.9l29.6-42.9
		c7.9-11.5,25-11.5,32.9,0l29.6,42.9l21.3,30.9c5.5,7.9,4.3,17.6-1,24.1c-3.6,4.4-9,7.3-15.4,7.3H535.6
		C529.1,384,523.7,381,520.1,376.7z M687.8,795.6c0,13.8-11.2,25-25,25h-51.3c-13.8,0-25-11.2-25-25v-51.3c0-13.8,11.2-25,25-25
		h51.3c13.8,0,25,11.2,25,25V795.6z"/>
</g>
</svg>
