<?xml version="1.0" encoding="utf-8"?>
<!-- Generator: Adobe Illustrator 17.1.0, SVG Export Plug-In . SVG Version: 6.00 Build 0)  -->
<!DOCTYPE svg PUBLIC "-//W3C//DTD SVG 1.1//EN" "http://www.w3.org/Graphics/SVG/1.1/DTD/svg11.dtd">
<svg version="1.1" id="Layer_1" xmlns="http://www.w3.org/2000/svg" xmlns:xlink="http://www.w3.org/1999/xlink" x="0px" y="0px"
	 width="1000px" height="1000px" viewBox="0 0 1000 1000" enable-background="new 0 0 1000 1000" xml:space="preserve">
<g>
	<path d="M976.5,830.5V185.1c0-45.5-37-82.5-82.5-82.5h-78.3v36.7v28.3v48.5c0,30.3-24.7,55-55,55H717c-30.3,0-55-24.7-55-55v-48.5
		v-28.3v-36.7H338v36.7v28.3v48.5c0,30.3-24.7,55-55,55h-43.8c-30.3,0-55-24.7-55-55v-48.5v-28.3v-36.7H106
		c-45.5,0-82.5,37-82.5,82.5v645.4c0,45.5,37,82.5,82.5,82.5h788C939.5,913,976.5,876,976.5,830.5z M88.5,830.5V399.7h823v430.8
		c0,9.6-7.9,17.5-17.5,17.5H106C96.4,848,88.5,840.2,88.5,830.5z"/>
	<path d="M717,241.1h43.8c13.8,0,25-11.2,25-25v-48.5v-28.3v-36.7V54c0-13.8-11.2-25-25-25H717c-13.8,0-25,11.2-25,25v48.5v36.7
		v28.3v48.5C692,229.9,703.2,241.1,717,241.1z"/>
	<path d="M239.3,29c-13.8,0-25,11.2-25,25v48.5v36.7v28.3v48.5c0,13.8,11.2,25,25,25H283c13.8,0,25-11.2,25-25v-48.5v-28.3v-36.7V54
		c0-13.8-11.2-25-25-25H239.3z"/>
	<path d="M337.3,463H291c-13.8,0-25,11.2-25,25v286.9c0,13.8,11.2,25,25,25h46.4c13.8,0,25-11.2,25-25V488
		C362.3,474.2,351.1,463,337.3,463z"/>
	<path d="M738,463h-46.4c-13.8,0-25,11.2-25,25v90.7h-70.8V488c0-13.8-11.2-25-25-25h-46.4c-13.8,0-25,11.2-25,25v170.5
		c0,13.8,11.2,25,25,25l142.2,0.2v91.2c0,13.8,11.2,25,25,25H738c13.8,0,25-11.2,25-25V488C763,474.2,751.8,463,738,463z"/>
</g>
</svg>
