<?xml version="1.0" encoding="utf-8"?>
<!-- Generator: Adobe Illustrator 17.1.0, SVG Export Plug-In . SVG Version: 6.00 Build 0)  -->
<!DOCTYPE svg PUBLIC "-//W3C//DTD SVG 1.1//EN" "http://www.w3.org/Graphics/SVG/1.1/DTD/svg11.dtd">
<svg version="1.1" id="Layer_1" xmlns="http://www.w3.org/2000/svg" xmlns:xlink="http://www.w3.org/1999/xlink" x="0px" y="0px"
	 width="1000px" height="1000px" viewBox="0 0 1000 1000" enable-background="new 0 0 1000 1000" xml:space="preserve">
<g>
	<path d="M752.2,156.9H551.5c-7.1,0-10.7,8.6-5.7,13.7l200.7,200.7c5,5,13.7,1.5,13.7-5.7V164.9
		C760.2,160.5,756.6,156.9,752.2,156.9z"/>
	<path d="M521.2,221.7v183.4c0,4.4,3.6,8,8,8h183.4c7.1,0,10.7-8.6,5.7-13.7L534.8,216.1C529.8,211.1,521.2,214.6,521.2,221.7z"/>
	<path d="M521.2,874.3c0,8.4,11.4,11.1,15.2,3.6l205.8-413.1c2.6-5.3-1.2-11.6-7.2-11.6H529.2c-4.4,0-8,3.6-8,8V874.3z"/>
	<path d="M187.7,203.1L45.3,400.5c-3.8,5.3,0,12.7,6.5,12.7h142.3c4.4,0,8-3.6,8-8V207.8C202.1,200,192.2,196.8,187.7,203.1z"/>
	<path d="M467.5,216.1L284.1,399.5c-5,5-1.5,13.7,5.7,13.7h183.4c4.4,0,8-3.6,8-8V221.7C481.2,214.6,472.5,211.1,467.5,216.1z"/>
	<path d="M450.8,156.9H250.1c-4.4,0-8,3.6-8,8v200.7c0,7.1,8.6,10.7,13.7,5.7l200.7-200.7C461.5,165.5,457.9,156.9,450.8,156.9z"/>
	<path d="M950.5,413.2c6.5,0,10.3-7.4,6.5-12.7L814.7,203.1c-4.5-6.3-14.5-3.1-14.5,4.7v197.4c0,4.4,3.6,8,8,8H950.5z"/>
	<path d="M790.4,457.6L584.2,871.6c-4.2,8.4,7.1,15.9,13.2,8.8l354.7-413.9c4.4-5.2,0.8-13.2-6.1-13.2H797.5
		C794.5,453.2,791.7,454.9,790.4,457.6z"/>
	<path d="M204.8,453.2H56.3c-6.8,0-10.5,8-6.1,13.2l354.7,413.9c6.1,7.2,17.4-0.3,13.2-8.8L212,457.6
		C210.6,454.9,207.8,453.2,204.8,453.2z"/>
	<path d="M481.2,874.3V461.2c0-4.4-3.6-8-8-8H267.4c-5.9,0-9.8,6.2-7.2,11.6L466,877.9C469.8,885.5,481.2,882.8,481.2,874.3z"/>
</g>
</svg>
