<?xml version="1.0" encoding="utf-8"?>
<!-- Generator: Adobe Illustrator 17.1.0, SVG Export Plug-In . SVG Version: 6.00 Build 0)  -->
<!DOCTYPE svg PUBLIC "-//W3C//DTD SVG 1.1//EN" "http://www.w3.org/Graphics/SVG/1.1/DTD/svg11.dtd">
<svg version="1.1" id="Layer_1" xmlns="http://www.w3.org/2000/svg" xmlns:xlink="http://www.w3.org/1999/xlink" x="0px" y="0px"
	 width="1000px" height="1000px" viewBox="0 0 1000 1000" enable-background="new 0 0 1000 1000" xml:space="preserve">
<g>
	<path d="M102,322.2c0,113.7,0,439.8,0,439.8c0,19.7,11.6,37.6,29.6,45.7L465,956.3c16.5,7.4,35.2-4.7,35.2-22.8v-456
		c0-9.9-5.8-18.8-14.8-22.8L137.2,299.3C120.6,292,102,304.1,102,322.2z M290.4,546.1c21.6-1.4,40.9,26.6,43.2,62.5
		c2.3,35.9-13.4,66.1-35,67.4c-21.6,1.4-40.9-26.6-43.2-62.5C253.1,577.6,268.8,547.4,290.4,546.1z"/>
	<path d="M933.3,761.9c0,0,0-326.1,0-439.8c0-18.1-18.7-30.2-35.2-22.8L550,454.7c-9,4-14.8,13-14.8,22.8v456
		c0,18.1,18.7,30.2,35.2,22.8l333.4-148.7C921.7,799.6,933.3,781.7,933.3,761.9z M701.9,749.9c-2.3,35.9-21.6,63.8-43.2,62.5
		c-21.6-1.4-37.2-31.6-35-67.4c2.3-35.9,21.6-63.8,43.2-62.5C688.6,683.9,704.2,714.1,701.9,749.9z M849.7,496.5
		c-2.3,35.9-21.6,63.8-43.2,62.5c-21.6-1.4-37.2-31.6-35-67.4c2.3-35.9,21.6-63.8,43.2-62.5C836.3,430.4,852,460.6,849.7,496.5z"/>
	<path d="M154.6,268.8l352.9,157.4c6.5,2.9,13.9,2.9,20.4,0l352.9-157.4c20-8.9,19.7-37.4-0.5-45.9L537.1,78.1
		c-6.2-2.6-12.8-3.9-19.4-3.9c-6.6,0-13.2,1.3-19.4,3.9L155,222.9C134.9,231.4,134.6,259.9,154.6,268.8z M708.1,204.5
		c35.9-0.2,65.1,17.3,65.2,39c0.1,21.7-28.9,39.5-64.8,39.6c-35.9,0.2-65.1-17.3-65.2-39S672.2,204.6,708.1,204.5z M517.5,204.5
		c35.9-0.2,65.1,17.3,65.2,39c0.1,21.7-28.9,39.5-64.8,39.6c-35.9,0.2-65.1-17.3-65.2-39S481.6,204.6,517.5,204.5z M326.9,204.5
		c35.9-0.2,65.1,17.3,65.2,39s-28.9,39.5-64.8,39.6s-65.1-17.3-65.2-39C262,222.4,291,204.6,326.9,204.5z"/>
</g>
</svg>
