<?xml version="1.0" encoding="utf-8"?>
<!-- Generator: Adobe Illustrator 17.1.0, SVG Export Plug-In . SVG Version: 6.00 Build 0)  -->
<!DOCTYPE svg PUBLIC "-//W3C//DTD SVG 1.1//EN" "http://www.w3.org/Graphics/SVG/1.1/DTD/svg11.dtd">
<svg version="1.1" id="Layer_1" xmlns="http://www.w3.org/2000/svg" xmlns:xlink="http://www.w3.org/1999/xlink" x="0px" y="0px"
	 width="1000px" height="1000px" viewBox="0 0 1000 1000" enable-background="new 0 0 1000 1000" xml:space="preserve">
<g>
	<path d="M589.4,467.5h-54.7v-64.2h44.1c17.9,0,32.5-14.6,32.5-32.5s-14.6-32.5-32.5-32.5h-44.1v-29.8c0-17.9-14.6-32.5-32.5-32.5
		s-32.5,14.6-32.5,32.5v29.8h-57.5c-17.9,0-32.5,14.6-32.5,32.5V500c0,17.9,14.6,32.5,32.5,32.5h57.5v64.2h-49.2
		c-17.9,0-32.5,14.6-32.5,32.5s14.6,32.5,32.5,32.5h49.2v29.8c0,17.9,14.6,32.5,32.5,32.5s32.5-14.6,32.5-32.5v-29.8h54.7
		c17.9,0,32.5-14.6,32.5-32.5V500C621.9,482.1,607.3,467.5,589.4,467.5z M469.6,467.5h-25v-64.2h25V467.5z M556.9,596.7h-22.2v-64.2
		h22.2V596.7z"/>
	<path d="M947.4,395.7l-59.2-19.2c-3.7-11.6-7.9-23-12.7-34.3c-4-9.5-8.4-18.8-13.1-27.9l28.3-55.5c9.9-19.3,6.2-42.8-9.2-58.1
		l-80.4-80.4c-15.2-15.2-38.5-19-57.8-9.3l-56.3,28.3c-8.9-4.5-17.9-8.8-27.1-12.7c-11.3-4.8-22.7-9-34.3-12.7l-19.2-59.2
		c-6.7-20.6-25.9-34.6-47.6-34.6H445.4c-21.6,0-40.7,13.8-47.5,34.3l-19.8,59.8c-11.3,3.6-22.5,7.8-33.5,12.5
		c-9.2,3.9-18.3,8.1-27.1,12.7l-56.3-28.3c-19.3-9.7-42.6-5.9-57.8,9.3L123,200.9c-15.3,15.3-19,38.8-9.2,58.1l28.3,55.5
		c-4.7,9.1-9,18.4-13.1,27.9c-4.7,11-8.8,22.2-12.5,33.5l-59.8,19.8c-20.5,6.8-34.3,25.9-34.3,47.5v113.6c0,21.7,14,40.9,34.6,47.6
		l59.2,19.2c3.7,11.6,7.9,23,12.7,34.3c4,9.5,8.4,18.8,13.1,27.9L113.8,741c-9.9,19.3-6.2,42.8,9.2,58.1l80.4,80.4
		c15.2,15.2,38.5,19,57.8,9.3l56.3-28.3c8.9,4.5,17.9,8.8,27.1,12.7c11.3,4.8,22.7,9,34.3,12.7l19.2,59.2
		c6.7,20.6,25.9,34.6,47.6,34.6h149.7l31.2-94.1c11.3-3.6,22.5-7.8,33.5-12.5c9.2-3.9,18.3-8.1,27.1-12.7l56.3,28.3
		c19.3,9.7,42.6,5.9,57.8-9.3l80.4-80.4c15.3-15.3,19-38.8,9.2-58.1l-28.3-55.5c4.7-9.1,9-18.4,13.1-27.9c4.7-11,8.8-22.2,12.5-33.5
		l59.8-19.8c20.5-6.8,34.3-25.9,34.3-47.5V443.3C982,421.6,968.1,402.4,947.4,395.7z M682.7,680.4c-48.2,48.2-112.2,74.7-180.4,74.7
		s-132.2-26.5-180.4-74.7c-48.2-48.2-74.7-112.2-74.7-180.4s26.5-132.2,74.7-180.4c48.2-48.2,112.2-74.7,180.4-74.7
		s132.2,26.5,180.4,74.7c48.2,48.2,74.7,112.2,74.7,180.4S730.8,632.2,682.7,680.4z"/>
</g>
</svg>
