<?xml version="1.0" encoding="utf-8"?>
<!-- Generator: Adobe Illustrator 17.1.0, SVG Export Plug-In . SVG Version: 6.00 Build 0)  -->
<!DOCTYPE svg PUBLIC "-//W3C//DTD SVG 1.1//EN" "http://www.w3.org/Graphics/SVG/1.1/DTD/svg11.dtd">
<svg version="1.1" id="Layer_1" xmlns="http://www.w3.org/2000/svg" xmlns:xlink="http://www.w3.org/1999/xlink" x="0px" y="0px"
	 width="1000px" height="1000px" viewBox="0 0 1000 1000" enable-background="new 0 0 1000 1000" xml:space="preserve">
<g>
	<path d="M376,230c0-8.3,6.7-15,15-15h216c8.3,0,15,6.7,15,15v60h70v-60c0-46.9-38.1-85-85-85H391c-46.9,0-85,38.1-85,85v60h70V230z
		"/>
	<rect x="528" y="628.9" width="36.6" height="80.8"/>
	<rect x="433.4" y="493.1" width="39.5" height="80.8"/>
	<path d="M95,884h808c27.6,0,50-22.4,50-50V370c0-27.6-22.4-50-50-50H692h-70H376h-70H95c-27.6,0-50,22.4-50,50v464
		C45,861.6,67.4,884,95,884z M378.4,465.6c0-15.2,12.3-27.5,27.5-27.5h67v-41.4c0-15.2,12.3-27.5,27.5-27.5s27.5,12.3,27.5,27.5
		v41.4h58.5c15.2,0,27.5,12.3,27.5,27.5s-12.3,27.5-27.5,27.5H528v80.8h64.1c15.2,0,27.5,12.3,27.5,27.5v135.8
		c0,1.1-0.1,2.2-0.2,3.3c-1.6,13.6-13.2,24.2-27.3,24.2H528V806c0,3.9-0.8,7.6-2.3,11c-4.2,9.7-13.9,16.5-25.2,16.5
		s-21-6.8-25.2-16.5c-1.5-3.4-2.3-7.1-2.3-11v-41.4h-61.2c-12.1,0-22.3-7.8-26-18.6c-1-2.8-1.5-5.8-1.5-8.9
		c0-15.2,12.3-27.5,27.5-27.5H473v-80.8h-67c-15.2,0-27.5-12.3-27.5-27.5V465.6z"/>
</g>
</svg>
