<?xml version="1.0" encoding="utf-8"?>
<!-- Generator: Adobe Illustrator 17.1.0, SVG Export Plug-In . SVG Version: 6.00 Build 0)  -->
<!DOCTYPE svg PUBLIC "-//W3C//DTD SVG 1.1//EN" "http://www.w3.org/Graphics/SVG/1.1/DTD/svg11.dtd">
<svg version="1.1" id="Layer_1" xmlns="http://www.w3.org/2000/svg" xmlns:xlink="http://www.w3.org/1999/xlink" x="0px" y="0px"
	 width="1000px" height="1000px" viewBox="0 0 1000 1000" enable-background="new 0 0 1000 1000" xml:space="preserve">
<g>
	<path d="M151.8,212.2h521.4c27.6,0,50-22.4,50-50v-27.6c0-27.6-22.4-50-50-50H151.8c-27.6,0-50,22.4-50,50v27.6
		C101.8,189.8,124.2,212.2,151.8,212.2z"/>
	<path d="M72,391.2h521.4c27.6,0,50-22.4,50-50v-27.6c0-27.6-22.4-50-50-50H72c-27.6,0-50,22.4-50,50v27.6
		C22,368.8,44.4,391.2,72,391.2z"/>
	<path d="M72,566.9h353c15.1-32.2,35.6-61.4,60.9-86.7c15.5-15.5,32.4-29.1,50.5-40.8H72c-27.6,0-50,22.4-50,50v27.6
		C22,544.5,44.4,566.9,72,566.9z"/>
	<path d="M151.8,615.1c-27.6,0-50,22.4-50,50v27.6c0,27.6,22.4,50,50,50h247.4c-2.2-14.9-3.3-30.1-3.3-45.4
		c0-28.1,3.7-55.6,11.1-82.2H151.8z"/>
	<path d="M72,921.7h421.4c-2.5-2.4-5.1-4.8-7.6-7.3c-28.2-28.2-50.3-61-65.8-97.6c-3.2-7.5-6-15.1-8.6-22.7H72
		c-27.6,0-50,22.4-50,50v27.6C22,899.3,44.4,921.7,72,921.7z"/>
	<polygon points="647.8,615.1 647.8,672.3 678.7,672.3 678.7,615.4 678.7,606.1 647.8,606.1 	"/>
	<rect x="728.7" y="722.3" width="28.4" height="66.2"/>
	<path d="M600.5,439.9c-61,24.3-111.3,69.6-142,127.1c-8.2,15.3-14.9,31.4-20.2,48.2c-8.1,26-12.4,53.6-12.4,82.2
		c0,15.5,1.3,30.6,3.7,45.4c2.9,17.8,7.5,35,13.7,51.4c19.2,51.5,53.4,95.8,97.1,127.6c45.6,33.1,101.8,52.7,162.5,52.7
		c153,0,277-124,277-277s-124-277-277-277C666.8,420.3,632.2,427.2,600.5,439.9z M728.7,522.2v34h44.9c13.8,0,25,11.2,25,25
		s-11.2,25-25,25h-44.9v66.2h53.4c13.8,0,25,11.2,25,25v116.2c0,13.8-11.2,25-25,25h-53.4v34c0,13.8-11.2,25-25,25s-25-11.2-25-25
		v-34h-35.6h-16.7c-13.8,0-25-11.2-25-25c0-6.6,2.6-12.7,6.8-17.1c4.6-4.8,11-7.9,18.2-7.9h52.3v-46.1v-20.1h-55.9
		c-13.8,0-25-11.2-25-25v-82.2v-34c0-5.7,1.9-10.9,5.1-15.1c4.6-6,11.8-9.9,19.9-9.9h1.7h54.2v-34c0-13.8,11.2-25,25-25
		S728.7,508.4,728.7,522.2z"/>
</g>
</svg>
