<?xml version="1.0" encoding="utf-8"?>
<!-- Generator: Adobe Illustrator 17.1.0, SVG Export Plug-In . SVG Version: 6.00 Build 0)  -->
<!DOCTYPE svg PUBLIC "-//W3C//DTD SVG 1.1//EN" "http://www.w3.org/Graphics/SVG/1.1/DTD/svg11.dtd">
<svg version="1.1" id="Layer_1" xmlns="http://www.w3.org/2000/svg" xmlns:xlink="http://www.w3.org/1999/xlink" x="0px" y="0px"
	 width="1000px" height="1000px" viewBox="0 0 1000 1000" enable-background="new 0 0 1000 1000" xml:space="preserve">
<g>
	<polygon points="533.1,221 533.1,186.5 530,186.5 517.9,186.5 517.9,221 530,221 	"/>
	<rect x="476.5" y="127" width="16.4" height="34.5"/>
	<path d="M470,295h60h172c27.6,0,50-22.4,50-50V105.4c0-27.6-22.4-50-50-50H298c-27.6,0-50,22.4-50,50V245c0,27.6,22.4,50,50,50H470
		z M451.5,114.5c0-6.9,5.6-12.5,12.5-12.5h28.9V85.9c0-6.9,5.6-12.5,12.5-12.5s12.5,5.6,12.5,12.5V102h24.6
		c6.9,0,12.5,5.6,12.5,12.5s-5.6,12.5-12.5,12.5h-24.6v34.5h27.6c6.9,0,12.5,5.6,12.5,12.5v59.5c0,6.9-5.6,12.5-12.5,12.5H530h-12.1
		v16.2c0,6.9-5.6,12.5-12.5,12.5s-12.5-5.6-12.5-12.5V246H470h-4.6c-6.9,0-12.5-5.6-12.5-12.5s5.6-12.5,12.5-12.5h4.6h22.9v-34.5
		H470h-6c-6.9,0-12.5-5.6-12.5-12.5V114.5z"/>
	<path d="M806,599.1v-56.6c0-69.6-56.7-126.3-126.3-126.3H530V325h-60v91.2H320.3c-69.6,0-126.3,56.7-126.3,126.3v56.6h60v-56.6
		c0-36.6,29.7-66.3,66.3-66.3h359.4c36.6,0,66.3,29.7,66.3,66.3v56.6H806z"/>
	<path d="M369,629.1H254h-60H79c-27.6,0-50,22.4-50,50v105.4c0,27.6,22.4,50,50,50H369c27.6,0,50-22.4,50-50V679.1
		C419,651.5,396.6,629.1,369,629.1z"/>
	<path d="M921,629.1H806h-60H631c-27.6,0-50,22.4-50,50v105.4c0,27.6,22.4,50,50,50H921c27.6,0,50-22.4,50-50V679.1
		C971,651.5,948.6,629.1,921,629.1z"/>
</g>
</svg>
