<?xml version="1.0" encoding="utf-8"?>
<!-- Generator: Adobe Illustrator 17.1.0, SVG Export Plug-In . SVG Version: 6.00 Build 0)  -->
<!DOCTYPE svg PUBLIC "-//W3C//DTD SVG 1.1//EN" "http://www.w3.org/Graphics/SVG/1.1/DTD/svg11.dtd">
<svg version="1.1" id="Layer_1" xmlns="http://www.w3.org/2000/svg" xmlns:xlink="http://www.w3.org/1999/xlink" x="0px" y="0px"
	 width="1000px" height="1000px" viewBox="0 0 1000 1000" enable-background="new 0 0 1000 1000" xml:space="preserve">
<g>
	<path d="M704.6,395.8h188.8c21.2,0,32.8-24.7,19.2-41l-86.7-104.2c-14-16.8-39.8-16.8-53.8,0l-86.7,104.2
		C671.8,371.1,683.4,395.8,704.6,395.8z"/>
	<path d="M772.1,749.4c14,16.8,39.8,16.8,53.8,0l86.7-104.2c13.5-16.3,2-41-19.2-41H704.6c-21.2,0-32.8,24.7-19.2,41L772.1,749.4z"
		/>
	<path d="M132.1,562.5h136.2v160.3H165.1c-34.5,0-62.5,28-62.5,62.5s28,62.5,62.5,62.5h103.2v75c0,34.5,28,62.5,62.5,62.5
		s62.5-28,62.5-62.5v-75h130.1c34.5,0,62.5-28,62.5-62.5V500c0-34.5-28-62.5-62.5-62.5H393.2V277.2h112.9c34.5,0,62.5-28,62.5-62.5
		s-28-62.5-62.5-62.5H393.2v-75c0-34.5-28-62.5-62.5-62.5s-62.5,28-62.5,62.5v75H132.1c-34.5,0-62.5,28-62.5,62.5V500
		C69.6,534.5,97.6,562.5,132.1,562.5z M393.2,562.5h67.6v160.3h-67.6V562.5z M194.6,277.2h73.7v160.3h-73.7V277.2z"/>
</g>
</svg>
