<?xml version="1.0" encoding="utf-8"?>
<!-- Generator: Adobe Illustrator 17.1.0, SVG Export Plug-In . SVG Version: 6.00 Build 0)  -->
<!DOCTYPE svg PUBLIC "-//W3C//DTD SVG 1.1//EN" "http://www.w3.org/Graphics/SVG/1.1/DTD/svg11.dtd">
<svg version="1.1" id="Layer_1" xmlns="http://www.w3.org/2000/svg" xmlns:xlink="http://www.w3.org/1999/xlink" x="0px" y="0px"
	 width="1000px" height="1000px" viewBox="0 0 1000 1000" enable-background="new 0 0 1000 1000" xml:space="preserve">
<g>
	<path d="M481.7,721.9c11.1,7.5,25.4,7.5,36.5,0l118.9-80.8H362.8L481.7,721.9z"/>
	<path d="M806.4,526.1l117.4-79.8c13.5-9.2,14.7-28.6,2.5-39.4L533.1,59.3c-18.9-16.7-47.3-16.7-66.2,0L73.7,406.9
		c-12.2,10.8-11,30.2,2.5,39.4l117.4,79.8c-0.1-1.5-0.2-3-0.2-4.5V398.9c0-27.6,22.4-50,50-50h513.3c27.6,0,50,22.4,50,50v122.7
		C806.6,523.1,806.6,524.6,806.4,526.1z"/>
	<path d="M925,487.9l-248,168.5l244.7,236.4c15.9,15.3,42.4,4.1,42.4-18V508.5C964,488.5,941.5,476.6,925,487.9z"/>
	<path d="M75,487.9c-16.6-11.3-39,0.6-39,20.7v366.2c0,22.1,26.5,33.3,42.4,18l244.7-236.4L75,487.9z"/>
	<path d="M647.4,676.5l-109.4,74.3c-11.5,7.8-24.7,11.7-37.9,11.7s-26.4-3.9-37.9-11.7l-109.4-74.3L105.7,915
		c-16.2,15.6-5.1,43,17.4,43h753.9c22.5,0,33.5-27.4,17.4-43L647.4,676.5z"/>
	<path d="M500.6,363.8c-11,0-20,9-20,20v16.5h-32.7c-11,0-20,9-20,20V496c0,11,9,20,20,20h32.7v35.7H450c-11,0-20,9-20,20
		s9,20,20,20h30.7v16.5c0,11,9,20,20,20s20-9,20-20v-16.5h31.1c11,0,20-9,20-20V496c0-11-9-20-20-20h-31.1v-35.7H547
		c11,0,20-9,20-20s-9-20-20-20h-26.4v-16.5C520.6,372.8,511.7,363.8,500.6,363.8z M480.6,476h-12.7v-35.7h12.7V476z M531.7,516v35.7
		h-11.1V516H531.7z"/>
</g>
</svg>
