<?xml version="1.0" encoding="utf-8"?>
<!-- Generator: Adobe Illustrator 17.1.0, SVG Export Plug-In . SVG Version: 6.00 Build 0)  -->
<!DOCTYPE svg PUBLIC "-//W3C//DTD SVG 1.1//EN" "http://www.w3.org/Graphics/SVG/1.1/DTD/svg11.dtd">
<svg version="1.1" id="Layer_1" xmlns="http://www.w3.org/2000/svg" xmlns:xlink="http://www.w3.org/1999/xlink" x="0px" y="0px"
	 width="1000px" height="1000px" viewBox="0 0 1000 1000" enable-background="new 0 0 1000 1000" xml:space="preserve">
<g>
	<path d="M281.4,477.6c126.3,0,228.7-102.4,228.7-228.7c0-126.3-102.4-228.7-228.7-228.7S52.7,122.6,52.7,248.9
		C52.7,375.2,155.1,477.6,281.4,477.6z M187,144.7c0-12.4,10.1-22.5,22.5-22.5h50V91.9c0-12.4,10.1-22.5,22.5-22.5
		s22.5,10.1,22.5,22.5v30.4H348c12.4,0,22.5,10.1,22.5,22.5s-10.1,22.5-22.5,22.5h-43.4v59.1h47.8c12.4,0,22.5,10.1,22.5,22.5V353
		c0,12.4-10.1,22.5-22.5,22.5h-47.8v30.4c0,12.4-10.1,22.5-22.5,22.5s-22.5-10.1-22.5-22.5v-30.4h-47.7c-12.4,0-22.5-10.1-22.5-22.5
		s10.1-22.5,22.5-22.5h47.7v-59.1h-50c-12.4,0-22.5-10.1-22.5-22.5V144.7z"/>
	<rect x="232" y="167.2" width="27.5" height="59.1"/>
	<rect x="304.5" y="271.4" width="25.3" height="59.1"/>
	<path d="M945.4,737c0-126.3-102.4-228.7-228.7-228.7S487.9,610.7,487.9,737c0,126.3,102.4,228.7,228.7,228.7S945.4,863.3,945.4,737
		z M812.5,668.5c0,12.4-10.1,22.5-22.5,22.5s-22.5-10.1-22.5-22.5v-15.9h-97.8v27.8h46.3c12.4,0,22.5,10.1,22.5,22.5
		s-10.1,22.5-22.5,22.5h-46.3V743h46.3c12.4,0,22.5,10.1,22.5,22.5S728.3,788,715.9,788h-46.3v27.9h97.8v-15.2
		c0-12.4,10.1-22.5,22.5-22.5s22.5,10.1,22.5,22.5v37.7c0,12.4-10.1,22.5-22.5,22.5H647.1c-12.4,0-22.5-10.1-22.5-22.5V788h-14.8
		c-12.4,0-22.5-10.1-22.5-22.5s10.1-22.5,22.5-22.5h14.8v-17.6h-14.8c-12.4,0-22.5-10.1-22.5-22.5s10.1-22.5,22.5-22.5h14.8v-50.3
		c0-12.4,10.1-22.5,22.5-22.5H790c12.4,0,22.5,10.1,22.5,22.5V668.5z"/>
	<path d="M665.7,411.6l42.7,61.9c4,5.8,12.5,5.8,16.5,0l42.7-61.9c4.6-6.6-0.2-15.7-8.2-15.7h-12.5c-3.7-38.3-13.3-72.1-28.6-100.8
		c-16.8-31.6-40.2-57-69.7-75.5c-32.9-20.6-65.9-27.8-85.1-30.3c-8.9-1.2-16.8,5.8-16.9,14.8l-0.1,30.3c0,7.4,5.4,13.7,12.7,14.9
		c13.8,2.1,37,7.7,59.5,22.4c38.4,25,61.1,66.7,67.8,124.2H674C665.9,395.9,661.2,404.9,665.7,411.6z"/>
	<path d="M235.6,598.5h12.5c3.7,38.3,13.3,72.1,28.6,100.8c16.8,31.6,40.2,57,69.7,75.5c32.9,20.6,65.9,27.8,85.1,30.3
		c8.9,1.2,16.8-5.8,16.9-14.8l0.1-30.3c0-7.4-5.4-13.7-12.7-14.9c-13.9-2.1-37.1-7.7-59.5-22.4c-38.4-25-61.1-66.7-67.8-124.2H321
		c8.1,0,12.8-9,8.2-15.7L286.5,521c-4-5.8-12.5-5.8-16.5,0l-42.7,61.9C222.8,589.5,227.5,598.5,235.6,598.5z"/>
</g>
</svg>
