<?xml version="1.0" encoding="utf-8"?>
<!-- Generator: Adobe Illustrator 17.1.0, SVG Export Plug-In . SVG Version: 6.00 Build 0)  -->
<!DOCTYPE svg PUBLIC "-//W3C//DTD SVG 1.1//EN" "http://www.w3.org/Graphics/SVG/1.1/DTD/svg11.dtd">
<svg version="1.1" id="Layer_1" xmlns="http://www.w3.org/2000/svg" xmlns:xlink="http://www.w3.org/1999/xlink" x="0px" y="0px"
	 width="1000px" height="1000px" viewBox="0 0 1000 1000" enable-background="new 0 0 1000 1000" xml:space="preserve">
<g>
	<path d="M685,902c13.8,0,25-11.2,25-25v-2c0-13.8-11.2-25-25-25h-26.6l-22.6-141.3H364.3L341.6,850H315c-13.8,0-25,11.2-25,25v2
		c0,13.8,11.2,25,25,25H685z"/>
	<path d="M84,678.7h285.1h261.9H916c27.6,0,50-22.4,50-50V169c0-27.6-22.4-50-50-50H84c-27.6,0-50,22.4-50,50v459.8
		C34,656.3,56.4,678.7,84,678.7z M366.4,248.7c0-16.6,13.4-30,30-30h74.5v-42.4c0-16.6,13.4-30,30-30s30,13.4,30,30v42.4h58.9
		c16.6,0,30,13.4,30,30s-13.4,30-30,30h-58.9v90.1h71.3c16.6,0,30,13.4,30,30v150.1c0,12.2-7.3,22.7-17.7,27.4
		c-3.8,1.7-7.9,2.6-12.3,2.6h-71.3v42.4c0,16.6-13.4,30-30,30s-30-13.4-30-30v-42.4h-60.7c-9.5,0-17.9-4.4-23.4-11.2
		c-4.1-5.1-6.6-11.7-6.6-18.8c0-16.6,13.4-30,30-30h60.7v-90.1h-74.5c-16.6,0-30-13.4-30-30V248.7z"/>
	<rect x="426.4" y="278.7" width="44.5" height="90.1"/>
	<rect x="530.9" y="428.8" width="41.3" height="90.1"/>
</g>
</svg>
