<?xml version="1.0" encoding="utf-8"?>
<!-- Generator: Adobe Illustrator 17.1.0, SVG Export Plug-In . SVG Version: 6.00 Build 0)  -->
<!DOCTYPE svg PUBLIC "-//W3C//DTD SVG 1.1//EN" "http://www.w3.org/Graphics/SVG/1.1/DTD/svg11.dtd">
<svg version="1.1" id="Layer_1" xmlns="http://www.w3.org/2000/svg" xmlns:xlink="http://www.w3.org/1999/xlink" x="0px" y="0px"
	 width="1000px" height="1000px" viewBox="0 0 1000 1000" enable-background="new 0 0 1000 1000" xml:space="preserve">
<g>
	<path d="M128,445.8c-2.4,12.5-1.8,25.2,1.9,37.6c1.2,4.1,2.7,7.9,4.3,11.4c2.1-3.2,4.5-6.1,7.2-8.9l21.1-21.1
		c2.3-19.1,12.6-40.6,36.7-63.5l22.7-24.1c9.2-9.8,9-25.1-0.4-34.7L191.4,312c-9.9-10-26.1-9.9-35.9,0.3l-7.6,8l1.9,1.9
		c9.6,9.6,15.3,22.4,16.1,36c0.7,13.7-3.7,27.1-12.3,37.6C139.7,412.5,131.2,429.4,128,445.8z"/>
	<path d="M118.8,656.5c26.4,26.4,54.9,50.7,85.1,72.6l52.1,37.7c9.1,6.6,14.4,17,14.5,28.2l0.1,17.6c2.4-0.3,4.8-0.5,7.3-0.5h176
		c3.7,0,7.4,0.4,10.9,1.1V699.4c0-2.8-0.5-5.7-1.4-8.4c-37.6-107.5-144.8-140.2-172.5-147c-4.4-1.1-8.5-3.4-11.7-6.6l-55.7-55.7
		c-4.9-4.9-11.3-7.3-17.7-7.3c-6.4,0-12.8,2.4-17.7,7.3l-20.2,20.2l-5.2,5.2c-9.8,9.8-9.8,25.6,0,35.4L272,651.8
		c3.9,3.9,3.9,10.2,0,14.1l-1.9,1.9c-2,2-4.5,2.9-7.1,2.9c-2.6,0-5.1-1-7.1-2.9L130.9,542.8c0,0-76.9-73.1-0.6-166
		c8.1-9.9,7.3-24.4-1.7-33.4l-1.4-1.4l-21.6-21.6c-4.9-4.9-11.3-7.3-17.7-7.3c-7,0-14,2.9-18.9,8.7
		c-126.9,147.7-9.3,275.8-9.3,275.8L118.8,656.5z"/>
	<rect x="450.6" y="186.3" width="27.5" height="59.1"/>
	<rect x="523.1" y="290.5" width="25.3" height="59.1"/>
	<path d="M728.7,268c0-126.3-102.4-228.7-228.7-228.7S271.3,141.7,271.3,268S373.7,496.7,500,496.7S728.7,394.3,728.7,268z
		 M593.4,372.1c0,12.4-10.1,22.5-22.5,22.5h-47.8V425c0,12.4-10.1,22.5-22.5,22.5s-22.5-10.1-22.5-22.5v-30.4h-46.7
		c-12.4,0-22.5-10.1-22.5-22.5s10.1-22.5,22.5-22.5h46.7v-59.1h-50c-12.4,0-22.5-10.1-22.5-22.5V163.8c0-12.4,10.1-22.5,22.5-22.5
		h50V111c0-12.4,10.1-22.5,22.5-22.5s22.5,10.1,22.5,22.5v30.4h39.4c12.4,0,22.5,10.1,22.5,22.5s-10.1,22.5-22.5,22.5h-39.4v59.1
		h47.8c12.4,0,22.5,10.1,22.5,22.5V372.1z"/>
	<path d="M453.8,952.1c13.8,0,25-11.2,25-25v-51.2v-8.9c0-4.4-1.2-8.6-3.2-12.2c-2.7-4.8-6.8-8.6-11.9-10.8c-3.1-1.3-6.4-2.1-10-2.1
		h-176c-2.3,0-4.5,0.3-6.5,0.9c-5.2,1.4-9.7,4.5-13,8.6c-3.4,4.3-5.4,9.7-5.4,15.6v4.6v55.4c0,13.8,11.2,25,25,25H453.8z"/>
	<path d="M849.1,322.1l1.9-1.9l-7.6-8c-9.7-10.2-26-10.3-35.9-0.3l-30.1,30.5c-9.4,9.6-9.6,24.9-0.4,34.7l22.7,24.1
		c24,22.9,34.4,44.4,36.7,63.5l21.1,21.1c2.8,2.8,5.2,5.7,7.2,8.9c1.6-3.5,3.1-7.3,4.3-11.4c3.7-12.4,4.4-25.1,1.9-37.6
		c-3.2-16.5-11.8-33.3-25.5-50.1c-8.7-10.6-13.1-24-12.3-37.6C833.8,344.5,839.5,331.7,849.1,322.1z"/>
	<path d="M911,313c-6.4,0-12.8,2.4-17.7,7.3l-21.6,21.6l-1.4,1.4c-9.1,9.1-9.9,23.5-1.7,33.4c76.3,92.9-0.6,166-0.6,166L742.9,667.8
		c-2,2-4.5,2.9-7.1,2.9c-2.6,0-5.1-1-7.1-2.9l-1.9-1.9c-3.9-3.9-3.9-10.2,0-14.1l109.3-109.3c9.8-9.8,9.8-25.6,0-35.4l-5.2-5.2
		l-20.2-20.2c-4.9-4.9-11.3-7.3-17.7-7.3s-12.8,2.4-17.7,7.3l-55.7,55.7c-3.2,3.2-7.3,5.5-11.7,6.6c-27.7,6.8-134.9,39.5-172.5,147
		c-0.9,2.7-1.4,5.5-1.4,8.4v113.8c3.5-0.7,7.2-1.1,10.9-1.1h176c2.5,0,4.9,0.2,7.3,0.5l0.1-17.6c0-11.2,5.4-21.7,14.5-28.2
		l52.1-37.7c22.2-13.3,53.4-40.4,85.1-72.6l59.1-59.1c0,0,117.6-128.1-9.3-275.8C925,315.9,918,313,911,313z"/>
	<path d="M727.6,842.9c-2.1-0.6-4.3-0.9-6.5-0.9H545c-3.5,0-6.9,0.7-10,2.1c-5,2.2-9.2,6-11.9,10.8c-2,3.6-3.2,7.8-3.2,12.2v8.9
		v51.2c0,13.8,11.2,25,25,25h176c13.8,0,25-11.2,25-25v-55.4v-4.6c0-5.9-2-11.3-5.4-15.6C737.3,847.4,732.8,844.3,727.6,842.9z"/>
</g>
</svg>
