<?xml version="1.0" encoding="utf-8"?>
<!-- Generator: Adobe Illustrator 17.1.0, SVG Export Plug-In . SVG Version: 6.00 Build 0)  -->
<!DOCTYPE svg PUBLIC "-//W3C//DTD SVG 1.1//EN" "http://www.w3.org/Graphics/SVG/1.1/DTD/svg11.dtd">
<svg version="1.1" id="Layer_1" xmlns="http://www.w3.org/2000/svg" xmlns:xlink="http://www.w3.org/1999/xlink" x="0px" y="0px"
	 width="1000px" height="1000px" viewBox="0 0 1000 1000" enable-background="new 0 0 1000 1000" xml:space="preserve">
<g>
	<path d="M116.2,505.7c8.3,17.1,31.9,19.1,42.9,3.5l92-129.9c11.2-15.8,0.9-37.8-18.4-39.4l-25-2c17.7-37.2,42.6-70.8,73.5-99
		c44-40.1,98.6-67.4,158-79c85.3-16.6,172,0.2,244.4,47.3c60.2,39.2,104.4,95.6,127.3,161.4c8.1,23.2,32,36.9,56.1,32.2l1-0.2
		c29.5-5.8,47.2-36.3,37.2-64.7c-12.2-34.6-29-67.4-50.2-97.9C823.9,193.7,785,156,739,126c-46-30-96.6-50.6-150.5-61.5
		c-55.8-11.2-112.7-11.4-169-0.4C342,79.3,270.6,115,213,167.5C163.7,212.4,126,268,103,329.6l-31.5-2.5
		c-19.3-1.5-32.9,18.4-24.5,35.8L116.2,505.7z"/>
	<path d="M844.8,494.1l-92,129.9c-11.2,15.8-0.9,37.8,18.4,39.4l25,2c-17.7,37.2-42.6,70.8-73.5,99c-44,40.1-98.6,67.4-158,79
		c-85.3,16.6-172-0.2-244.4-47.3c-60.2-39.2-104.4-95.6-127.3-161.4c-8.1-23.2-32-36.9-56.1-32.2l-1,0.2
		c-29.5,5.8-47.2,36.3-37.2,64.7c12.2,34.6,29,67.4,50.2,97.9C180,809.7,219,847.5,265,877.4c46,30,96.6,50.6,150.5,61.5
		c28.2,5.7,56.7,8.5,85.2,8.5c27.9,0,55.9-2.7,83.8-8.2c77.5-15.1,149-50.9,206.6-103.3c49.3-44.9,86.9-100.5,109.9-162.1l31.5,2.5
		c19.3,1.5,32.9-18.4,24.5-35.8l-69.2-142.8C879.5,480.6,855.8,478.6,844.8,494.1z"/>
	<path d="M501,215.7c-19.3,0-35,15.7-35,35v46.1h-82.1c-19.3,0-35,15.7-35,35V500c0,19.3,15.7,35,35,35H466v98.2h-67.8
		c-19.3,0-35,15.7-35,35s15.7,35,35,35H466v46.1c0,19.3,15.7,35,35,35s35-15.7,35-35v-46.1h78.5c19.3,0,35-15.7,35-35V500
		c0-19.3-15.7-35-35-35H536v-98.2h63.8c19.3,0,35-15.7,35-35s-15.7-35-35-35H536v-46.1C536,231.4,520.4,215.7,501,215.7z M466,465
		h-47.1v-98.2H466V465z M579.6,535v98.2H536V535H579.6z"/>
</g>
</svg>
