<?xml version="1.0" encoding="utf-8"?>
<!-- Generator: Adobe Illustrator 17.1.0, SVG Export Plug-In . SVG Version: 6.00 Build 0)  -->
<!DOCTYPE svg PUBLIC "-//W3C//DTD SVG 1.1//EN" "http://www.w3.org/Graphics/SVG/1.1/DTD/svg11.dtd">
<svg version="1.1" id="Layer_1" xmlns="http://www.w3.org/2000/svg" xmlns:xlink="http://www.w3.org/1999/xlink" x="0px" y="0px"
	 width="1000px" height="1000px" viewBox="0 0 1000 1000" enable-background="new 0 0 1000 1000" xml:space="preserve">
<g>
	<path d="M351.9,616.7c0-13.8,11.2-25,25-25s25,11.2,25,25v100.2h43.8c1.8-33.3,9.3-65.6,22.2-96.3c14.5-34.4,35.3-65.2,61.8-91.7
		c26.5-26.5,57.3-47.3,91.7-61.8c31-13.1,63.7-20.6,97.3-22.3v-39.7H613.4c-13.8,0-25-11.2-25-25s11.2-25,25-25h105.3V77.4
		c0-27.6-22.4-50-50-50H399v113.2c0,13.8-11.2,25-25,25s-25-11.2-25-25V27.4H79.3c-27.6,0-50,22.4-50,50v274.8h108.1
		c13.8,0,25,11.2,25,25s-11.2,25-25,25H29.3v264.6c0,27.6,22.4,50,50,50h272.6V616.7z M194.5,213.6c9.8-9.8,25.6-9.8,35.4,0
		L392.2,376l85.3-85.3c9.8-9.8,25.6-9.8,35.4,0c9.8,9.8,9.8,25.6,0,35.4l-103,103c-4.7,4.7-11,7.3-17.7,7.3s-13-2.6-17.7-7.3
		L194.5,249C184.7,239.2,184.7,223.4,194.5,213.6z"/>
	<rect x="761.3" y="758.9" width="25.7" height="62.1"/>
	<path d="M972.2,732.8c0-131.7-106.8-238.5-238.5-238.5c-5,0-10,0.2-15,0.5c-119.4,7.4-215.1,102.7-223,222
		c-0.4,5.3-0.5,10.6-0.5,16c0,131.7,106.8,238.5,238.5,238.5S972.2,864.6,972.2,732.8z M837,846.1c0,13.8-11.2,25-25,25h-50.7V903
		c0,13.8-11.2,25-25,25s-25-11.2-25-25v-31.9h-47.9c-13.8,0-25-11.2-25-25s11.2-25,25-25h47.9v-62.1h-53.1c-13.8,0-25-11.2-25-25
		v-17.1v-95c0-13.8,11.2-25,25-25h53.1v-31.9c0-6.9,2.8-13.2,7.4-17.8c4.5-4.5,10.7-7.2,17.6-7.2c13.8,0,25,11.2,25,25v31.9h42.5
		c13.8,0,25,11.2,25,25s-11.2,25-25,25h-42.5v62.1H812c13.8,0,25,11.2,25,25V846.1z"/>
	<polygon points="683.2,708.9 695.7,708.9 711.3,708.9 711.3,693 711.3,646.8 683.2,646.8 	"/>
</g>
</svg>
