<?xml version="1.0" encoding="utf-8"?>
<!-- Generator: Adobe Illustrator 17.1.0, SVG Export Plug-In . SVG Version: 6.00 Build 0)  -->
<!DOCTYPE svg PUBLIC "-//W3C//DTD SVG 1.1//EN" "http://www.w3.org/Graphics/SVG/1.1/DTD/svg11.dtd">
<svg version="1.1" id="Layer_1" xmlns="http://www.w3.org/2000/svg" xmlns:xlink="http://www.w3.org/1999/xlink" x="0px" y="0px"
	 width="1000px" height="1000px" viewBox="0 0 1000 1000" enable-background="new 0 0 1000 1000" xml:space="preserve">
<g>
	<path d="M219.1,970h561.7c27.6,0,50-22.4,50-50V72c0-27.6-22.4-50-50-50H219.1c-27.6,0-50,22.4-50,50v848
		C169.1,947.6,191.5,970,219.1,970z M578,888.2c0,13.8-11.2,25-25,25H447c-13.8,0-25-11.2-25-25v-10.8c0-13.8,11.2-25,25-25h106
		c13.8,0,25,11.2,25,25V888.2z M255.1,162.5h489.9v636.9H255.1V162.5z"/>
	<path d="M611.7,448H536v-94.1h70.4c19.3,0,35-15.7,35-35s-15.7-35-35-35H536v-48.3c0-19.3-15.7-35-35-35s-35,15.7-35,35v48.3h-79.3
		c-19.3,0-35,15.7-35,35V483c0,19.3,15.7,35,35,35H466v94.1h-76.4c-19.3,0-35,15.7-35,35s15.7,35,35,35H466v48.3
		c0,19.3,15.7,35,35,35s35-15.7,35-35v-48.3h75.7c19.3,0,35-15.7,35-35V483C646.7,463.7,631.1,448,611.7,448z M466,448h-44.3v-94.1
		H466V448z M576.7,612.1H536V518h40.7V612.1z"/>
</g>
</svg>
