<?xml version="1.0" encoding="utf-8"?>
<!-- Generator: Adobe Illustrator 17.1.0, SVG Export Plug-In . SVG Version: 6.00 Build 0)  -->
<!DOCTYPE svg PUBLIC "-//W3C//DTD SVG 1.1//EN" "http://www.w3.org/Graphics/SVG/1.1/DTD/svg11.dtd">
<svg version="1.1" id="Layer_1" xmlns="http://www.w3.org/2000/svg" xmlns:xlink="http://www.w3.org/1999/xlink" x="0px" y="0px"
	 width="1000px" height="1000px" viewBox="0 0 1000 1000" enable-background="new 0 0 1000 1000" xml:space="preserve">
<g>
	<path d="M732.9,732.9c-21.3,21.3-44.6,40.2-69.5,56.5l154.3,154.3c19.5,19.5,51.2,19.5,70.7,0l55.3-55.3
		c19.5-19.5,19.5-51.2,0-70.7L789.4,663.4C773.1,688.3,754.2,711.5,732.9,732.9z"/>
	<path d="M426,830c79.3,0,153.3-22.9,215.7-62.3c50.8-32.1,93.9-75.2,126-126C807.1,579.3,830,505.3,830,426
		c0-223.1-180.9-404-404-404S22,202.9,22,426S202.9,830,426,830z M426,148c153.5,0,278,124.5,278,278c0,76.3-30.8,145.5-80.6,195.7
		c-0.5,0.6-1.1,1.1-1.6,1.6C571.5,673.2,502.3,704,426,704c-153.5,0-278-124.5-278-278S272.5,148,426,148z"/>
	<path d="M329.3,458.5h65.1v75.8l-51,0.3c-17.9,0.1-32.4,14.7-32.3,32.7c0.1,17.9,14.6,32.3,32.5,32.3c0.1,0,0.1,0,0.2,0l50.6-0.3
		v37.9c0,17.9,14.6,32.5,32.5,32.5s32.5-14.6,32.5-32.5V599l62.3-0.3c17.9-0.1,32.3-14.6,32.3-32.5V426c0-17.9-14.6-32.5-32.5-32.5
		h-62.1v-75.1h49.1c17.9,0,32.5-14.6,32.5-32.5s-14.6-32.5-32.5-32.5h-49.1v-38.6c0-17.9-14.6-32.5-32.5-32.5s-32.5,14.6-32.5,32.5
		v38.6h-65.1c-17.9,0-32.5,14.6-32.5,32.5V426C296.8,443.9,311.3,458.5,329.3,458.5z M459.4,458.5h29.6v75.3l-29.6,0.2V458.5z
		 M361.8,318.4h32.6v75.1h-32.6V318.4z"/>
</g>
</svg>
