<?xml version="1.0" encoding="utf-8"?>
<!-- Generator: Adobe Illustrator 17.1.0, SVG Export Plug-In . SVG Version: 6.00 Build 0)  -->
<!DOCTYPE svg PUBLIC "-//W3C//DTD SVG 1.1//EN" "http://www.w3.org/Graphics/SVG/1.1/DTD/svg11.dtd">
<svg version="1.1" id="Layer_1" xmlns="http://www.w3.org/2000/svg" xmlns:xlink="http://www.w3.org/1999/xlink" x="0px" y="0px"
	 width="1000px" height="1000px" viewBox="0 0 1000 1000" enable-background="new 0 0 1000 1000" xml:space="preserve">
<g>
	<path d="M932,97.4H68c-24.9,0-45,20.1-45,45v226.3c0,24.9,20.1,45,45,45h135.7v-55v-55H158c-13.8,0-25-11.2-25-25v-46.3
		c0-13.8,11.2-25,25-25h77.2v37.3v59v55v55v80.5v342.9c0,27.6,22.4,50,50,50h429.6c27.6,0,50-22.4,50-50V494.3v-80.5v-55v-55v-59
		v-37.3H842c13.8,0,25,11.2,25,25v46.3c0,13.8-11.2,25-25,25h-38.1v55v55H932c24.9,0,45-20.1,45-45V142.4
		C977,117.6,956.9,97.4,932,97.4z M673.5,459.3h-33.7v52.9c0,13.8-11.2,25-25,25s-25-11.2-25-25v-52.9h-65.7v55.6
		c0,13.8-11.2,25-25,25H383.5c-13.8,0-25-11.2-25-25v-55.6h-33.7c-13.8,0-25-11.2-25-25c0-8.5,4.2-16,10.7-20.5
		c4-2.8,9-4.5,14.3-4.5h33.7v-44.5c0-2.1,0.3-4.1,0.7-6.1c2.7-10.9,12.5-18.9,24.3-18.9s21.5,8.1,24.3,18.9c0.5,1.9,0.7,4,0.7,6.1
		v44.5h65.7v-50.5v-2.6c0-13.8,11.2-25,25-25h115.7c13.8,0,25,11.2,25,25v2.6v50.5h33.7c5.3,0,10.2,1.7,14.3,4.5
		c6.5,4.5,10.7,12,10.7,20.5C698.5,448.1,687.3,459.3,673.5,459.3z"/>
	<rect x="408.5" y="459.3" width="65.7" height="30.6"/>
	<rect x="524.1" y="381.2" width="65.7" height="28.1"/>
</g>
</svg>
