<?xml version="1.0" encoding="utf-8"?>
<!-- Generator: Adobe Illustrator 17.1.0, SVG Export Plug-In . SVG Version: 6.00 Build 0)  -->
<!DOCTYPE svg PUBLIC "-//W3C//DTD SVG 1.1//EN" "http://www.w3.org/Graphics/SVG/1.1/DTD/svg11.dtd">
<svg version="1.1" id="Layer_1" xmlns="http://www.w3.org/2000/svg" xmlns:xlink="http://www.w3.org/1999/xlink" x="0px" y="0px"
	 width="1000px" height="1000px" viewBox="0 0 1000 1000" enable-background="new 0 0 1000 1000" xml:space="preserve">
<g>
	<path d="M207,795.9v19c0,27.6,22.4,50,50,50h683c27.6,0,50-22.4,50-50V498.7c0-27.6-22.4-50-50-50h-19v267.1c0,44.1-35.9,80-80,80
		H207z"/>
	<path d="M207,696.9h-99v19c0,27.6,22.4,50,50,50h49h634c27.6,0,50-22.4,50-50V448.7v-49c0-27.6-22.4-50-50-50h-19v99v168.1
		c0,44.1-35.9,80-80,80H207z"/>
	<path d="M59,666.9h19h15h15h99h535c27.6,0,50-22.4,50-50V448.7v-99v-15v-15v-19c0-27.6-22.4-50-50-50H59c-27.6,0-50,22.4-50,50
		v316.1C9,644.5,31.4,666.9,59,666.9z M312.1,448.7v-89c0-3.6,1-7,2.7-10c3.5-6,9.9-10,17.3-10h49v-5v-15v-10.3c0-11,9-20,20-20
		s20,9,20,20v10.3v15v5h41.8c7.4,0,13.9,4,17.3,10c1.7,2.9,2.7,6.3,2.7,10c0,11-9,20-20,20h-41.8v59.1H468c7.4,0,13.8,4,17.3,9.9
		c1.7,3,2.7,6.4,2.7,10.1v99.1c0,11-9,20-20,20h-46.9v30.3c0,11-9,20-20,20s-20-9-20-20v-30.3h-47c-11,0-20-9-20-20s9-20,20-20h47
		v-59.1h-49c-11,0-20-9-20-20V448.7z"/>
	<rect x="352.1" y="379.7" width="29" height="59.1"/>
	<rect x="421.1" y="478.8" width="26.9" height="59.1"/>
</g>
</svg>
