<?xml version="1.0" encoding="utf-8"?>
<!-- Generator: Adobe Illustrator 17.1.0, SVG Export Plug-In . SVG Version: 6.00 Build 0)  -->
<!DOCTYPE svg PUBLIC "-//W3C//DTD SVG 1.1//EN" "http://www.w3.org/Graphics/SVG/1.1/DTD/svg11.dtd">
<svg version="1.1" id="Capa_1" xmlns="http://www.w3.org/2000/svg" xmlns:xlink="http://www.w3.org/1999/xlink" x="0px" y="0px"
	 width="1000px" height="1000px" viewBox="0 0 1000 1000" enable-background="new 0 0 1000 1000" xml:space="preserve">
<path d="M119.5,229.5c-13.1-13.1-35.4-3.8-35.4,14.7v623.1c0,11.5,9.3,20.7,20.7,20.7h623.1c18.5,0,27.7-22.3,14.7-35.4L119.5,229.5
	z"/>
<path d="M931.9,785.2c-4.3-16-24.3-21.3-36-9.6L865.5,806L101.2,41.7c-15.7-15.7-41.3-15.7-57,0c-7.9,7.9-11.8,18.2-11.8,28.5
	s3.9,20.6,11.8,28.5L808.5,863l-30.4,30.4c-11.7,11.7-6.3,31.7,9.6,36l152,40.7c20,5.4,38.3-12.9,32.9-32.9L931.9,785.2z"/>
</svg>
