<?xml version="1.0" encoding="utf-8"?>
<!-- Generator: Adobe Illustrator 17.1.0, SVG Export Plug-In . SVG Version: 6.00 Build 0)  -->
<!DOCTYPE svg PUBLIC "-//W3C//DTD SVG 1.1//EN" "http://www.w3.org/Graphics/SVG/1.1/DTD/svg11.dtd">
<svg version="1.1" id="Layer_1" xmlns="http://www.w3.org/2000/svg" xmlns:xlink="http://www.w3.org/1999/xlink" x="0px" y="0px"
	 width="1000px" height="1000px" viewBox="0 0 1000 1000" enable-background="new 0 0 1000 1000" xml:space="preserve">
<g>
	<path d="M311.4,70.4c-21.8,0-36.3,22.5-27.4,42.3l89.2,197.9h241.3l93.6-197.4c9.4-19.9-5.1-42.9-27.1-42.9H311.4z"/>
	<path d="M102.8,973.4h394h394c27.6,0,50-22.4,50-50V804.3c0-49.5-17.5-97.5-49.5-135.4L614.6,340.7H496.8H373.2L101,669.3
		c-31.2,37.7-48.3,85.1-48.3,134v120.2C52.8,951,75.1,973.4,102.8,973.4z M365.6,676.9c-15.2,0-27.5-12.3-27.5-27.5
		s12.3-27.5,27.5-27.5H388V554c0-15.2,12.3-27.5,27.5-27.5h187.1c15.2,0,27.5,12.3,27.5,27.5v55.3c0,15.2-12.3,27.5-27.5,27.5
		s-27.5-12.3-27.5-27.5v-27.8H443v40.4h55.9c15.2,0,27.5,12.3,27.5,27.5s-12.3,27.5-27.5,27.5H443v27h55.9
		c15.2,0,27.5,12.3,27.5,27.5s-12.3,27.5-27.5,27.5H443v40.5h132.1v-27c0-15.2,12.3-27.5,27.5-27.5s27.5,12.3,27.5,27.5v54.5
		c0,15.2-12.3,27.5-27.5,27.5H415.5c-15.2,0-27.5-12.3-27.5-27.5v-68h-22.5c-15.2,0-27.5-12.3-27.5-27.5s12.3-27.5,27.5-27.5H388
		v-27H365.6z"/>
</g>
</svg>
