<?xml version="1.0" encoding="utf-8"?>
<!-- Generator: Adobe Illustrator 17.1.0, SVG Export Plug-In . SVG Version: 6.00 Build 0)  -->
<!DOCTYPE svg PUBLIC "-//W3C//DTD SVG 1.1//EN" "http://www.w3.org/Graphics/SVG/1.1/DTD/svg11.dtd">
<svg version="1.1" id="Layer_1" xmlns="http://www.w3.org/2000/svg" xmlns:xlink="http://www.w3.org/1999/xlink" x="0px" y="0px"
	 width="1000px" height="1000px" viewBox="0 0 1000 1000" enable-background="new 0 0 1000 1000" xml:space="preserve">
<g>
	<path d="M915.6,355.6l-86.7-104.2c-14-16.8-39.8-16.8-53.8,0l-86.7,104.2c-13.5,16.3-2,41,19.2,41h188.8
		C917.6,396.6,929.2,371.9,915.6,355.6z"/>
	<path d="M896.4,605H707.6c-21.2,0-32.8,24.7-19.2,41l86.7,104.2c14,16.8,39.8,16.8,53.8,0L915.6,646
		C929.2,629.7,917.6,605,896.4,605z"/>
	<path d="M104.7,645.7v137.1c0,34.5,28,62.5,62.5,62.5h391.2c34.5,0,62.5-28,62.5-62.5v-110c0-34.5-28-62.5-62.5-62.5
		s-62.5,28-62.5,62.5v47.5H229.7v-74.6h132.5c34.5,0,62.5-28,62.5-62.5s-28-62.5-62.5-62.5H229.7v-46.4h132.5
		c34.5,0,62.5-28,62.5-62.5s-28-62.5-62.5-62.5H229.7v-74.5h266.2v48.3c0,34.5,28,62.5,62.5,62.5s62.5-28,62.5-62.5V212.3
		c0-34.5-28-62.5-62.5-62.5H167.2c-34.5,0-62.5,28-62.5,62.5v137h-42c-34.5,0-62.5,28-62.5,62.5s28,62.5,62.5,62.5h42v46.4h-42
		c-34.5,0-62.5,28-62.5,62.5s28,62.5,62.5,62.5H104.7z"/>
</g>
</svg>
