<?xml version="1.0" encoding="utf-8"?>
<!-- Generator: Adobe Illustrator 17.1.0, SVG Export Plug-In . SVG Version: 6.00 Build 0)  -->
<!DOCTYPE svg PUBLIC "-//W3C//DTD SVG 1.1//EN" "http://www.w3.org/Graphics/SVG/1.1/DTD/svg11.dtd">
<svg version="1.1" id="Layer_1" xmlns="http://www.w3.org/2000/svg" xmlns:xlink="http://www.w3.org/1999/xlink" x="0px" y="0px"
	 width="1000px" height="1000px" viewBox="0 0 1000 1000" enable-background="new 0 0 1000 1000" xml:space="preserve">
<g>
	<path d="M990,499.5c0-27.6-22.4-50-50-50h-19v267.1c0,44.1-35.9,80-80,80H207v19c0,27.6,22.4,50,50,50h683c27.6,0,50-22.4,50-50
		V499.5z"/>
	<path d="M207,697.7h-99v19c0,27.6,22.4,50,50,50h49h634c27.6,0,50-22.4,50-50V449.5v-49c0-27.6-22.4-50-50-50h-19v99v168.1
		c0,44.1-35.9,80-80,80H207z"/>
	<path d="M59,667.7h19h15h15h99h535c27.6,0,50-22.4,50-50V449.5v-99v-15v-15v-19c0-27.6-22.4-50-50-50H59c-27.6,0-50,22.4-50,50
		v316.1C9,645.3,31.4,667.7,59,667.7z M276.1,444.5c-12.4,0-22.5-10.1-22.5-22.5s10.1-22.5,22.5-22.5h20.7v-49v-12c0-1,0.1-2,0.2-3
		c0.8-6.1,4.1-11.5,8.8-15c3.8-2.8,8.4-4.5,13.5-4.5H483c5.1,0,9.7,1.7,13.5,4.5c4.7,3.5,8,8.9,8.8,15c0.1,1,0.2,2,0.2,3v12v30.9
		c0,12.4-10.1,22.5-22.5,22.5s-22.5-10.1-22.5-22.5V361H341.8v38.5h53.9c12.4,0,22.5,10.1,22.5,22.5s-10.1,22.5-22.5,22.5h-53.9v5
		v21.8h53.9c12.4,0,22.5,10.1,22.5,22.5s-10.1,22.5-22.5,22.5h-53.9v38.5h118.7v-19.7c0-12.4,10.1-22.5,22.5-22.5
		s22.5,10.1,22.5,22.5v42.2c0,12.4-10.1,22.5-22.5,22.5H319.3c-12.4,0-22.5-10.1-22.5-22.5v-61h-20.7c-12.4,0-22.5-10.1-22.5-22.5
		s10.1-22.5,22.5-22.5h20.7v-21.8v-5H276.1z"/>
</g>
</svg>
