<?xml version="1.0" encoding="utf-8"?>
<!-- Generator: Adobe Illustrator 17.1.0, SVG Export Plug-In . SVG Version: 6.00 Build 0)  -->
<!DOCTYPE svg PUBLIC "-//W3C//DTD SVG 1.1//EN" "http://www.w3.org/Graphics/SVG/1.1/DTD/svg11.dtd">
<svg version="1.1" id="Layer_1" xmlns="http://www.w3.org/2000/svg" xmlns:xlink="http://www.w3.org/1999/xlink" x="0px" y="0px"
	 width="1000px" height="1000px" viewBox="0 0 1000 1000" enable-background="new 0 0 1000 1000" xml:space="preserve">
<g>
	<path d="M776.7,971.6c27.6,0,50-22.4,50-50v-848c0-27.6-22.4-50-50-50H215c-27.6,0-50,22.4-50,50v848c0,27.6,22.4,50,50,50H776.7z
		 M573.8,889.7c0,13.8-11.2,25-25,25h-106c-13.8,0-25-11.2-25-25v-10.8c0-13.8,11.2-25,25-25h106c13.8,0,25,11.2,25,25V889.7z
		 M250.9,164.1h489.9v636.9H250.9V164.1z"/>
	<path d="M612.7,282.9h-225c-19.3,0-35,15.7-35,35v79.7h-29.5c-19.3,0-35,15.7-35,35s15.7,35,35,35h29.5v28.6h-29.5
		c-19.3,0-35,15.7-35,35s15.7,35,35,35h29.5v79.8c0,19.3,15.7,35,35,35h225c19.3,0,35-15.7,35-35v-63.9c0-19.3-15.7-35-35-35
		s-35,15.7-35,35v28.9h-155v-44.8h80.1c19.3,0,35-15.7,35-35s-15.7-35-35-35h-80.1v-28.6h80.1c19.3,0,35-15.7,35-35s-15.7-35-35-35
		h-80.1v-44.7h155v30c0,19.3,15.7,35,35,35s35-15.7,35-35v-65C647.7,298.6,632.1,282.9,612.7,282.9z"/>
</g>
</svg>
