<?xml version="1.0" encoding="utf-8"?>
<!-- Generator: Adobe Illustrator 17.1.0, SVG Export Plug-In . SVG Version: 6.00 Build 0)  -->
<!DOCTYPE svg PUBLIC "-//W3C//DTD SVG 1.1//EN" "http://www.w3.org/Graphics/SVG/1.1/DTD/svg11.dtd">
<svg version="1.1" id="Layer_1" xmlns="http://www.w3.org/2000/svg" xmlns:xlink="http://www.w3.org/1999/xlink" x="0px" y="0px"
	 width="1000px" height="1000px" viewBox="0 0 1000 1000" enable-background="new 0 0 1000 1000" xml:space="preserve">
<g>
	<path d="M481.9,952.4c11.7,4.5,24.6,4.5,36.3,0c266.8-102.7,378.3-341.1,399.5-392.1c2.5-6.1,3.9-12.6,3.9-19.3v-314
		c0-20.3-12.3-38.7-31.2-46.3l-371.5-151c-12.1-4.9-25.6-4.9-37.7,0l-371.5,151c-18.8,7.7-31.2,26-31.2,46.3v314
		c0,6.6,1.3,13.2,3.9,19.3C103.6,611.3,215.1,849.7,481.9,952.4z M323.3,445.2c-17.9,0-32.5-14.6-32.5-32.5s14.6-32.5,32.5-32.5h32
		v-82.2c0-17.9,14.6-32.5,32.5-32.5h225c17.9,0,32.5,14.6,32.5,32.5v61c0,17.9-14.6,32.5-32.5,32.5s-32.5-14.6-32.5-32.5v-28.5h-160
		v49.7H493c17.9,0,32.5,14.6,32.5,32.5s-14.6,32.5-32.5,32.5h-72.6v33.6H493c17.9,0,32.5,14.6,32.5,32.5s-14.6,32.5-32.5,32.5h-72.6
		v49.8h160v-27.4c0-17.9,14.6-32.5,32.5-32.5s32.5,14.6,32.5,32.5V626c0,17.9-14.6,32.5-32.5,32.5h-225c-17.9,0-32.5-14.6-32.5-32.5
		v-82.3h-32c-17.9,0-32.5-14.6-32.5-32.5s14.6-32.5,32.5-32.5h32v-33.6H323.3z"/>
</g>
</svg>
