<?xml version="1.0" encoding="utf-8"?>
<!-- Generator: Adobe Illustrator 17.1.0, SVG Export Plug-In . SVG Version: 6.00 Build 0)  -->
<!DOCTYPE svg PUBLIC "-//W3C//DTD SVG 1.1//EN" "http://www.w3.org/Graphics/SVG/1.1/DTD/svg11.dtd">
<svg version="1.1" id="Layer_1" xmlns="http://www.w3.org/2000/svg" xmlns:xlink="http://www.w3.org/1999/xlink" x="0px" y="0px"
	 width="1000px" height="1000px" viewBox="0 0 1000 1000" enable-background="new 0 0 1000 1000" xml:space="preserve">
<g>
	<path d="M672.1,88H150.7c-27.6,0-50,22.4-50,50v27.6c0,27.6,22.4,50,50,50h521.4c27.6,0,50-22.4,50-50V138
		C722.1,110.4,699.7,88,672.1,88z"/>
	<path d="M20.8,317v27.6c0,27.6,22.4,50,50,50h521.4c27.6,0,50-22.4,50-50V317c0-27.6-22.4-50-50-50H70.8
		C43.2,267,20.8,289.4,20.8,317z"/>
	<path d="M20.8,520.3c0,27.6,22.4,50,50,50h353c15.1-32.2,35.6-61.4,60.9-86.7c15.5-15.5,32.4-29.1,50.5-40.8H70.8
		c-27.6,0-50,22.4-50,50V520.3z"/>
	<path d="M150.7,618.5c-27.6,0-50,22.4-50,50v27.6c0,27.6,22.4,50,50,50h247.4c-2.2-14.9-3.3-30.1-3.3-45.4
		c0-28.1,3.7-55.6,11.1-82.2H150.7z"/>
	<path d="M20.8,875.1c0,27.6,22.4,50,50,50h421.4c-2.5-2.4-5.1-4.8-7.6-7.3c-28.2-28.2-50.3-61-65.8-97.6c-3.2-7.5-6-15.1-8.6-22.7
		H70.8c-27.6,0-50,22.4-50,50V875.1z"/>
	<path d="M701.8,423.7c-36.2,0-70.8,7-102.5,19.6c-61,24.3-111.3,69.6-142,127.1c-8.2,15.3-14.9,31.4-20.2,48.2
		c-8.1,26-12.4,53.6-12.4,82.2c0,15.5,1.3,30.6,3.7,45.4c2.9,17.8,7.5,35,13.7,51.4c19.2,51.5,53.4,95.8,97.1,127.6
		c45.6,33.1,101.8,52.7,162.5,52.7c153,0,277-124,277-277C978.8,547.7,854.8,423.7,701.8,423.7z M807,625.9c0,13.8-11.2,25-25,25
		c-13.8,0-25-11.2-25-25v-16.3H647.7v9v22.3h44.7c13.8,0,25,11.2,25,25s-11.2,25-25,25h-44.7v19.8h44.7c9.3,0,17.4,5.1,21.7,12.6
		c2.1,3.7,3.3,7.9,3.3,12.4c0,13.8-11.2,25-25,25h-44.7v31.3H757v-15.6c0-13.8,11.2-25,25-25c13.8,0,25,11.2,25,25v40.6
		c0,13.8-11.2,25-25,25H642h-19.2c-13.8,0-25-11.2-25-25v-19.1v-37.2H580c-10.1,0-18.7-6-22.7-14.5c-1.5-3.2-2.3-6.7-2.3-10.5
		c0-13.8,11.2-25,25-25h17.8v-19.8H580c-13.8,0-25-11.2-25-25s11.2-25,25-25h17.8v-22.3v-34c0-5.8,2-11.1,5.3-15.4
		c4.6-5.9,11.7-9.6,19.7-9.6h0.6H782c13.8,0,25,11.2,25,25V625.9z"/>
</g>
</svg>
