<?xml version="1.0" encoding="utf-8"?>
<!-- Generator: Adobe Illustrator 17.1.0, SVG Export Plug-In . SVG Version: 6.00 Build 0)  -->
<!DOCTYPE svg PUBLIC "-//W3C//DTD SVG 1.1//EN" "http://www.w3.org/Graphics/SVG/1.1/DTD/svg11.dtd">
<svg version="1.1" id="Layer_1" xmlns="http://www.w3.org/2000/svg" xmlns:xlink="http://www.w3.org/1999/xlink" x="0px" y="0px"
	 width="1000px" height="1000px" viewBox="0 0 1000 1000" enable-background="new 0 0 1000 1000" xml:space="preserve">
<g>
	<path d="M631.4,435.3c19.3,0,35-15.7,35-35v-67c0-19.3-15.7-35-35-35H400.7c-19.3,0-35,15.7-35,35v82.6h-27.4
		c-19.3,0-35,15.7-35,35s15.7,35,35,35h27.4V517h-27.4c-19.3,0-35,15.7-35,35s15.7,35,35,35h27.4v82.7c0,19.3,15.7,35,35,35h230.7
		c19.3,0,35-15.7,35-35v-65.9c0-19.3-15.7-35-35-35s-35,15.7-35,35v30.9H435.7V587h77.5c19.3,0,35-15.7,35-35s-15.7-35-35-35h-77.5
		v-31.1h77.5c19.3,0,35-15.7,35-35s-15.7-35-35-35h-77.5v-47.6h160.7v32C596.4,419.6,612,435.3,631.4,435.3z"/>
	<path d="M49.1,363l69.2,142.8c8.3,17.1,31.9,19.1,42.9,3.5l92-129.9c11.2-15.8,0.9-37.8-18.4-39.4l-25-2
		c17.7-37.2,42.6-70.8,73.5-99c44-40.1,98.6-67.4,158-79c85.3-16.6,172,0.2,244.4,47.3c60.2,39.2,104.4,95.6,127.3,161.4
		c8.1,23.2,32,36.9,56.1,32.2l1-0.2c29.5-5.8,47.2-36.3,37.2-64.7c-12.2-34.6-29-67.4-50.2-97.9C826,193.8,787,156.1,741,126.1
		c-46-30-96.6-50.6-150.5-61.5c-55.8-11.2-112.7-11.4-169-0.4C344,79.4,272.6,115.1,215,167.6c-49.3,44.9-86.9,100.5-110,162.1
		l-31.5-2.5C54.3,325.7,40.6,345.6,49.1,363z"/>
	<path d="M151.1,765.3C182,809.8,221,847.5,267,877.5c46,30,96.6,50.6,150.5,61.5c28.2,5.7,56.7,8.5,85.2,8.5
		c27.9,0,55.9-2.7,83.8-8.2C664,924.2,735.4,888.5,793,836c49.3-44.9,86.9-100.5,109.9-162.1l31.5,2.5c19.3,1.5,32.9-18.4,24.5-35.8
		l-69.2-142.8c-8.3-17.1-31.9-19.1-42.9-3.5l-92,129.9c-11.2,15.8-0.9,37.8,18.4,39.4l25,2c-17.7,37.2-42.6,70.8-73.5,99
		c-44,40.1-98.6,67.4-158,79c-85.3,16.6-172-0.2-244.4-47.3c-60.2-39.2-104.4-95.6-127.3-161.4c-8.1-23.2-32-36.9-56.1-32.2l-1,0.2
		c-29.5,5.8-47.2,36.3-37.2,64.7C113.1,702.1,129.9,734.9,151.1,765.3z"/>
</g>
</svg>
