<?xml version="1.0" encoding="utf-8"?>
<!-- Generator: Adobe Illustrator 17.1.0, SVG Export Plug-In . SVG Version: 6.00 Build 0)  -->
<!DOCTYPE svg PUBLIC "-//W3C//DTD SVG 1.1//EN" "http://www.w3.org/Graphics/SVG/1.1/DTD/svg11.dtd">
<svg version="1.1" id="Layer_1" xmlns="http://www.w3.org/2000/svg" xmlns:xlink="http://www.w3.org/1999/xlink" x="0px" y="0px"
	 width="1000px" height="1000px" viewBox="0 0 1000 1000" enable-background="new 0 0 1000 1000" xml:space="preserve">
<g>
	<path d="M690,287v-60c0-46.9-38.1-85-85-85H389c-46.9,0-85,38.1-85,85v60h70v-60c0-8.3,6.7-15,15-15h216c8.3,0,15,6.7,15,15v60H690
		z"/>
	<path d="M93,317c-27.6,0-50,22.4-50,50v464c0,27.6,22.4,50,50,50h808c27.6,0,50-22.4,50-50V367c0-27.6-22.4-50-50-50H690h-70H374
		h-70H93z M374,591.3h-18.5c-15.2,0-27.5-12.3-27.5-27.5s12.3-27.5,27.5-27.5H374h3.9v-67.9c0-15.2,12.3-27.5,27.5-27.5h187.1
		c14.6,0,26.5,11.4,27.4,25.7c0,0.6,0.1,1.2,0.1,1.8v51.3c0,0.6,0,1.2-0.1,1.8c-0.9,14.4-12.8,25.7-27.4,25.7
		c-15.2,0-27.5-12.3-27.5-27.5v-23.8H432.9v40.4h58.9c15.2,0,27.5,12.3,27.5,27.5s-12.3,27.5-27.5,27.5h-58.9v27h58.9
		c15.2,0,27.5,12.3,27.5,27.5s-12.3,27.5-27.5,27.5h-58.9v40.5H565v-23c0-15.2,12.3-27.5,27.5-27.5c14.6,0,26.5,11.4,27.4,25.7
		c0,0.6,0.1,1.2,0.1,1.8v50.5c0,15.2-12.3,27.5-27.5,27.5H405.4c-15.2,0-27.5-12.3-27.5-27.5v-2.2v-65.8H374h-18.5
		c-15.2,0-27.5-12.3-27.5-27.5s12.3-27.5,27.5-27.5H374h3.9v-27H374z"/>
</g>
</svg>
