<?xml version="1.0" encoding="utf-8"?>
<!-- Generator: Adobe Illustrator 17.1.0, SVG Export Plug-In . SVG Version: 6.00 Build 0)  -->
<!DOCTYPE svg PUBLIC "-//W3C//DTD SVG 1.1//EN" "http://www.w3.org/Graphics/SVG/1.1/DTD/svg11.dtd">
<svg version="1.1" id="Layer_1" xmlns="http://www.w3.org/2000/svg" xmlns:xlink="http://www.w3.org/1999/xlink" x="0px" y="0px"
	 width="1000px" height="1000px" viewBox="0 0 1000 1000" enable-background="new 0 0 1000 1000" xml:space="preserve">
<g>
	<path d="M787.6,657c-16.3,24.9-35.2,48.2-56.5,69.5s-44.6,40.2-69.5,56.5l154.3,154.3c19.5,19.5,51.2,19.5,70.7,0l55.3-55.3
		c19.5-19.5,19.5-51.2,0-70.7L787.6,657z"/>
	<path d="M424.3,823.6c79.3,0,153.3-22.9,215.7-62.3c50.8-32.1,93.9-75.2,126-126c39.5-62.4,62.3-136.4,62.3-215.7
		c0-223.1-180.9-404-404-404s-404,180.9-404,404S201.1,823.6,424.3,823.6z M424.3,141.7c153.5,0,278,124.5,278,278
		c0,76.3-30.8,145.5-80.6,195.7c-0.5,0.5-1.1,1.1-1.6,1.6c-50.2,49.8-119.4,80.6-195.7,80.6c-153.5,0-278-124.5-278-278
		C146.3,266.1,270.7,141.7,424.3,141.7z"/>
	<path d="M311.7,577.3h233.2c17.9,0,32.5-14.6,32.5-32.5s-14.6-32.5-32.5-32.5H366c11.4-25,20.1-50.5,26.8-75.1H444
		c17.9,0,32.5-14.6,32.5-32.5s-14.6-32.5-32.5-32.5h-37.2c4.8-29.8,6.9-55.9,7.7-75.1h79.3v36.7c0,17.9,14.6,32.5,32.5,32.5
		s32.5-14.6,32.5-32.5v-69.2c0-17.9-14.6-32.5-32.5-32.5H382.5c-8.8,0-17.2,3.6-23.4,9.9s-9.4,14.9-9.1,23.7
		c0,0.8,1.3,46.9-9.3,106.5h-22.1c-17.9,0-32.5,14.6-32.5,32.5s14.6,32.5,32.5,32.5h6.4c-9.5,30.6-22.7,61.7-40.8,90.2
		c-6.4,10-6.8,22.7-1,33.1C288.9,570.8,299.9,577.3,311.7,577.3z"/>
</g>
</svg>
