<?xml version="1.0" encoding="utf-8"?>
<!-- Generator: Adobe Illustrator 17.1.0, SVG Export Plug-In . SVG Version: 6.00 Build 0)  -->
<!DOCTYPE svg PUBLIC "-//W3C//DTD SVG 1.1//EN" "http://www.w3.org/Graphics/SVG/1.1/DTD/svg11.dtd">
<svg version="1.1" id="Layer_1" xmlns="http://www.w3.org/2000/svg" xmlns:xlink="http://www.w3.org/1999/xlink" x="0px" y="0px"
	 width="1000px" height="1000px" viewBox="0 0 1000 1000" enable-background="new 0 0 1000 1000" xml:space="preserve">
<g>
	<path d="M785.9,660.9c-16.3,24.9-35.2,48.2-56.5,69.5c-21.3,21.3-44.6,40.2-69.5,56.5l154.3,154.3c19.5,19.5,51.2,19.5,70.7,0
		l55.3-55.3c19.5-19.5,19.5-51.2,0-70.7L785.9,660.9z"/>
	<path d="M422.5,827.5c79.3,0,153.3-22.9,215.7-62.3c50.8-32.1,93.9-75.2,126-126c39.5-62.4,62.3-136.4,62.3-215.7
		c0-223.1-180.9-404-404-404s-404,180.9-404,404S199.4,827.5,422.5,827.5z M422.5,145.5c153.5,0,278,124.5,278,278
		c0,76.3-30.8,145.5-80.6,195.7c-0.5,0.6-1.1,1.1-1.6,1.6c-50.2,49.8-119.4,80.6-195.7,80.6c-153.5,0-278-124.5-278-278
		S269,145.5,422.5,145.5z"/>
	<path d="M277.1,433.1c-17.9,0-32.5,14.6-32.5,32.5s14.6,32.5,32.5,32.5h21.1v65.5c0,17.9,14.6,32.5,32.5,32.5h192.2
		c17.9,0,32.5-14.6,32.5-32.5v-53.3c0-17.9-14.6-32.5-32.5-32.5s-32.5,14.6-32.5,32.5v20.8H363.2v-33h62.9
		c17.9,0,32.5-14.6,32.5-32.5s-14.6-32.5-32.5-32.5h-62.9v-19.2h62.9c17.9,0,32.5-14.6,32.5-32.5s-14.6-32.5-32.5-32.5h-62.9v-33
		h127.2v20.7c0,17.9,14.6,32.5,32.5,32.5s32.5-14.6,32.5-32.5v-53.2c0-17.9-14.6-32.5-32.5-32.5H330.7c-17.9,0-32.5,14.6-32.5,32.5
		v65.5h-21.1c-17.9,0-32.5,14.6-32.5,32.5s14.6,32.5,32.5,32.5h21.1v19.2H277.1z"/>
</g>
</svg>
