<?xml version="1.0" encoding="utf-8"?>
<!-- Generator: Adobe Illustrator 17.1.0, SVG Export Plug-In . SVG Version: 6.00 Build 0)  -->
<!DOCTYPE svg PUBLIC "-//W3C//DTD SVG 1.1//EN" "http://www.w3.org/Graphics/SVG/1.1/DTD/svg11.dtd">
<svg version="1.1" id="Layer_1" xmlns="http://www.w3.org/2000/svg" xmlns:xlink="http://www.w3.org/1999/xlink" x="0px" y="0px"
	 width="1000px" height="1000px" viewBox="0 0 1000 1000" enable-background="new 0 0 1000 1000" xml:space="preserve">
<g>
	<path d="M916,119.7H84c-27.6,0-50,22.4-50,50v459.8c0,27.6,22.4,50,50,50h285.1h261.9H916c27.6,0,50-22.4,50-50V169.7
		C966,142.1,943.6,119.7,916,119.7z M641.1,304.2c0,16.6-13.4,30-30,30s-30-13.4-30-30v-28.4H428.9v48.2h67.5c16.6,0,30,13.4,30,30
		s-13.4,30-30,30h-67.5v33h67.5c16.6,0,30,13.4,30,30s-13.4,30-30,30h-67.5v48.3h152.2V498c0-16.6,13.4-30,30-30s30,13.4,30,30v57.4
		c0,15-11,27.4-25.3,29.6c-1.5,0.2-3.1,0.4-4.7,0.4H398.9c-5.1,0-9.9-1.3-14.1-3.5c-9.4-5.1-15.9-15-15.9-26.5v-78.3h-30.3
		c-16.6,0-30-13.4-30-30s13.4-30,30-30h30.3v-33h-30.3c-16.6,0-30-13.4-30-30s13.4-30,30-30h30.3v-78.2c0-16.6,13.4-30,30-30h212.2
		c16.6,0,30,13.4,30,30V304.2z"/>
	<path d="M685,850.8h-26.6l-22.6-141.3H364.3l-22.6,141.3H315c-13.8,0-25,11.2-25,25v2c0,13.8,11.2,25,25,25h370
		c13.8,0,25-11.2,25-25v-2C710,862,698.8,850.8,685,850.8z"/>
</g>
</svg>
