<?xml version="1.0" encoding="utf-8"?>
<!-- Generator: Adobe Illustrator 17.1.0, SVG Export Plug-In . SVG Version: 6.00 Build 0)  -->
<!DOCTYPE svg PUBLIC "-//W3C//DTD SVG 1.1//EN" "http://www.w3.org/Graphics/SVG/1.1/DTD/svg11.dtd">
<svg version="1.1" id="Layer_1" xmlns="http://www.w3.org/2000/svg" xmlns:xlink="http://www.w3.org/1999/xlink" x="0px" y="0px"
	 width="1000px" height="1000px" viewBox="0 0 1000 1000" enable-background="new 0 0 1000 1000" xml:space="preserve">
<g>
	<path d="M785.6,183.5c-7.9-16.4-20.5-29.5-36.4-38.1l-71-38.1c-17-9.1-38.3-2.7-47.4,14.3c-9.1,17-2.7,38.2,14.3,47.4l71,38.1
		c2.8,1.5,5,3.8,6.4,6.7l175.2,364.6H553.1c-19.3,0-35,15.7-35,35V635h-40.2v-21.6c0-19.3-15.7-35-35-35H98.4l175.2-364.6
		c1.4-2.9,3.6-5.2,6.4-6.7l71-38.1c17-9.1,23.4-30.4,14.3-47.4c-9.1-17-30.4-23.4-47.4-14.3l-71,38.1c-16,8.6-28.6,21.8-36.4,38.1
		L17.3,585.6c-3.4,7.1-3.3,25.8-3.3,27.8v201.7c0,19.3,15.7,35,35,35h311.9c64.6,0,117.1-52.5,117.1-117.1V705h40.2v28.1
		c0,64.6,52.5,117.1,117.1,117.1h311.9c19.3,0,35-15.7,35-35V613.4c0-2,0.1-20.7-3.3-27.8L785.6,183.5z M407.9,733.1
		c0,26-21.1,47.1-47.1,47.1H84V648.4h323.9V733.1z M912.1,780.1H635.2c-26,0-47.1-21.1-47.1-47.1v-84.6h323.9V780.1z"/>
</g>
</svg>
