<?xml version="1.0" encoding="utf-8"?>
<!-- Generator: Adobe Illustrator 17.1.0, SVG Export Plug-In . SVG Version: 6.00 Build 0)  -->
<!DOCTYPE svg PUBLIC "-//W3C//DTD SVG 1.1//EN" "http://www.w3.org/Graphics/SVG/1.1/DTD/svg11.dtd">
<svg version="1.1" id="Capa_1" xmlns="http://www.w3.org/2000/svg" xmlns:xlink="http://www.w3.org/1999/xlink" x="0px" y="0px"
	 width="1000px" height="1000px" viewBox="0 0 1000 1000" enable-background="new 0 0 1000 1000" xml:space="preserve">
<path d="M853.8,125h-28v687.9c0,45.7-37.2,82.9-82.9,82.9H459.2H233.6v25.5c0,29.2,23.7,52.9,52.9,52.9h283.6h283.6
	c29.2,0,52.9-23.7,52.9-52.9V177.9C906.6,148.7,883,125,853.8,125z"/>
<path d="M459.2,865.8h283.6c29.2,0,52.9-23.7,52.9-52.9V125V69.5c0-29.2-23.7-52.9-52.9-52.9H459.2l-94.3,0v17.5
	c0.2,1.8,0.3,3.7,0.3,5.6V155v29.6c0,41.1-33.4,74.5-74.5,74.5h-29.6H145.8c-1.5,0-3.1-0.1-4.6-0.2h-18.4v554
	c0,29.2,23.7,52.9,52.9,52.9h58H459.2z M469.9,686H285c-13.8,0-25-11.2-25-25s11.2-25,25-25h185c13.8,0,25,11.2,25,25
	S483.7,686,469.9,686z M654.9,558.4H285c-13.8,0-25-11.2-25-25s11.2-25,25-25h369.9c13.8,0,25,11.2,25,25S668.7,558.4,654.9,558.4z
	 M285,372.9h369.9c13.8,0,25,11.2,25,25s-11.2,25-25,25H285c-13.8,0-25-11.2-25-25S271.2,372.9,285,372.9z"/>
<path d="M145.8,229.1h144.9c0.1,0,0.3,0,0.4,0c24.2-0.2,43.8-19.8,44-44c0-0.1,0-0.3,0-0.4V39.7c0-13.4-11-22.3-22.4-22.3
	c-5.5,0-11,2-15.6,6.6L130,191.1C116,205.1,125.9,229.1,145.8,229.1z"/>
</svg>
