<?xml version="1.0" encoding="utf-8"?>
<!-- Generator: Adobe Illustrator 17.1.0, SVG Export Plug-In . SVG Version: 6.00 Build 0)  -->
<!DOCTYPE svg PUBLIC "-//W3C//DTD SVG 1.1//EN" "http://www.w3.org/Graphics/SVG/1.1/DTD/svg11.dtd">
<svg version="1.1" id="Layer_1" xmlns="http://www.w3.org/2000/svg" xmlns:xlink="http://www.w3.org/1999/xlink" x="0px" y="0px"
	 width="1000px" height="1000px" viewBox="0 0 1000 1000" enable-background="new 0 0 1000 1000" xml:space="preserve">
<g>
	<path d="M104.5,971.1h63.8c27.6,0,50-22.4,50-50V756.8c-53.2,7.8-107.9,12.7-162.9,14.4c-0.3,0-0.6,0-1,0v149.8
		C54.5,948.7,76.9,971.1,104.5,971.1z"/>
	<path d="M398.1,971.1c27.6,0,50-22.4,50-50V701.6c-26.5,9.1-54,17.4-81.7,24.8c-24.8,6.6-50.4,12.6-75.9,17.8
		c-2,0.4-4.1,0.8-6.2,1.2v175.6c0,27.6,22.4,50,50,50H398.1z"/>
	<path d="M627.7,971.1c27.6,0,50-22.4,50-50V590.7c-4.8,3.2-9.6,6.3-14.5,9.3c-42.3,26.6-88.4,50.7-137.1,71.6
		c-4,1.7-8.1,3.4-12.2,5.1v244.3c0,27.6,22.4,50,50,50H627.7z"/>
	<path d="M907.4,921.1V343.3c-10.1,20.5-21.8,40.7-35,60.4C843.3,447,806.9,488,764,525.5c-6.6,5.8-13.4,11.5-20.4,17.2v378.5
		c0,27.6,22.4,50,50,50h63.8C885,971.1,907.4,948.7,907.4,921.1z"/>
	<path d="M34.2,740.7c0.1,0,0.3,0,0.4,0c6.7-0.1,13.3-0.3,20-0.5c55.6-1.7,110.3-6.7,163.8-14.7c22.2-3.3,44.1-7.2,65.9-11.6
		c25-5.1,49.7-10.9,74.1-17.4c30.8-8.2,60.7-17.4,89.7-27.7c22.5-8,44.5-16.5,65.9-25.7c47.3-20.3,91.7-43.4,132.8-69.3
		c10.6-6.7,21-13.5,31-20.5c23.5-16.3,45.5-33.4,65.9-51.2c40.9-35.7,75.4-74.4,103.1-115.7c27.8-41.4,48.1-84.4,60.7-128.5
		c5.7-19.9,9.8-39.9,12.4-60.2h22.8c20.1,0,32-22.6,20.6-39.2L889.8,52c-5-7.2-12.8-10.8-20.6-10.8c-7.8,0-15.6,3.6-20.6,10.8
		l-73.4,106.5c-11.4,16.6,0.4,39.2,20.6,39.2h22.9c-7.8,45.6-26.2,90.2-55,133c-6.3,9.3-13,18.5-20.1,27.5
		c-18.9,24-40.9,46.9-65.9,68.7c-25.2,22-53.3,42.8-84.3,62.4c-25.1,15.8-51.6,30.5-79.5,44c-21.2,10.3-43.2,19.9-65.9,28.8
		c-36.6,14.4-75.2,27-115.5,37.8c-16,4.3-32.1,8.2-48.4,11.8c-21.7,4.8-43.7,9-65.9,12.6c-53.4,8.7-108.1,14-163.8,15.9
		c-6.9,0.2-13.8,0.4-20.8,0.5c-13.6,0.3-24.6,11.3-24.6,25v50C9.2,729.5,20.4,740.7,34.2,740.7z"/>
</g>
</svg>
