<?xml version="1.0" encoding="utf-8"?>
<!-- Generator: Adobe Illustrator 17.1.0, SVG Export Plug-In . SVG Version: 6.00 Build 0)  -->
<!DOCTYPE svg PUBLIC "-//W3C//DTD SVG 1.1//EN" "http://www.w3.org/Graphics/SVG/1.1/DTD/svg11.dtd">
<svg version="1.1" id="Layer_1" xmlns="http://www.w3.org/2000/svg" xmlns:xlink="http://www.w3.org/1999/xlink" x="0px" y="0px"
	 width="1000px" height="1000px" viewBox="0 0 1000 1000" enable-background="new 0 0 1000 1000" xml:space="preserve">
<g>
	<path d="M825,919.5c27.6,0,50-22.4,50-50V751.8l-3.6,2.4c-9.2,6.2-19.8,9.5-30.8,9.5c-14.2,0-27.7-5.4-38.1-15.3
		c-9.9-9.4-15.7-21.8-16.8-35.3c-25.1-2.3-50-5.3-74.5-8.9v165.3c0,27.6,22.4,50,50,50H825z"/>
	<path d="M595.3,919.5c27.6,0,50-22.4,50-50V692.8c-2-0.4-4-0.8-6-1.2c-25.5-5.2-51-11.2-75.9-17.8c-27.9-7.4-55.4-15.8-82-24.9
		v220.5c0,27.6,22.4,50,50,50H595.3z"/>
	<path d="M365.6,919.5c27.6,0,50-22.4,50-50V624.1c-4-1.6-7.9-3.3-11.8-5c-48.7-20.8-94.7-44.9-137-71.5c-5.1-3.2-10.1-6.4-15-9.7
		v331.6c0,27.6,22.4,50,50,50H365.6z"/>
	<path d="M72.1,919.5h63.8c27.6,0,50-22.4,50-50V489.7c-6.7-5.5-13.3-11-19.7-16.6c-42.8-37.4-79.2-78.3-108.3-121.6
		c-13.6-20.3-25.5-41-35.8-62.1v580.1C22.1,897.1,44.5,919.5,72.1,919.5z"/>
	<path d="M29.1,228.4c3.3,9.4,6.9,18.8,10.9,28c2.1,4.8,4.2,9.7,6.5,14.5c0.1,0.3,0.3,0.6,0.4,0.9c5,10.7,10.6,21.3,16.6,31.8
		s12.4,20.9,19.4,31.2c8.7,12.9,18,25.5,28,37.9c2,2.5,4,4.9,6.1,7.4c4.1,4.9,8.3,9.8,12.6,14.6c2.2,2.4,4.3,4.8,6.5,7.2
		c8.8,9.6,18,19,27.6,28.2c7.2,6.9,14.7,13.7,22.3,20.4c20.4,17.8,42.3,34.9,65.9,51.2c2.5,1.7,5,3.5,7.6,5.2
		c2.6,1.7,5.1,3.4,7.7,5.2c5.2,3.4,10.4,6.8,15.7,10.1c7.7,4.9,15.5,9.6,23.5,14.3c10.6,6.2,21.4,12.3,32.3,18.1
		c2.7,1.5,5.5,2.9,8.3,4.4c13.8,7.2,28,14.2,42.4,20.8c8.7,4,17.4,7.9,26.3,11.7h0c21.4,9.1,43.3,17.7,65.9,25.7h0
		c3.6,1.3,7.3,2.5,10.9,3.8c25.6,8.7,51.9,16.7,78.8,23.9c12.2,3.2,24.5,6.3,36.8,9.2c3.1,0.7,6.2,1.4,9.3,2.1
		c9.3,2.1,18.6,4.1,28,6h0c21.7,4.4,43.7,8.3,65.9,11.6c0,0,0.1,0,0.1,0c3.9,0.6,7.7,1.1,11.6,1.7c1.2,0.2,2.3,0.3,3.5,0.5
		c2.9,0.4,5.8,0.8,8.7,1.2c1.2,0.2,2.3,0.3,3.5,0.5c3.4,0.4,6.8,0.9,10.2,1.3c0.6,0.1,1.1,0.1,1.7,0.2c4.2,0.5,8.4,1,12.6,1.5
		c0.2,0,0.3,0,0.5,0.1c4,0.4,7.9,0.9,11.9,1.3c0.6,0.1,1.2,0.1,1.8,0.2c3.8,0.4,7.7,0.8,11.5,1.1c0.3,0,0.6,0.1,0.9,0.1
		c8.7,0.8,17.3,1.5,26,2.2v23.2c0,14.7,12.1,25,25.1,25c4.7,0,9.5-1.4,14-4.4l20.4-13.9l86.2-58.5c14.5-9.8,14.7-31,0.4-41.1
		l-106.6-75.3c-4.5-3.2-9.5-4.6-14.3-4.6c-13,0-25.1,10.3-25.1,25v24.2c-35.3-2.8-70.1-7-104.4-12.6c-22.2-3.6-44.2-7.8-65.9-12.6
		c-16.3-3.6-32.4-7.5-48.4-11.8c-40.3-10.7-78.8-23.3-115.5-37.8c-22.7-8.9-44.7-18.5-65.9-28.8c-27.9-13.5-54.4-28.2-79.5-44
		c-31-19.6-59.2-40.4-84.3-62.4c-32.8-28.6-60.5-61.8-86.9-96.2c-37-48.2-50.8-119.7-55.8-157.8c-1.9-15-14.7-26.1-29.7-26.1H37.7
		c-17.5,0-31.3,14.9-29.9,32.3c2.1,26.6,6.9,53,14.4,78.9C24.2,213.7,26.6,221.1,29.1,228.4z"/>
</g>
</svg>
