<?xml version="1.0" encoding="utf-8"?>
<!-- Generator: Adobe Illustrator 17.1.0, SVG Export Plug-In . SVG Version: 6.00 Build 0)  -->
<!DOCTYPE svg PUBLIC "-//W3C//DTD SVG 1.1//EN" "http://www.w3.org/Graphics/SVG/1.1/DTD/svg11.dtd">
<svg version="1.1" id="Layer_1" xmlns="http://www.w3.org/2000/svg" xmlns:xlink="http://www.w3.org/1999/xlink" x="0px" y="0px"
	 width="1000px" height="1000px" viewBox="0 0 1000 1000" enable-background="new 0 0 1000 1000" xml:space="preserve">
<g>
	<path d="M909.5,97.9H89.1c-27.6,0-50,22.4-50,50v24.2c14-10.3,31.3-16.3,50-16.3H331v0h628.5v-7.8
		C959.5,120.3,937.2,97.9,909.5,97.9z"/>
	<path d="M430.1,190.8c0.1,0.1,0.1,0.2,0.2,0.2l30.5,42.2h498.8v-42.5v0L430.1,190.8C430.1,190.8,430.1,190.8,430.1,190.8z"/>
	<path d="M512.7,305.2c2.8,3.9,7.4,6.2,12.2,6.2h384.7c18.7,0,36,6.1,50,16.3v-59.5H486L512.7,305.2z"/>
	<path d="M909.5,346.4H524.9c-16.1,0-31.1-7.7-40.5-20.7l-41.5-57.4l-22-30.5l-3.3-4.5l-15.7-21.7c-9.4-13-24.5-20.7-40.5-20.7H89.1
		c-27.6,0-50,22.4-50,50V312v138v402.1c0,27.6,22.4,50,50,50h820.4c27.6,0,50-22.4,50-50V556V396.4v0
		C959.5,368.8,937.2,346.4,909.5,346.4z M497,707.5H159c-9.7,0-17.5-7.8-17.5-17.5s7.8-17.5,17.5-17.5h338c9.7,0,17.5,7.8,17.5,17.5
		S506.7,707.5,497,707.5z M839,587.2H159c-9.7,0-17.5-7.8-17.5-17.5s7.8-17.5,17.5-17.5h261.8H839c4.1,0,7.9,1.4,10.9,3.9
		c4,3.2,6.6,8.1,6.6,13.6C856.5,579.3,848.7,587.2,839,587.2z"/>
</g>
</svg>
