<?xml version="1.0" encoding="utf-8"?>
<!-- Generator: Adobe Illustrator 17.1.0, SVG Export Plug-In . SVG Version: 6.00 Build 0)  -->
<!DOCTYPE svg PUBLIC "-//W3C//DTD SVG 1.1//EN" "http://www.w3.org/Graphics/SVG/1.1/DTD/svg11.dtd">
<svg version="1.1" id="Capa_1" xmlns="http://www.w3.org/2000/svg" xmlns:xlink="http://www.w3.org/1999/xlink" x="0px" y="0px"
	 width="1000px" height="1000px" viewBox="0 0 1000 1000" enable-background="new 0 0 1000 1000" xml:space="preserve">
<path d="M463.3,591.8h156.4c-1.4-54.1-9.2-105.9-22.8-152.2c-41.8,9.9-87,15.6-133.6,16.7V591.8z"/>
<path d="M463.3,951.9c15.8-3.2,31.2-10.9,46.2-22.8c20.9-16.7,39.9-41,56.4-72.1c7.4-14,14.1-28.9,20-44.7
	c-38.3-8.8-79.7-13.9-122.5-15V951.9z"/>
<path d="M428.3,951.9V797.3c-42.8,1.1-84.2,6.2-122.5,15c5.9,15.8,12.6,30.7,20,44.7c16.5,31.1,35.4,55.4,56.4,72.1
	C397.1,941,412.5,948.7,428.3,951.9z"/>
<path d="M463.3,762.3c46.7,1.1,91.8,6.8,133.6,16.7c13.5-46.3,21.4-98.1,22.8-152.2H463.3V762.3z"/>
<path d="M428.3,626.8H271.9c1.4,54.1,9.2,105.9,22.8,152.2c41.8-9.9,87-15.6,133.6-16.7V626.8z"/>
<path d="M428.3,456.3c-46.7-1.1-91.8-6.8-133.6-16.7c-13.5,46.3-21.4,98.1-22.8,152.2h156.4V456.3z"/>
<path d="M368.9,963c-27.8-19.5-53-49.8-74.1-89.6c-8.6-16.2-16.3-33.6-23-52.1c-26.7,8.1-51.5,18.1-73.7,29.8
	c-4.9,2.6-9.6,5.2-14.1,7.9C233,910.5,297,947.5,368.9,963z"/>
<path d="M294.8,345.2c21.1-39.9,46.3-70.1,74.1-89.6c-72,15.6-136,52.5-185,103.9c4.5,2.7,9.2,5.4,14.1,7.9
	c22.3,11.8,47,21.8,73.7,29.8C278.5,378.8,286.2,361.4,294.8,345.2z"/>
<path d="M730.9,832.3c44.8-57.2,72.7-128.2,76.4-205.5H654.7c-1.4,57.1-9.6,112-24,161.3c28.6,8.7,55.2,19.4,79.2,32.1
	C717.2,824.1,724.2,828.1,730.9,832.3z"/>
<path d="M428.3,266.7c-15.8,3.2-31.2,10.9-46.2,22.8c-20.9,16.7-39.9,41-56.4,72.1c-7.4,14-14.1,28.9-20,44.7
	c38.3,8.8,79.7,13.9,122.5,15V266.7z"/>
<path d="M786.4,486.5c-20.1,24.2-34.5,40.3-36.5,42.6l-0.2,0.3c-11.8,13.4-32.7,13.4-44.5,0l-0.2-0.3c-3-3.4-34-38.2-70.3-84.4
	c11.9,45.5,18.8,95.4,20.1,147.1h152.6C805.5,555,798.3,519.6,786.4,486.5z"/>
<path d="M160.7,386.3C115.9,443.5,88,514.4,84.3,591.8h152.6c1.4-57.1,9.6-112,24-161.3c-28.6-8.7-55.2-19.4-79.2-32.1
	C174.4,394.4,167.4,390.4,160.7,386.3z"/>
<path d="M707.7,859.1c-4.5-2.7-9.2-5.4-14.1-7.9c-22.3-11.8-47-21.8-73.7-29.8c-6.8,18.4-14.5,35.8-23,52.1
	c-21.1,39.9-46.3,70.1-74.1,89.6C594.6,947.5,658.6,910.5,707.7,859.1z"/>
<path d="M160.7,832.3c6.7-4.1,13.7-8.2,21-12c24-12.7,50.6-23.5,79.2-32.1c-14.3-49.3-22.6-104.2-24-161.3H84.3
	C88,704.1,115.9,775.1,160.7,832.3z"/>
<path d="M509.5,289.5c-14.9-11.9-30.4-19.6-46.2-22.8v154.6c42.8-1.1,84.2-6.2,122.5-15c-5.9-15.8-12.6-30.7-20-44.7
	C549.4,330.4,530.4,306.2,509.5,289.5z"/>
<path d="M901,137.3c-9.5-22.4-23.1-42.6-40.4-59.9c-17.3-17.3-37.4-30.9-59.9-40.4c-23.2-9.8-47.9-14.8-73.3-14.8
	c-25.4,0-50.1,5-73.3,14.8c-22.4,9.5-42.6,23.1-59.9,40.4c-17.3,17.3-30.9,37.4-40.4,59.9c-17.8,42-17.5,89.8-1.7,131.9
	c2.6,7,5.6,13.8,9.1,20.4c18.1,34.6,44.8,73.7,71.6,109.5c7.5,10.1,15.1,19.9,22.4,29.2c22.5,28.7,43.1,53.3,56.6,68.9
	c8.2,9.6,23,9.6,31.3,0c7.9-9.2,18.4-21.6,30.3-36.1c38.1-46.6,90.8-115.1,120.3-171.5C917.9,243.1,921.7,186.3,901,137.3z
	 M727.4,103.7c58.6,0,106,47.5,106,106c0,1.6,0,3.2-0.1,4.8c-0.6,13.8-3.9,26.9-9.3,38.9c-10.1,22.4-27.8,40.6-49.8,51.5
	c-14.1,7-30.1,10.9-46.9,10.9c-1,0-1.9,0-2.9,0c-57.2-1.5-103.1-48.4-103.1-106c0-3.1,0.1-6.2,0.4-9.2
	C626.5,146.3,672,103.7,727.4,103.7z"/>
</svg>
