<?xml version="1.0" encoding="utf-8"?>
<!-- Generator: Adobe Illustrator 17.1.0, SVG Export Plug-In . SVG Version: 6.00 Build 0)  -->
<!DOCTYPE svg PUBLIC "-//W3C//DTD SVG 1.1//EN" "http://www.w3.org/Graphics/SVG/1.1/DTD/svg11.dtd">
<svg version="1.1" id="Layer_1" xmlns="http://www.w3.org/2000/svg" xmlns:xlink="http://www.w3.org/1999/xlink" x="0px" y="0px"
	 width="1000px" height="1000px" viewBox="0 0 1000 1000" enable-background="new 0 0 1000 1000" xml:space="preserve">
<g>
	<path d="M688,834.1c-23.5,44.5-51.2,79.5-82.1,104.2c-6.8,5.5-13.7,10.3-20.8,14.7c98.5-18.4,186-68.1,251.7-138.4
		c-6.1-3.7-12.5-7.3-19.1-10.8c-29.8-15.8-63.1-29.1-99.1-39.6C709.7,788.9,699.5,812.4,688,834.1z"/>
	<path d="M517.5,699.5c62.4,1.2,122.7,8.8,178.3,22.3c18.6-61.8,29.1-131.5,30.5-204.3H517.5V699.5z"/>
	<path d="M517.5,942c22.8-3.5,45.1-13.9,66.6-31c27.2-21.7,51.7-53.1,73-93.3c10.3-19.4,19.5-40.4,27.6-62.6
		c-52.1-12.4-108.6-19.4-167.2-20.6V942z"/>
	<path d="M270.5,269.1c-37.8-11.2-73-25.2-104.5-41.9c-9-4.8-17.7-9.7-26-14.9C80.3,286.9,43.3,380.4,39.5,482.5h199.2
		C240.2,406.7,251.1,334,270.5,269.1z"/>
	<path d="M860,212.3c-8.3,5.1-16.9,10.1-26,14.9c-31.5,16.7-66.7,30.7-104.5,41.9c19.4,64.9,30.3,137.6,31.8,213.4h199.2
		C956.7,380.4,919.7,286.9,860,212.3z"/>
	<path d="M415.9,911c21.4,17.1,43.8,27.5,66.6,31V734.5c-58.6,1.2-115.1,8.2-167.2,20.6c8.1,22.2,17.3,43.1,27.6,62.6
		C364.2,857.9,388.8,889.3,415.9,911z"/>
	<path d="M482.5,699.5v-182H273.7c1.5,72.8,12,142.5,30.5,204.3C359.8,708.4,420.1,700.7,482.5,699.5z"/>
	<path d="M273.7,482.5h208.8v-182c-62.4-1.2-122.7-8.8-178.3-22.3C285.7,340,275.1,409.7,273.7,482.5z"/>
	<path d="M761.3,517.5c-1.5,75.8-12.4,148.5-31.8,213.4c37.8,11.2,73,25.2,104.5,41.9c9,4.8,17.7,9.7,26,14.9
		c59.7-74.6,96.7-168.2,100.5-270.2H761.3z"/>
	<path d="M517.5,482.5h208.8c-1.5-72.8-12-142.5-30.5-204.3c-55.6,13.5-115.9,21.1-178.3,22.3V482.5z"/>
	<path d="M517.5,58v207.5c58.6-1.2,115.1-8.2,167.2-20.6c-8.1-22.2-17.3-43.1-27.6-62.6c-21.3-40.2-45.8-71.6-73-93.3
		C562.6,71.9,540.3,61.5,517.5,58z"/>
	<path d="M163.2,185.4c6.1,3.7,12.5,7.3,19.1,10.8c29.8,15.8,63.1,29.1,99.1,39.6c8.9-24.8,19.1-48.2,30.6-69.9
		c23.5-44.5,51.2-79.5,82.1-104.2c6.8-5.5,13.7-10.3,20.8-14.7C316.4,65.4,228.9,115.1,163.2,185.4z"/>
	<path d="M482.5,58c-22.8,3.5-45.1,13.9-66.6,31c-27.2,21.7-51.7,53.1-73,93.3c-10.3,19.4-19.5,40.4-27.6,62.6
		c52.1,12.4,108.6,19.4,167.2,20.6V58z"/>
	<path d="M165.9,772.8c31.5-16.7,66.7-30.7,104.5-41.9c-19.4-64.9-30.3-137.6-31.8-213.4H39.5C43.3,619.6,80.3,713.1,140,787.7
		C148.2,782.6,156.9,777.6,165.9,772.8z"/>
	<path d="M163.2,814.6c65.7,70.3,153.2,120,251.7,138.4c-7-4.3-13.9-9.2-20.8-14.7c-30.9-24.7-58.6-59.8-82.1-104.2
		c-11.5-21.7-21.7-45.1-30.6-69.9c-35.9,10.6-69.2,23.9-99.1,39.6C175.7,807.3,169.3,810.9,163.2,814.6z"/>
	<path d="M688,165.9c11.5,21.7,21.7,45.1,30.6,69.9c35.9-10.6,69.2-23.9,99.1-39.6c6.6-3.5,13-7.1,19.1-10.8
		C771.1,115.1,683.6,65.4,585.1,47c7,4.3,13.9,9.2,20.8,14.7C636.8,86.4,664.5,121.5,688,165.9z"/>
</g>
</svg>
