<?xml version="1.0" encoding="utf-8"?>
<!-- Generator: Adobe Illustrator 17.1.0, SVG Export Plug-In . SVG Version: 6.00 Build 0)  -->
<!DOCTYPE svg PUBLIC "-//W3C//DTD SVG 1.1//EN" "http://www.w3.org/Graphics/SVG/1.1/DTD/svg11.dtd">
<svg version="1.1" id="Layer_1" xmlns="http://www.w3.org/2000/svg" xmlns:xlink="http://www.w3.org/1999/xlink" x="0px" y="0px"
	 width="1000px" height="1000px" viewBox="0 0 1000 1000" enable-background="new 0 0 1000 1000" xml:space="preserve">
<g>
	<path d="M619.2,258.6c-2.7-8.3-10.4-13.9-19-13.9H466.9h-67.3c-8.7,0-16.4,5.6-19,13.9l-36,112.1c-4.1,12.9,5.5,26.1,19,26.1h103.3
		h169.3c6.1,0,11.3-2.6,14.9-6.7c-9.5-7.5-15.2-19-15.2-31.3c0-8.7,2.8-17,7.8-23.7L619.2,258.6z"/>
	<path d="M234.5,434c-8.7,0-16.4,5.6-19,13.9l-36,112.1c-4.2,12.9,5.5,26.1,19,26.1h103.3h169.3c13.6,0,23.2-13.2,19-26.1l-36-112.1
		c-2.7-8.3-10.4-13.9-19-13.9H301.8H234.5z"/>
	<path d="M34.5,774h103.3h169.3c13.6,0,23.2-13.2,19-26.1l-36-112.1c-2.7-8.3-10.4-13.9-19-13.9H137.8H70.5c-8.7,0-16.4,5.6-19,13.9
		l-36,112.1C11.3,760.8,21,774,34.5,774z"/>
	<path d="M946.6,635.8c-2.7-8.3-10.4-13.9-19-13.9H794.4h-67.3c-8.7,0-16.4,5.6-19,13.9l-36,112.1c-4.2,12.9,5.5,26.1,19,26.1h103.3
		h169.3c13.6,0,23.2-13.2,19-26.1L946.6,635.8z"/>
	<path d="M362.2,774h103.3h169.3c13.6,0,23.2-13.2,19-26.1l-36-112.1c-2.7-8.3-10.4-13.9-19-13.9H465.5h-67.3
		c-8.7,0-16.4,5.6-19,13.9l-36,112.1C339,760.8,348.6,774,362.2,774z"/>
	<path d="M818.9,559.9L794.2,483c-7,5.6-15.8,8.9-25.1,8.9c-14.6,0-28.1-8-35.1-20.8L713.7,434h-83.1h-67.3c-8.7,0-16.4,5.6-19,13.9
		l-36,112.1c-4.2,12.9,5.5,26.1,19,26.1h103.3h169.3C813.5,586.1,823.1,572.9,818.9,559.9z"/>
	<path d="M867.1,367.5c6.9-3.8,6.9-13.8,0-17.5l-44.8-24.5c-8.4-4.6-15.3-11.5-19.9-19.9l-24.5-44.8c-1.9-3.5-5.3-5.2-8.8-5.2
		s-6.9,1.7-8.8,5.2l-24.5,44.8c-4.6,8.4-11.5,15.3-19.9,19.9L671.1,350c-6.9,3.8-6.9,13.8,0,17.5l44.8,24.5
		c8.4,4.6,15.3,11.5,19.9,19.9l12.1,22.1l12.4,22.7c1.9,3.5,5.3,5.2,8.8,5.2s6.9-1.7,8.8-5.2l5-9.1l19.6-35.7
		c4.6-8.4,11.5-15.3,19.9-19.9L867.1,367.5z"/>
</g>
</svg>
