<?xml version="1.0" encoding="utf-8"?>
<!-- Generator: Adobe Illustrator 17.1.0, SVG Export Plug-In . SVG Version: 6.00 Build 0)  -->
<!DOCTYPE svg PUBLIC "-//W3C//DTD SVG 1.1//EN" "http://www.w3.org/Graphics/SVG/1.1/DTD/svg11.dtd">
<svg version="1.1" id="Capa_1" xmlns="http://www.w3.org/2000/svg" xmlns:xlink="http://www.w3.org/1999/xlink" x="0px" y="0px"
	 width="1000px" height="1000px" viewBox="0 0 1000 1000" enable-background="new 0 0 1000 1000" xml:space="preserve">
<path d="M933.5,582.9V468.6c0-48.2-39.3-87.5-87.5-87.5H760v75H846c6.9,0,12.5,5.6,12.5,12.5v114.3c0,64-41.3,118.6-98.6,138.5
	c-1,27.8-6.4,54.9-16.2,80.8c47.1-6.7,90.7-28.4,124.9-62.7C910.4,697.7,933.5,642.1,933.5,582.9z"/>
<path d="M299.3,936.6h206.4c91,0,169.4-54.2,204.6-132.1c12.7-28.1,19.8-59.4,19.8-92.3V381.1v-54.8c0-24.8-20.1-44.9-44.9-44.9
	H119.8c-24.8,0-44.9,20.1-44.9,44.9v385.9C74.9,836.1,175.3,936.6,299.3,936.6z"/>
<path d="M104.3,138.3c10.7,13.6,24.9,24.3,40.3,32.3c19.3,10,40.5,16.1,61.7,21.3c16.6,4.1,33.4,7.2,49.6,12.5
	c19.3,6.2,36.2,17.3,53.5,27.5c6.7-33.7-15.5-69.6-42-88.2c-25.6-18-56.6-26.2-86.5-35.4c-17.4-5.4-34.9-11.2-51.1-19.8
	c-16.4-8.6-24.7-17.4-34.9-31.7c-13.3,21.4-10.3,49.2,1.9,70.5C99.1,131.1,101.6,134.8,104.3,138.3z"/>
<path d="M328.7,138.3c10.7,13.6,24.9,24.3,40.3,32.3c19.3,10,40.5,16.1,61.7,21.3c16.6,4.1,33.4,7.2,49.6,12.5
	c19.3,6.2,36.2,17.3,53.5,27.5c6.7-33.7-15.5-69.6-42-88.2c-25.6-18-56.6-26.2-86.5-35.4c-17.4-5.4-34.9-11.2-51.1-19.8
	c-16.4-8.6-24.7-17.4-34.9-31.7c-13.3,21.4-10.3,49.2,1.9,70.5C323.5,131.1,326,134.8,328.7,138.3z"/>
</svg>
