<?xml version="1.0" encoding="utf-8"?>
<!-- Generator: Adobe Illustrator 17.1.0, SVG Export Plug-In . SVG Version: 6.00 Build 0)  -->
<!DOCTYPE svg PUBLIC "-//W3C//DTD SVG 1.1//EN" "http://www.w3.org/Graphics/SVG/1.1/DTD/svg11.dtd">
<svg version="1.1" id="Capa_1" xmlns="http://www.w3.org/2000/svg" xmlns:xlink="http://www.w3.org/1999/xlink" x="0px" y="0px"
	 width="1000px" height="1000px" viewBox="0 0 1000 1000" enable-background="new 0 0 1000 1000" xml:space="preserve">
<path d="M680.8,415.7c42.9-42.9,66.6-100.1,66.6-160.8S723.7,137,680.8,94.1C637.8,51.2,580.7,27.5,520,27.5S402.2,51.2,359.2,94.1
	c-42.9,42.9-66.6,100.1-66.6,160.8s23.7,117.8,66.6,160.8c27.8,27.8,61.5,47.5,98.3,57.9v190.5v161.7v76.7c0,34.5,28,62.5,62.5,62.5
	s62.5-28,62.5-62.5v-14.2h35.8c34.5,0,62.5-28,62.5-62.5s-28-62.5-62.5-62.5h-35.8v-36.7h35.8c34.5,0,62.5-28,62.5-62.5
	s-28-62.5-62.5-62.5h-35.8v-128C619.3,463.2,653,443.5,680.8,415.7z M417.6,254.9c0-56.5,45.9-102.4,102.4-102.4
	s102.4,45.9,102.4,102.4c0,56.5-45.9,102.4-102.4,102.4S417.6,311.3,417.6,254.9z"/>
</svg>
