<?xml version="1.0" encoding="utf-8"?>
<!-- Generator: Adobe Illustrator 17.1.0, SVG Export Plug-In . SVG Version: 6.00 Build 0)  -->
<!DOCTYPE svg PUBLIC "-//W3C//DTD SVG 1.1//EN" "http://www.w3.org/Graphics/SVG/1.1/DTD/svg11.dtd">
<svg version="1.1" id="Capa_1" xmlns="http://www.w3.org/2000/svg" xmlns:xlink="http://www.w3.org/1999/xlink" x="0px" y="0px"
	 width="1000px" height="1000px" viewBox="0 0 1000 1000" enable-background="new 0 0 1000 1000" xml:space="preserve">
<path d="M937.2,766.5H593.7c-3.7,0-6.7,3-6.7,6.7v0.3c0,13.8-11.2,25-25,25H432c-13.8,0-25-11.2-25-25v-0.3c0-3.7-3-6.7-6.7-6.7
	H56.8c-13.8,0-25,11.2-25,25v39c0,13.8,11.2,25,25,25h880.4c13.8,0,25-11.2,25-25v-39C962.2,777.7,951,766.5,937.2,766.5z
	 M884.3,811.2c0,6.8-5.5,12.4-12.4,12.4h-53.5c-6.8,0-12.4-5.5-12.4-12.4v-0.3c0-6.8,5.5-12.4,12.4-12.4h53.5
	c6.8,0,12.4,5.5,12.4,12.4V811.2z"/>
<path d="M881,107.4H119c-48.2,0-87.5,39.3-87.5,87.5V643c0,48.2,39.3,87.5,87.5,87.5h762c48.2,0,87.5-39.3,87.5-87.5V194.9
	C968.5,146.7,929.2,107.4,881,107.4z M893.5,643c0,6.9-5.6,12.5-12.5,12.5H119c-6.9,0-12.5-5.6-12.5-12.5V194.9
	c0-6.9,5.6-12.5,12.5-12.5h762c6.9,0,12.5,5.6,12.5,12.5V643z"/>
</svg>
