<?xml version="1.0" encoding="utf-8"?>
<!-- Generator: Adobe Illustrator 17.1.0, SVG Export Plug-In . SVG Version: 6.00 Build 0)  -->
<!DOCTYPE svg PUBLIC "-//W3C//DTD SVG 1.1//EN" "http://www.w3.org/Graphics/SVG/1.1/DTD/svg11.dtd">
<svg version="1.1" id="Layer_1" xmlns="http://www.w3.org/2000/svg" xmlns:xlink="http://www.w3.org/1999/xlink" x="0px" y="0px"
	 width="1000px" height="1000px" viewBox="0 0 1000 1000" enable-background="new 0 0 1000 1000" xml:space="preserve">
<g>
	<path d="M452,863.1h-10.9V831c0-27.6-22.4-50-50-50H143.6c-27.6,0-50,22.4-50,50v32.1H82.7c-27.6,0-50,22.4-50,50v2.7
		c0,27.6,22.4,50,50,50H452c27.6,0,50-22.4,50-50v-2.7C502,885.5,479.6,863.1,452,863.1z"/>
	<path d="M486.6,164.8L271.7,379.7c-19.5,19.5-19.5,51.2,0,70.7l102.7,102.7c19.5,19.5,51.2,19.5,70.7,0L660,338.2
		c19.5-19.5,19.5-51.2,0-70.7L557.3,164.8C537.8,145.3,506.1,145.3,486.6,164.8z"/>
	<path d="M189.9,483.7c-28.2,16.6-33.1,55.3-10,78.5l82,82c23.1,23.1,61.9,18.2,78.5-10l25.2-42.8L232.7,458.5L189.9,483.7z"/>
	<path d="M741,233.5c28.2-16.6,33.1-55.3,10-78.5l-82-82c-23.1-23.1-61.9-18.2-78.5,10l-25.2,42.8l132.8,132.8L741,233.5z"/>
	<path d="M642.8,413.3L538.1,518L824,803.9c19.5,19.5,51.2,19.5,70.7,0l34-34c19.5-19.5,19.5-51.2,0-70.7L642.8,413.3z"/>
</g>
</svg>
