<?xml version="1.0" encoding="utf-8"?>
<!-- Generator: Adobe Illustrator 17.1.0, SVG Export Plug-In . SVG Version: 6.00 Build 0)  -->
<!DOCTYPE svg PUBLIC "-//W3C//DTD SVG 1.1//EN" "http://www.w3.org/Graphics/SVG/1.1/DTD/svg11.dtd">
<svg version="1.1" id="Layer_1" xmlns="http://www.w3.org/2000/svg" xmlns:xlink="http://www.w3.org/1999/xlink" x="0px" y="0px"
	 width="1000px" height="1000px" viewBox="0 0 1000 1000" enable-background="new 0 0 1000 1000" xml:space="preserve">
<g>
	<path d="M944.4,182l-19.8-19.8c-19.5-19.5-51.2-19.5-70.7,0L499,517c4,7.5,7.7,15.1,11,23c14.2,33.5,21.4,69.1,21.4,105.7
		c0,7-0.3,13.9-0.8,20.8l413.8-413.8C963.9,233.1,963.9,201.5,944.4,182z"/>
	<circle cx="834.8" cy="624.7" r="125.8"/>
	<circle cx="481.8" cy="271.7" r="125.8"/>
	<path d="M18.3,645.7c0,133.4,108.1,241.5,241.5,241.5c113.9,0,209.3-78.8,234.8-184.8c4.4-18.2,6.7-37.2,6.7-56.7
		c0-38.2-8.9-74.3-24.7-106.4c-39.3-80-121.7-135.1-216.9-135.1C126.4,404.1,18.3,512.3,18.3,645.7z M116.4,627.8
		c0-13.8,11.2-25,25-25h236.8c9.5,0,17.7,5.3,21.9,13c1.9,3.6,3.1,7.6,3.1,12v35.8c0,13.8-11.2,25-25,25h-19.8H141.4
		c-13.8,0-25-11.2-25-25V627.8z"/>
</g>
</svg>
