<?xml version="1.0" encoding="utf-8"?>
<!-- Generator: Adobe Illustrator 17.1.0, SVG Export Plug-In . SVG Version: 6.00 Build 0)  -->
<!DOCTYPE svg PUBLIC "-//W3C//DTD SVG 1.1//EN" "http://www.w3.org/Graphics/SVG/1.1/DTD/svg11.dtd">
<svg version="1.1" id="Layer_1" xmlns="http://www.w3.org/2000/svg" xmlns:xlink="http://www.w3.org/1999/xlink" x="0px" y="0px"
	 width="1000px" height="1000px" viewBox="0 0 1000 1000" enable-background="new 0 0 1000 1000" xml:space="preserve">
<g>
	<path d="M364.4,713.3h275.3c1.5,0,3,0.1,4.4,0.2v-2.9c0-110.2,84.4-178,117.4-275.9c29.9-88.7,24.7-189.6-20.2-271.5
		C693.7,76.4,604.7,14,503.8,14c-0.6,0-1.2,0-1.8,0c-0.6,0-1.2,0-1.8,0c-100.9,0-189.9,62.4-237.5,149.3
		c-44.9,81.9-50.1,182.8-20.2,271.5c33,97.8,117.4,165.6,117.4,275.9v2.9C361.4,713.4,362.9,713.3,364.4,713.3z"/>
	<path d="M364.4,941.3c-1.5,0-3-0.1-4.4-0.2v17.6c0,13.8,11.2,25,25,25H502h117.1c13.8,0,25-11.2,25-25v-17.6
		c-1.5,0.1-2.9,0.2-4.4,0.2H364.4z"/>
	<path d="M664.6,886.3v-11h-20.6H528c-8.3,0-15-6.7-15-15s6.7-15,15-15h116.1h20.6v-36h-20.6H528c-8.3,0-15-6.7-15-15s6.7-15,15-15
		h116.1h20.6v-11c0-12.3-8.9-22.5-20.6-24.6c-1.4-0.3-2.9-0.4-4.4-0.4H364.4c-1.5,0-3,0.1-4.4,0.4c-11.7,2.1-20.6,12.3-20.6,24.6
		v117.9c0,12.3,8.9,22.5,20.6,24.6c1.4,0.3,2.9,0.4,4.4,0.4h275.3c1.5,0,3-0.1,4.4-0.4C655.8,908.8,664.6,898.5,664.6,886.3z"/>
</g>
</svg>
