<?xml version="1.0" encoding="utf-8"?>
<!-- Generator: Adobe Illustrator 17.1.0, SVG Export Plug-In . SVG Version: 6.00 Build 0)  -->
<!DOCTYPE svg PUBLIC "-//W3C//DTD SVG 1.1//EN" "http://www.w3.org/Graphics/SVG/1.1/DTD/svg11.dtd">
<svg version="1.1" id="Layer_1" xmlns="http://www.w3.org/2000/svg" xmlns:xlink="http://www.w3.org/1999/xlink" x="0px" y="0px"
	 width="1000px" height="1000px" viewBox="0 0 1000 1000" enable-background="new 0 0 1000 1000" xml:space="preserve">
<g>
	<path d="M734.4,290.7v-39.9c0-62.1-24.2-120.5-68.1-164.4C622.4,42.5,564,18.4,501.9,18.4h-3.9c-62.1,0-120.5,24.2-164.4,68.1
		c-43.9,43.9-68.1,102.3-68.1,164.4v39.9h80v-39.9c0-84.1,68.4-152.4,152.4-152.4h3.9c84.1,0,152.4,68.4,152.4,152.4v39.9H734.4z"/>
	<path d="M214.9,320.7c-27.6,0-50,22.4-50,50v554.4c0,27.6,22.4,50,50,50h570.3c27.6,0,50-22.4,50-50V370.7c0-27.6-22.4-50-50-50
		h-50.7h-80H345.6h-80H214.9z M415.6,527.1c16.3-29.3,47.4-49.4,83-49.9c37-0.5,69.2,19.8,85.8,49.9c7.6,13.8,12,29.7,12,46.5
		c0,39-23.1,72.6-56.4,87.8V773c0,13.8-11.2,25-25,25h-30c-13.8,0-25-11.2-25-25V661.4c-33.6-15.3-56.9-49.4-56.4-88.9
		C403.8,556.1,408.1,540.6,415.6,527.1z"/>
</g>
</svg>
