<?xml version="1.0" encoding="utf-8"?>
<!-- Generator: Adobe Illustrator 17.1.0, SVG Export Plug-In . SVG Version: 6.00 Build 0)  -->
<!DOCTYPE svg PUBLIC "-//W3C//DTD SVG 1.1//EN" "http://www.w3.org/Graphics/SVG/1.1/DTD/svg11.dtd">
<svg version="1.1" id="Layer_1" xmlns="http://www.w3.org/2000/svg" xmlns:xlink="http://www.w3.org/1999/xlink" x="0px" y="0px"
	 width="1000px" height="1000px" viewBox="0 0 1000 1000" enable-background="new 0 0 1000 1000" xml:space="preserve">
<g>
	<path d="M376.5,286.2h241.3l93.6-197.4C720.9,69,706.4,46,684.3,46H314.7c-21.8,0-36.3,22.5-27.4,42.3L376.5,286.2z"/>
	<path d="M106,949h394h394c27.6,0,50-22.4,50-50V779.9c0-49.5-17.5-97.5-49.5-135.4L617.8,316.3H500H376.5L104.3,644.8
		C73.1,682.5,56,729.9,56,778.8V899C56,926.6,78.4,949,106,949z M378.8,503.9c0-15.2,12.3-27.5,27.5-27.5h67V435
		c0-15.2,12.3-27.5,27.5-27.5s27.5,12.3,27.5,27.5v41.4h58.5c15.2,0,27.5,12.3,27.5,27.5s-12.3,27.5-27.5,27.5h-58.5v80.8h64.1
		c15.2,0,27.5,12.3,27.5,27.5v135.8c0,15.2-12.3,27.5-27.5,27.5h-64.1v41.4c0,15.2-12.3,27.5-27.5,27.5s-27.5-12.3-27.5-27.5v-41.4
		h-61.2c-15.2,0-27.5-12.3-27.5-27.5s12.3-27.5,27.5-27.5h61.2v-80.8h-67c-15.2,0-27.5-12.3-27.5-27.5V503.9z"/>
	<rect x="528.3" y="667.2" width="36.6" height="80.8"/>
	<rect x="433.8" y="531.4" width="39.5" height="80.8"/>
</g>
</svg>
