<?xml version="1.0" encoding="utf-8"?>
<!-- Generator: Adobe Illustrator 17.1.0, SVG Export Plug-In . SVG Version: 6.00 Build 0)  -->
<!DOCTYPE svg PUBLIC "-//W3C//DTD SVG 1.1//EN" "http://www.w3.org/Graphics/SVG/1.1/DTD/svg11.dtd">
<svg version="1.1" id="Layer_1" xmlns="http://www.w3.org/2000/svg" xmlns:xlink="http://www.w3.org/1999/xlink" x="0px" y="0px"
	 width="1000px" height="1000px" viewBox="0 0 1000 1000" enable-background="new 0 0 1000 1000" xml:space="preserve">
<g>
	<path d="M923.8,143.1c-19.5-19.5-51.2-19.5-70.7,0L498.3,497.9c4,7.5,7.7,15.1,11,23c14.2,33.5,21.4,69.1,21.4,105.7
		c0,7-0.3,13.9-0.8,20.8l413.8-413.8c19.5-19.5,19.5-51.2,0-70.7L923.8,143.1z"/>
	<circle cx="834.1" cy="605.6" r="125.8"/>
	<circle cx="481.1" cy="252.6" r="125.8"/>
	<path d="M259.1,868.1c113.9,0,209.3-78.8,234.8-184.8c4.4-18.2,6.7-37.2,6.7-56.7c0-38.2-8.9-74.3-24.7-106.4
		C436.7,440.1,354.3,385,259.1,385C125.7,385,17.6,493.2,17.6,626.6S125.7,868.1,259.1,868.1z M115.7,608.7c0-13.8,11.2-25,25-25
		h75.5v-75.5c0-13.8,11.2-25,25-25H277c13.8,0,25,11.2,25,25v75.5h75.5c9.5,0,17.7,5.3,21.9,13c1.9,3.6,3.1,7.6,3.1,12v35.8
		c0,13.8-11.2,25-25,25h-19.8H302V745c0,13.8-11.2,25-25,25h-35.8c-13.8,0-25-11.2-25-25v-75.5h-75.5c-13.8,0-25-11.2-25-25V608.7z"
		/>
</g>
</svg>
