<?xml version="1.0" encoding="utf-8"?>
<!-- Generator: Adobe Illustrator 17.1.0, SVG Export Plug-In . SVG Version: 6.00 Build 0)  -->
<!DOCTYPE svg PUBLIC "-//W3C//DTD SVG 1.1//EN" "http://www.w3.org/Graphics/SVG/1.1/DTD/svg11.dtd">
<svg version="1.1" id="Capa_1" xmlns="http://www.w3.org/2000/svg" xmlns:xlink="http://www.w3.org/1999/xlink" x="0px" y="0px"
	 width="1000px" height="1000px" viewBox="0 0 1000 1000" enable-background="new 0 0 1000 1000" xml:space="preserve">
<path d="M73.4,298.7l407.4,276.8c13,8.8,29.8,8.8,42.7,0l407.4-276.8c20.4-13.8,10.6-45.7-14-45.7H87.4
	C62.8,253,53,284.8,73.4,298.7z"/>
<path d="M927.1,342.4l-248,168.5l244.7,236.4c15.9,15.3,42.4,4.1,42.4-18V363.1C966.1,343,943.7,331.2,927.1,342.4z"/>
<path d="M80.5,747.3l244.7-236.4l-248-168.5c-16.6-11.3-39,0.6-39,20.7v366.2C38.1,751.4,64.6,762.6,80.5,747.3z"/>
<path d="M879.1,812.6c22.5,0,33.5-27.4,17.4-43L649.5,531l-109.4,74.3c-11.5,7.8-24.7,11.7-37.9,11.7s-26.4-3.9-37.9-11.7L354.8,531
	l-247,238.6c-16.2,15.6-5.1,43,17.4,43H879.1z"/>
</svg>
