<?xml version="1.0" encoding="utf-8"?>
<!-- Generator: Adobe Illustrator 17.1.0, SVG Export Plug-In . SVG Version: 6.00 Build 0)  -->
<!DOCTYPE svg PUBLIC "-//W3C//DTD SVG 1.1//EN" "http://www.w3.org/Graphics/SVG/1.1/DTD/svg11.dtd">
<svg version="1.1" id="Capa_1" xmlns="http://www.w3.org/2000/svg" xmlns:xlink="http://www.w3.org/1999/xlink" x="0px" y="0px"
	 width="1000px" height="1000px" viewBox="0 0 1000 1000" enable-background="new 0 0 1000 1000" xml:space="preserve">
<g>
	<path d="M877.3,219.4H815v5.7c0,33.1-26.9,60-60,60h-5.6c-33.1,0-60-26.9-60-60v-5.7h-121v5.7c0,33.1-26.9,60-60,60h-5.6
		c-33.1,0-60-26.9-60-60v-5.7h-121v5.7c0,33.1-26.9,60-60,60h-5.6c-33.1,0-60-26.9-60-60v-5.7h-62.3c-29.2,0-52.9,23.7-52.9,52.9
		v567.3c0,29.2,23.7,52.9,52.9,52.9h549.4c-2.9-7.2-4.5-15-4.5-23V724.4c0-46,37.4-83.4,83.4-83.4h144.9c8.1,0,15.9,1.5,23,4.4
		V272.2C930.2,243,906.5,219.4,877.3,219.4z M498.8,724.4h-185c-13.8,0-25-11.2-25-25s11.2-25,25-25h185c13.8,0,25,11.2,25,25
		S512.6,724.4,498.8,724.4z M684.6,586.9H314.7c-13.8,0-25-11.2-25-25s11.2-25,25-25h369.9c13.8,0,25,11.2,25,25
		S698.4,586.9,684.6,586.9z M684.6,449.4H314.7c-13.8,0-25-11.2-25-25s11.2-25,25-25h369.9c13.8,0,25,11.2,25,25
		S698.4,449.4,684.6,449.4z"/>
	<path d="M907.1,679.9H762.2c-24.6,0-44.5,19.9-44.5,44.5v144.9c0,19.8,24,29.8,38,15.7l167.2-167.2c4.5-4.5,6.6-10.1,6.6-15.6
		C929.4,690.9,920.5,679.9,907.1,679.9z"/>
	<path d="M749.4,255.1h5.6c16.6,0,30-13.4,30-30v-5.7v-32v-37.7c0-16.6-13.4-30-30-30h-5.6c-16.6,0-30,13.4-30,30v37.7v32v5.7
		C719.4,241.7,732.8,255.1,749.4,255.1z"/>
	<path d="M502.8,255.1h5.6c16.6,0,30-13.4,30-30v-5.7v-32v-37.7c0-16.6-13.4-30-30-30h-5.6c-16.6,0-30,13.4-30,30v37.7v32v5.7
		C472.8,241.7,486.2,255.1,502.8,255.1z"/>
	<path d="M256.2,255.1h5.6c16.6,0,30-13.4,30-30v-5.7v-32v-37.7c0-16.6-13.4-30-30-30h-5.6c-16.6,0-30,13.4-30,30v37.7v32v5.7
		C226.2,241.7,239.6,255.1,256.2,255.1z"/>
</g>
</svg>
