<?xml version="1.0" encoding="utf-8"?>
<!-- Generator: Adobe Illustrator 17.1.0, SVG Export Plug-In . SVG Version: 6.00 Build 0)  -->
<!DOCTYPE svg PUBLIC "-//W3C//DTD SVG 1.1//EN" "http://www.w3.org/Graphics/SVG/1.1/DTD/svg11.dtd">
<svg version="1.1" id="Capa_1" xmlns="http://www.w3.org/2000/svg" xmlns:xlink="http://www.w3.org/1999/xlink" x="0px" y="0px"
	 width="1000px" height="1000px" viewBox="0 0 1000 1000" enable-background="new 0 0 1000 1000" xml:space="preserve">
<path d="M77.7,914.5c0,29.2,23.7,52.9,52.9,52.9h283.6h283.6c29.2,0,52.9-23.7,52.9-52.9V615.3l-38.3,83.3
	c-5.9,12.9-15.6,23.3-27.9,30.3l-0.2,0.1l-0.2,0.1l-110.7,60.5c-6.7,3.7-14.3,5.6-22,5.6c-10.3,0-20.4-3.5-28.4-9.9
	c-8.4-6.7-14.3-16.1-16.5-26.7L486,660.1H239.9c-13.8,0-25-11.2-25-25s11.2-25,25-25h240.8c1-5.4,2.7-10.7,5-15.7l32.1-69.8H239.9
	c-13.8,0-25-11.2-25-25s11.2-25,25-25h300.9l121.5-263.9l12.5-27.2l0.2,0.1l0.8-1.8l29-62.9c-2.3-0.3-4.7-0.5-7.1-0.5H414.2h-94.3
	v17.5c0.2,1.8,0.3,3.7,0.3,5.6v144.9c0,41.1-33.4,74.5-74.5,74.5H100.7c-1.5,0-3.1-0.1-4.6-0.2H77.7V914.5z M239.9,737.6h185
	c13.8,0,25,11.2,25,25s-11.2,25-25,25h-185c-13.8,0-25-11.2-25-25S226.1,737.6,239.9,737.6z"/>
<path d="M245.7,330.8c24.6,0,44.5-19.9,44.5-44.5V141.3c0-13.4-11-22.3-22.4-22.3c-5.5,0-11,2-15.6,6.6L85,292.8
	c-14,14-4.1,38,15.7,38H245.7z"/>
<path d="M912.5,73.6l-81.3-37.4c-6.8-3.1-13.9-4.6-20.9-4.6c-18.9,0-37,10.8-45.5,29.1l-17,36.9l171.9,79l0.2,0.1l17-36.9
	C948.6,114.8,937.6,85.1,912.5,73.6z"/>
<polygon points="906.5,205.5 907.3,204 735.1,124.9 734.4,126.4 732.3,131 703.2,194.2 750.7,216.1 875.3,273.3 "/>
<polygon points="750.7,543.5 861.7,302.3 750.7,251.3 689.6,223.2 573.9,474.5 550.9,524.5 517.6,596.8 545.5,610.1 629.8,650.1 
	688.8,678.1 "/>
<path d="M509.8,626.4c0.1,1.1,0.3,2.2,0.5,3.2l6.3,30.5l19.2,92.5c1.6,7.7,8.4,12.6,15.6,12.6c2.5,0,5.1-0.6,7.6-2l110.7-60.5
	c0.2-0.1,0.3-0.2,0.5-0.3l-89.3-42.4L509.8,626.4z"/>
</svg>
