<?xml version="1.0" encoding="utf-8"?>
<!-- Generator: Adobe Illustrator 17.1.0, SVG Export Plug-In . SVG Version: 6.00 Build 0)  -->
<!DOCTYPE svg PUBLIC "-//W3C//DTD SVG 1.1//EN" "http://www.w3.org/Graphics/SVG/1.1/DTD/svg11.dtd">
<svg version="1.1" id="Capa_1" xmlns="http://www.w3.org/2000/svg" xmlns:xlink="http://www.w3.org/1999/xlink" x="0px" y="0px"
	 width="1000px" height="1000px" viewBox="0 0 1000 1000" enable-background="new 0 0 1000 1000" xml:space="preserve">
<path id="Clip" d="M386.8,917l468.7-335.2C987.1,487.2,1018,303.3,923.2,171C828.9,38.6,645,8.1,512.7,102.7L140.5,369
	c-11.2,8-13.8,23.6-5.8,34.9l8.8,12.3c8,11.3,23.7,13.8,34.9,5.8l372.3-266.6c103.4-73.4,246.6-49.7,320.2,53
	c73,102.8,49.1,246.3-53.4,319.8l-0.1,0L348.7,862.6l0.1,0c-73.4,53.4-175.8,35.3-228.5-37C68,752.4,85,650.1,158.3,597.6l0.1,0.1
	l0,0L549.3,318l0,0c44.1-31.5,106.2-21.4,137.5,22.7c31,44,20.8,105.3-23.2,136.9l0,0L364,691.8c-11.2,8-13.8,23.6-5.8,34.9l9,12.5
	c8,11.2,23.6,13.8,34.9,5.8l299.7-214c73.6-52.6,90.5-154.8,37.5-228.3c-51.9-73.6-154.3-90.5-227.8-37.9L120.5,544.6
	C17.6,618.3-6.1,761.5,67.5,864.3C141.1,967.3,284.2,991,386.8,917z"/>
</svg>
