<?xml version="1.0" encoding="utf-8"?>
<!-- Generator: Adobe Illustrator 17.1.0, SVG Export Plug-In . SVG Version: 6.00 Build 0)  -->
<!DOCTYPE svg PUBLIC "-//W3C//DTD SVG 1.1//EN" "http://www.w3.org/Graphics/SVG/1.1/DTD/svg11.dtd">
<svg version="1.1" id="Capa_1" xmlns="http://www.w3.org/2000/svg" xmlns:xlink="http://www.w3.org/1999/xlink" x="0px" y="0px"
	 width="1000px" height="1000px" viewBox="0 0 1000 1000" enable-background="new 0 0 1000 1000" xml:space="preserve">
<path d="M876.1,929.6V79.7c0-28.8-23.3-52.1-52.1-52.1h-190c4.6,10.8,7.1,22.7,7.1,35.1c0,50.1-40.7,90.8-90.8,90.8
	s-90.8-40.7-90.8-90.8c0-12.4,2.5-24.3,7.1-35.1h-77.8v25.4c0,0.2,0,0.3,0,0.5v162.8c0,44.1-35.9,80-80,80h-73.4
	c-0.5,0.1-0.9,0.1-1.4,0.1H119.9v633.1c0,28.8,23.3,52.1,52.1,52.1h326h326C852.7,981.7,876.1,958.3,876.1,929.6z M550.2,795.2
	c0,13.8-11.2,25-25,25H259.8c-13.8,0-25-11.2-25-25v-0.9c0-13.8,11.2-25,25-25h265.4c13.8,0,25,11.2,25,25V795.2z M550.2,663
	c0,13.8-11.2,25-25,25H259.8c-13.8,0-25-11.2-25-25v-0.9c0-13.8,11.2-25,25-25h265.4c13.8,0,25,11.2,25,25V663z M550.2,530.9
	c0,13.8-11.2,25-25,25H259.8c-13.8,0-25-11.2-25-25V530c0-13.8,11.2-25,25-25h265.4c13.8,0,25,11.2,25,25V530.9z M369.3,409.8
	c-13.8,0-25-11.2-25-25v-0.9c0-13.8,11.2-25,25-25h265.4c13.8,0,25,11.2,25,25v0.9c0,13.8-11.2,25-25,25H369.3z M769.2,795.2
	c0,13.8-11.2,25-25,25h-70.6c-13.8,0-25-11.2-25-25v-0.9c0-13.8,11.2-25,25-25h70.6c13.8,0,25,11.2,25,25V795.2z M769.2,663
	c0,13.8-11.2,25-25,25h-70.6c-13.8,0-25-11.2-25-25v-0.9c0-13.8,11.2-25,25-25h70.6c13.8,0,25,11.2,25,25V663z M769.2,530.9
	c0,13.8-11.2,25-25,25h-70.6c-13.8,0-25-11.2-25-25V530c0-13.8,11.2-25,25-25h70.6c13.8,0,25,11.2,25,25V530.9z"/>
<path d="M308.7,266.4c27.6,0,50-22.4,50-50V53.6c0-15.1-12.3-25.1-25.2-25.1c-6.1,0-12.4,2.3-17.5,7.4L128.2,223.7
	c-15.7,15.7-4.6,42.7,17.7,42.7H308.7z"/>
<path d="M611,62.8c0-13.1-4.1-25.2-11.2-35.1C588.8,12.1,570.7,2,550.2,2c-20.5,0-38.6,10.1-49.6,25.7c-7,9.9-11.2,22-11.2,35.1
	c0,33.6,27.2,60.8,60.8,60.8C583.8,123.6,611,96.3,611,62.8z"/>
</svg>
