<?xml version="1.0" encoding="utf-8"?>
<!-- Generator: Adobe Illustrator 17.1.0, SVG Export Plug-In . SVG Version: 6.00 Build 0)  -->
<!DOCTYPE svg PUBLIC "-//W3C//DTD SVG 1.1//EN" "http://www.w3.org/Graphics/SVG/1.1/DTD/svg11.dtd">
<svg version="1.1" id="Capa_1" xmlns="http://www.w3.org/2000/svg" xmlns:xlink="http://www.w3.org/1999/xlink" x="0px" y="0px"
	 width="1000px" height="1000px" viewBox="0 0 1000 1000" enable-background="new 0 0 1000 1000" xml:space="preserve">
<path d="M736.9,253.8l27-33.8c37-46.2,29.5-113.7-16.8-150.7l-1.7-1.4c-46.2-37-113.7-29.5-150.7,16.8l-26.9,33.7L736.9,253.8z"/>
<path d="M572.6,537.9c0.9,8.2,5,16,11.9,21.6c13.9,11.1,34.2,8.9,45.3-5l185.5-232c11.3-14.1,8.8-34.8-5.7-45.8
	c-14-10.6-34.1-7.6-45.1,6.1l-18.1,22.6l-31-24.8l0.1-0.1L546.5,145L114.1,685.5l169.1,135.4l392.1-490l31,24.8L579.5,514.2
	C573.9,521.1,571.7,529.7,572.6,537.9z"/>
<path d="M255.1,845.9L95.8,718.3c-2.6,8.9-3.9,16.7-3.9,16.7L55.4,909.8c-2.6,12.6,10.2,22.9,21.9,17.5l162.6-74
	C239.8,853.3,247,850.3,255.1,845.9z"/>
<path d="M945.7,877.2c-1.4,0-2.7,0.1-4.1,0.3l-245.7,31.8c-12.6,1.6-21.4-12.2-14.6-23c3.7-5.7,7.3-11.5,10.9-17.3
	c9.5-15.4-3.2-35.9-20.8-35.9c-1.2,0-2.4,0.1-3.7,0.3l-322,48.4l-38.5,5.8l-105,15.8c-11.9,1.8-19.9,11.9-18.9,24
	c0.4,5.4,2.6,10.5,6.1,14.3c4.1,4.5,9.8,7,16,7c1.2,0,2.4-0.1,3.7-0.3l383.8-57.7c13.1-2,22.1,12.8,14.4,23.6
	c-2.5,3.4-5,6.9-7.5,10.3c-6.9,9.4-5.3,25.1,2.7,33.2c4.1,4.2,9.3,6.4,14.8,6.4c0.6,0,1.3,0,1.9-0.1l0.1,0l0.1,0l331.3-42.2l0.1,0
	l0.1,0c5.7-0.9,10.7-4.2,14-9.3c3.6-5.6,4.9-12.5,3.3-18.7C965.6,883.8,956.8,877.2,945.7,877.2z"/>
</svg>
