<?xml version="1.0" encoding="utf-8"?>
<!-- Generator: Adobe Illustrator 17.1.0, SVG Export Plug-In . SVG Version: 6.00 Build 0)  -->
<!DOCTYPE svg PUBLIC "-//W3C//DTD SVG 1.1//EN" "http://www.w3.org/Graphics/SVG/1.1/DTD/svg11.dtd">
<svg version="1.1" id="Capa_1" xmlns="http://www.w3.org/2000/svg" xmlns:xlink="http://www.w3.org/1999/xlink" x="0px" y="0px"
	 width="1000px" height="1000px" viewBox="0 0 1000 1000" enable-background="new 0 0 1000 1000" xml:space="preserve">
<path d="M920.2,877.2c-1.4,0-2.7,0.1-4.1,0.3l-245.7,31.8c-12.6,1.6-21.4-12.2-14.6-23c3.7-5.7,7.3-11.5,10.9-17.3
	c9.5-15.4-3.2-35.9-20.8-35.9c-1.2,0-2.4,0.1-3.7,0.3l-322,48.4l-38.5,5.8l-105,15.8c-11.9,1.8-19.9,11.9-18.9,24
	c0.4,5.4,2.6,10.5,6.1,14.3c4.1,4.5,9.8,7,16,7c1.2,0,2.4-0.1,3.7-0.3l383.8-57.7c13.1-2,22.1,12.8,14.4,23.6
	c-2.5,3.4-5,6.9-7.5,10.3c-6.9,9.4-5.3,25.1,2.7,33.2c4.1,4.2,9.3,6.4,14.8,6.4c0.6,0,1.3,0,1.9-0.1l0.1,0l0.1,0l331.3-42.2l0.1,0
	l0.1,0c5.7-0.9,10.7-4.2,14-9.3c3.6-5.6,4.9-12.5,3.3-18.7C940.1,883.8,931.3,877.2,920.2,877.2z"/>
<path d="M142.8,881.2c1.2-1.4,0.9-3.6-0.5-4.7c0,0,0,0,0,0l-43.3-35.3c-0.5-0.4-0.9-0.8-1.3-1.1c-1.4-1.3-3.6-1-4.8,0.5l-45.2,56.7
	c-1.9,2.3,0,5.8,3,5.5l80.1-8.2c0.9-0.1,1.7-0.5,2.3-1.2L142.8,881.2z"/>
<path d="M187.9,605.9l-77.3,182.9c-3.6,8.5-2.2,18,3.3,25.1c1.1,1.5,2.4,2.8,3.9,4l43.3,35.3c0.9,0.7,1.9,1.4,2.8,2
	c4,2.4,8.5,3.7,13,3.7c5,0,10-1.5,14.4-4.5L352.7,741c-1.6-1.1-3.1-2.3-4.6-3.5L191.4,608.9C190.2,607.9,189.1,606.9,187.9,605.9z"
	/>
<path d="M205.1,513.6c-10.7,11.9-14.6,27.4-12.1,41.9c1.2,7,3.9,13.7,8,19.7c2.6,3.8,5.8,7.4,9.6,10.5l156.7,128.6
	c4,3.3,8.3,5.8,12.8,7.6c6.1,2.5,12.5,3.7,18.9,3.7c0.7,0,1.3,0,2-0.1c14.7-0.6,29-7.5,38.4-20.4l13.1-17.6l349.1-469
	c15.8-21.5,11.9-51.5-8.7-68.4L676.4,55.7c-9.3-7.5-20.4-11.2-31.6-11.2c-13.7,0-27.3,5.6-37.2,16.5L219.2,497.7L205.1,513.6z"/>
</svg>
