<?xml version="1.0" encoding="utf-8"?>
<!-- Generator: Adobe Illustrator 17.1.0, SVG Export Plug-In . SVG Version: 6.00 Build 0)  -->
<!DOCTYPE svg PUBLIC "-//W3C//DTD SVG 1.1//EN" "http://www.w3.org/Graphics/SVG/1.1/DTD/svg11.dtd">
<svg version="1.1" id="Capa_1" xmlns="http://www.w3.org/2000/svg" xmlns:xlink="http://www.w3.org/1999/xlink" x="0px" y="0px"
	 width="1000px" height="1000px" viewBox="0 0 1000 1000" enable-background="new 0 0 1000 1000" xml:space="preserve">
<path d="M922.2,877.2c-1.4,0-2.7,0.1-4.1,0.3l-245.7,31.8c-12.6,1.6-21.4-12.2-14.6-23c3.7-5.7,7.3-11.5,10.9-17.3
	c9.5-15.4-3.2-35.9-20.8-35.9c-1.2,0-2.4,0.1-3.7,0.3l-322,48.4l-38.5,5.8l-105,15.8c-11.9,1.8-19.9,11.9-18.9,24
	c0.4,5.4,2.6,10.5,6.1,14.3c4.1,4.5,9.8,7,16,7c1.2,0,2.4-0.1,3.7-0.3l383.8-57.7c13.1-2,22.1,12.8,14.4,23.6
	c-2.5,3.4-5,6.9-7.5,10.3c-6.9,9.4-5.3,25.1,2.7,33.2c4.1,4.2,9.3,6.4,14.8,6.4c0.6,0,1.3,0,1.9-0.1l0.1,0l0.1,0l331.3-42.2l0.1,0
	l0.1,0c5.7-0.9,10.7-4.2,14-9.3c3.6-5.6,4.9-12.5,3.3-18.7C942.1,883.8,933.3,877.2,922.2,877.2z"/>
<path d="M93.7,899.6c-3.2,4.3,1.7,9.9,6.4,7.4c53.6-29.3,107.5-42.8,137.1-46c10.6-1.1,19.4-8.8,21.7-19.2
	c14.2-63,102.8-208.1,102.8-208.1L243,546.4c0,0-112.1,127.3-168.1,159.7c-9.2,5.3-14.2,15.9-12.1,26.4c5.7,29.1,9.9,83.3-2.1,143
	c-1,5.2,5.8,8.2,8.9,3.9l144.6-196.3c5.2-7,15.1-8.2,21.8-2.5l0.9,0.8c6,5.1,7.1,14,2.4,20.3L93.7,899.6z"/>
<path d="M257.4,519.6L382.9,612c11,8.1,26.6,5.9,34.8-5.1c25.6-34.1,83.3-101,155.4-120.8L745,248c8.2-11.1,5.8-26.8-5.3-35
	L528,57.2c-11.1-8.2-26.8-5.8-35,5.3l-171.7,238c2.5,74.7-44.3,149.7-69.3,184.3C244,495.9,246.4,511.4,257.4,519.6z"/>
</svg>
