<?xml version="1.0" encoding="utf-8"?>
<!-- Generator: Adobe Illustrator 17.1.0, SVG Export Plug-In . SVG Version: 6.00 Build 0)  -->
<!DOCTYPE svg PUBLIC "-//W3C//DTD SVG 1.1//EN" "http://www.w3.org/Graphics/SVG/1.1/DTD/svg11.dtd">
<svg version="1.1" id="Capa_1" xmlns="http://www.w3.org/2000/svg" xmlns:xlink="http://www.w3.org/1999/xlink" x="0px" y="0px"
	 width="1000px" height="1000px" viewBox="0 0 1000 1000" enable-background="new 0 0 1000 1000" xml:space="preserve">
<path d="M935.1,877.2c-1.4,0-2.7,0.1-4.1,0.3l-245.7,31.8c-12.6,1.6-21.4-12.2-14.6-23c3.7-5.7,7.3-11.5,10.9-17.3
	c9.5-15.4-3.2-35.9-20.8-35.9c-1.2,0-2.4,0.1-3.7,0.3l-322,48.4l-38.5,5.8l-105,15.8c-11.9,1.8-19.9,11.9-18.9,24
	c0.4,5.4,2.6,10.5,6.1,14.3c4.1,4.5,9.8,7,16,7c1.2,0,2.4-0.1,3.7-0.3l383.8-57.7c13.1-2,22.1,12.8,14.4,23.6
	c-2.5,3.4-5,6.9-7.5,10.3c-6.9,9.4-5.3,25.1,2.7,33.2c4.1,4.2,9.3,6.4,14.8,6.4c0.6,0,1.3,0,1.9-0.1l0.1,0l0.1,0l331.3-42.2l0.1,0
	l0.1,0c5.7-0.9,10.7-4.2,14-9.3c3.6-5.6,4.9-12.5,3.3-18.7C955,883.8,946.2,877.2,935.1,877.2z"/>
<path d="M793.5,235c26.7-31.7,22.6-79-9.1-105.7l-81.1-68.2c-31.7-26.7-79-22.6-105.7,9.1l-32.1,38.1l195.9,164.8L793.5,235z"/>
<polygon points="736.5,302.1 540.6,137.3 474.2,216.3 670.1,381.1 "/>
<path d="M37.7,920.9c-0.5,6.8,5.8,12.1,12.4,10.4l49.5-12.5l-58.2-49L37.7,920.9z"/>
<path d="M274.3,850.7L642,413.9L446.1,249.1L78.4,685.8c-6.8,8.1-10.9,18.1-11.6,28.6l-8.7,120.8l72.8,61.3L248.2,867
	C258.4,864.4,267.5,858.7,274.3,850.7z"/>
</svg>
