<?xml version="1.0" encoding="utf-8"?>
<!-- Generator: Adobe Illustrator 17.1.0, SVG Export Plug-In . SVG Version: 6.00 Build 0)  -->
<!DOCTYPE svg PUBLIC "-//W3C//DTD SVG 1.1//EN" "http://www.w3.org/Graphics/SVG/1.1/DTD/svg11.dtd">
<svg version="1.1" id="Capa_1" xmlns="http://www.w3.org/2000/svg" xmlns:xlink="http://www.w3.org/1999/xlink" x="0px" y="0px"
	 width="1000px" height="1000px" viewBox="0 0 1000 1000" enable-background="new 0 0 1000 1000" xml:space="preserve">
<path d="M60.4,234.2c46.6,134,144.7,286.2,282.9,424.4c138.2,138.2,290.4,236.3,424.4,282.9c18.2,6.3,38.3,1.8,52-11.8l92.7-92.7
	l21.6-21.6c19.5-19.5,19.5-51.2,0-70.7L790.5,601.3c-19.5-19.5-51.2-19.5-70.7,0l-38.9,38.9c-20.2,20.2-52.4,22.2-75,4.6
	C561.2,610,516.9,570.9,474,528c-42.9-42.9-82-87.2-116.8-131.9c-17.6-22.6-15.6-54.7,4.6-75l38.9-38.9c19.5-19.5,19.5-51.2,0-70.7
	L257.2,68c-19.5-19.5-51.2-19.5-70.7,0l-21.6,21.6l-92.7,92.7C58.6,195.9,54.1,216,60.4,234.2z"/>
</svg>
