<?xml version="1.0" encoding="utf-8"?>
<!-- Generator: Adobe Illustrator 17.1.0, SVG Export Plug-In . SVG Version: 6.00 Build 0)  -->
<!DOCTYPE svg PUBLIC "-//W3C//DTD SVG 1.1//EN" "http://www.w3.org/Graphics/SVG/1.1/DTD/svg11.dtd">
<svg version="1.1" id="Layer_1" xmlns="http://www.w3.org/2000/svg" xmlns:xlink="http://www.w3.org/1999/xlink" x="0px" y="0px"
	 width="1000px" height="1000px" viewBox="0 0 1000 1000" enable-background="new 0 0 1000 1000" xml:space="preserve">
<g>
	<path d="M940,134.1c-39.6-27.7-162-95.8-298.1,4.9c-44.4-14.1-92.1-21.8-141.9-21.8s-97.5,7.7-141.9,21.8
		C222,38.3,99.6,106.3,60,134.1c-8.2,5.7-12.2,15.8-10.2,25.6l46.2,221.8C82.9,418.2,75.8,457.4,75.8,498
		c0,96.2,39.7,184.1,105.3,251.1c14.6,16.3,86.7,98.8,124.5,176.8c8.4,17.3,25.8,28.4,45.1,28.4h50.4c27.6,0,50-22.4,50-50v-27.9
		c16,1.7,32.4,2.5,48.9,2.5s32.8-0.9,48.9-2.5v27.9c0,27.6,22.4,50,50,50h50.4c19.2,0,36.7-11.1,45.1-28.4
		c37.7-77.9,109.9-160.4,124.5-176.8c65.5-67,105.3-154.9,105.3-251.1c0-40.6-7.1-79.8-20.2-116.5l46.2-221.8
		C952.2,149.9,948.2,139.8,940,134.1z M322.4,385.1v-59.4c0-13.8,11.2-25,25-25h2.7c13.8,0,25,11.2,25,25v59.4c0,13.8-11.2,25-25,25
		h-2.7C333.6,410.1,322.4,399,322.4,385.1z M500,714.8c-93.9,0-170-58.9-170-131.6c0-72.7,76.1-131.6,170-131.6s170,58.9,170,131.6
		C670,655.9,593.9,714.8,500,714.8z M679.9,385.1c0,13.8-11.2,25-25,25h-2.7c-13.8,0-25-11.2-25-25v-59.4c0-13.8,11.2-25,25-25h2.7
		c13.8,0,25,11.2,25,25V385.1z"/>
	<ellipse cx="432.7" cy="583.2" rx="33.4" ry="36.1"/>
	<ellipse cx="567.3" cy="583.2" rx="33.4" ry="36.1"/>
</g>
</svg>
