<?xml version="1.0" encoding="utf-8"?>
<!-- Generator: Adobe Illustrator 17.1.0, SVG Export Plug-In . SVG Version: 6.00 Build 0)  -->
<!DOCTYPE svg PUBLIC "-//W3C//DTD SVG 1.1//EN" "http://www.w3.org/Graphics/SVG/1.1/DTD/svg11.dtd">
<svg version="1.1" id="Capa_1" xmlns="http://www.w3.org/2000/svg" xmlns:xlink="http://www.w3.org/1999/xlink" x="0px" y="0px"
	 width="1000px" height="1000px" viewBox="0 0 1000 1000" enable-background="new 0 0 1000 1000" xml:space="preserve">
<path d="M304,789.5l-94.1-94.1L59,846.2l-8.3,69c-2.3,19.3,14.1,35.7,33.4,33.4l69-8.3L304,789.5z"/>
<path d="M556.8,22.8c-15.8,0-31.5,7.5-41.3,21.8c-37.7,55.5-55.6,120.3-53.9,184.7L287.1,403.9c-2.9-0.1-5.7-0.1-8.6-0.1
	c-61.6,0-123.2,18-176.2,54c-25.9,17.6-29.3,54.5-7.2,76.7L233,672.3l94.1,94.1l134.8,134.8c9.9,9.9,22.6,14.7,35.4,14.7
	c15.8,0,31.5-7.5,41.3-21.8c37.7-55.5,55.6-120.3,53.9-184.7l174.5-174.5c2.9,0.1,5.7,0.1,8.6,0.1c61.6,0,123.2-18,176.2-54
	c25.9-17.6,29.3-54.5,7.2-76.7L592.1,37.4C582.3,27.6,569.5,22.8,556.8,22.8z"/>
</svg>
