<?xml version="1.0" encoding="utf-8"?>
<!-- Generator: Adobe Illustrator 17.1.0, SVG Export Plug-In . SVG Version: 6.00 Build 0)  -->
<!DOCTYPE svg PUBLIC "-//W3C//DTD SVG 1.1//EN" "http://www.w3.org/Graphics/SVG/1.1/DTD/svg11.dtd">
<svg version="1.1" id="Layer_1" xmlns="http://www.w3.org/2000/svg" xmlns:xlink="http://www.w3.org/1999/xlink" x="0px" y="0px"
	 width="1000px" height="1000px" viewBox="0 0 1000 1000" enable-background="new 0 0 1000 1000" xml:space="preserve">
<g>
	<path d="M890.4,178.3l-371.5-151c-12.1-4.9-25.6-4.9-37.7,0l-371.5,151c-18.8,7.7-31.2,26-31.2,46.3v314c0,6.6,1.3,13.2,3.9,19.3
		c21.2,51,132.8,289.4,399.5,392.1c11.7,4.5,24.6,4.5,36.3,0c266.8-102.7,378.3-341.1,399.5-392.1c2.5-6.1,3.9-12.6,3.9-19.3v-314
		C921.6,204.3,909.2,186,890.4,178.3z M636,649.4H364.4c-12,0-23.1-6.6-28.9-17.1c-5.8-10.6-5.4-23.4,1.1-33.6
		c23-36.1,39-75.8,50.3-113.4H363c-18.2,0-33-14.8-33-33s14.8-33,33-33h39.6c1.5-8.2,2.8-16,3.9-23.3c9.1-61,7.8-106.1,7.7-106.6
		c-0.3-8.9,3-17.6,9.3-24.1s14.8-10.1,23.7-10.1h168.4c18.2,0,33,14.8,33,33v60c0,18.2-14.8,33-33,33s-33-14.8-33-33v-27H479.9
		c-0.8,20.7-2.9,49.6-7.8,83c-0.8,5.1-1.6,10.1-2.4,15.1h56.2c18.2,0,33,14.8,33,33s-14.8,33-33,33h-70.4
		c-9.4,35.2-21.2,68-35.4,98.1H636c18.2,0,33,14.8,33,33S654.2,649.4,636,649.4z"/>
</g>
</svg>
