<?xml version="1.0" encoding="utf-8"?>
<!-- Generator: Adobe Illustrator 17.1.0, SVG Export Plug-In . SVG Version: 6.00 Build 0)  -->
<!DOCTYPE svg PUBLIC "-//W3C//DTD SVG 1.1//EN" "http://www.w3.org/Graphics/SVG/1.1/DTD/svg11.dtd">
<svg version="1.1" id="Layer_1" xmlns="http://www.w3.org/2000/svg" xmlns:xlink="http://www.w3.org/1999/xlink" x="0px" y="0px"
	 width="1000px" height="1000px" viewBox="0 0 1000 1000" enable-background="new 0 0 1000 1000" xml:space="preserve">
<g>
	<path d="M100.7,159.1c0,27.6,22.4,50,50,50h521.4c27.6,0,50-22.4,50-50v-27.6c0-27.6-22.4-50-50-50H150.7c-27.6,0-50,22.4-50,50
		V159.1z"/>
	<path d="M20.8,310.6v27.6c0,27.6,22.4,50,50,50h521.4c27.6,0,50-22.4,50-50v-27.6c0-27.6-22.4-50-50-50H70.8
		C43.2,260.6,20.8,282.9,20.8,310.6z"/>
	<path d="M20.8,513.9c0,27.6,22.4,50,50,50h353c15.1-32.2,35.6-61.4,60.9-86.7c15.5-15.5,32.4-29.1,50.5-40.8H70.8
		c-27.6,0-50,22.4-50,50V513.9z"/>
	<path d="M150.7,612.1c-27.6,0-50,22.4-50,50v27.6c0,27.6,22.4,50,50,50h247.4c-2.2-14.9-3.3-30.1-3.3-45.4
		c0-28.1,3.7-55.6,11.1-82.2H150.7z"/>
	<path d="M20.8,868.6c0,27.6,22.4,50,50,50h421.4c-2.5-2.4-5.1-4.8-7.6-7.3c-28.2-28.2-50.3-61-65.8-97.6c-3.2-7.5-6-15.1-8.6-22.7
		H70.8c-27.6,0-50,22.4-50,50V868.6z"/>
	<path d="M701.8,417.2c-36.2,0-70.8,7-102.5,19.6c-61,24.3-111.3,69.6-142,127.1c-8.2,15.3-14.9,31.4-20.2,48.2
		c-8.1,26-12.4,53.6-12.4,82.2c0,15.5,1.3,30.6,3.7,45.4c2.9,17.8,7.5,35,13.7,51.4c19.2,51.5,53.4,95.8,97.1,127.6
		c45.6,33.1,101.8,52.7,162.5,52.7c153,0,277-124,277-277S854.8,417.2,701.8,417.2z M795.2,827.4H640.4h-37c-9.1,0-17.5-5-21.9-13
		c-4-7.3-4.1-16.1-0.3-23.4c0.4-0.7,0.7-1.4,1.1-2c10-15.8,18.2-32.5,24.9-49.4c3.7-9.4,7-18.9,9.9-28.4h-10.6
		c-13.8,0-25-11.2-25-25s11.2-25,25-25h22.6c3.3-18.3,5.3-35.2,6.5-49.2c2-24.6,1.6-40.7,1.6-41.1c-0.2-6.8,2.3-13.4,7-18.2
		c4.7-4.9,11.2-7.6,18-7.6h119.3c13.8,0,25,11.2,25,25v40.3c0,13.8-11.2,25-25,25s-25-11.2-25-25v-15.3h-69.6
		c-0.2,5.6-0.6,11.9-1.1,18.9c-1.1,13.6-2.8,29.7-5.7,47.3h41.2c0.3,0,0.7,0,1,0c13.3,0.5,24,11.5,24,25c0,13.8-11.2,25-25,25h-3.9
		h-48.1c-2.5,9.3-5.4,18.8-8.7,28.4c-4.3,12.6-9.3,25.3-15.1,37.8h149.8c13.8,0,25,11.2,25,25S809,827.4,795.2,827.4z"/>
</g>
</svg>
