<?xml version="1.0" encoding="utf-8"?>
<!-- Generator: Adobe Illustrator 17.1.0, SVG Export Plug-In . SVG Version: 6.00 Build 0)  -->
<!DOCTYPE svg PUBLIC "-//W3C//DTD SVG 1.1//EN" "http://www.w3.org/Graphics/SVG/1.1/DTD/svg11.dtd">
<svg version="1.1" id="Layer_1" xmlns="http://www.w3.org/2000/svg" xmlns:xlink="http://www.w3.org/1999/xlink" x="0px" y="0px"
	 width="1000px" height="1000px" viewBox="0 0 1000 1000" enable-background="new 0 0 1000 1000" xml:space="preserve">
<g>
	<path d="M848.2,326.4l1.9-1.9l-7.6-8c-9.7-10.2-26-10.3-35.9-0.3l-30.1,30.5c-9.4,9.6-9.6,24.9-0.4,34.7l22.7,24.1
		c24,22.9,34.4,44.4,36.7,63.5l21.1,21.1c2.8,2.8,5.2,5.8,7.2,8.9c1.3-2.9,2.6-6.1,3.7-9.4c4.1-12.6,5-25.5,2.8-38.2
		c-3-16.9-11.6-34.2-25.7-51.3c-8.7-10.6-13.1-24-12.3-37.6C832.8,348.8,838.5,336,848.2,326.4z"/>
	<path d="M928.9,326c-4.9-5.8-11.9-8.7-18.9-8.7c-6.4,0-12.8,2.4-17.7,7.3l-21.6,21.6l-1.4,1.4c-9.1,9.1-9.9,23.5-1.7,33.4
		c76.3,92.9-0.6,166-0.6,166L734.9,679.2l-16-16l116.4-116.4c9.8-9.8,9.8-25.6,0-35.4l-5.2-5.2L809.9,486
		c-4.9-4.9-11.3-7.3-17.7-7.3s-12.8,2.4-17.7,7.3l-55.7,55.7c-3.2,3.2-7.3,5.5-11.7,6.6c-27.7,6.8-134.9,39.5-172.5,147
		c-0.9,2.7-1.4,5.5-1.4,8.4v111.4c2.9-0.5,5.8-0.7,8.8-0.7h176c3.2,0,6.4,0.3,9.4,0.8l0-10.8c0.1-14.4,7-27.9,18.7-36.3l45.7-32.9
		c30.7-22.1,59.6-46.7,86.4-73.5l60-60C938.2,601.7,1055.8,473.6,928.9,326z"/>
	<path d="M125.9,450.1c-2.4,12.5-1.8,25.2,1.9,37.6c1.2,4.1,2.7,7.9,4.3,11.4c2.1-3.2,4.5-6.1,7.2-8.9l21.1-21.1
		c2.3-19.1,12.6-40.6,36.7-63.5l22.7-24.1c9.2-9.8,9-25.1-0.4-34.7l-30.1-30.5c-9.9-10-26.1-9.9-35.9,0.3l-7.6,8l1.9,1.9
		c9.6,9.6,15.3,22.4,16.1,36c0.7,13.7-3.7,27.1-12.3,37.6C137.7,416.8,129.1,433.7,125.9,450.1z"/>
	<path d="M117.6,661.7c26.8,26.8,55.7,51.4,86.4,73.5l45.7,32.9c11.7,8.4,18.7,21.9,18.7,36.3l0,10.4c2.4-0.3,4.8-0.5,7.3-0.5h176
		c3.7,0,7.4,0.4,10.9,1.1V703.7c0-2.8-0.5-5.7-1.4-8.4c-37.6-107.5-144.8-140.2-172.5-147c-4.4-1.1-8.5-3.4-11.7-6.6L221.3,486
		c-4.9-4.9-11.3-7.3-17.7-7.3c-6.4,0-12.8,2.4-17.7,7.3l-20.2,20.2l-5.2,5.2c-9.8,9.8-9.8,25.6,0,35.4l116.4,116.4l-16,16
		L128.8,547.1c0,0-76.9-73.1-0.6-166c8.1-9.9,7.3-24.4-1.7-33.4l-1.4-1.4l-21.6-21.6c-4.9-4.9-11.3-7.3-17.7-7.3
		c-7,0-14,2.9-18.9,8.7C-60,473.6,57.6,601.7,57.6,601.7L117.6,661.7z"/>
	<path d="M727.6,272.3c0-126.3-102.4-228.7-228.7-228.7S270.2,146,270.2,272.3c0,126.3,102.4,228.7,228.7,228.7
		S727.6,398.6,727.6,272.3z M388.2,378.5c-4-7.2-3.7-16,0.7-22.9c14-22,24-46.1,31.1-69.6h-13.9c-12.4,0-22.5-10.1-22.5-22.5
		s10.1-22.5,22.5-22.5h24.7c8.2-45.2,7.2-80.2,7.2-80.9c-0.2-6.1,2.1-12,6.3-16.4c4.2-4.4,10.1-6.9,16.2-6.9h106.9
		c12.4,0,22.5,10.1,22.5,22.5v39.4c0,12.4-10.1,22.5-22.5,22.5S545,211.2,545,198.8v-16.9h-62.2c-0.6,14.7-2.2,35.4-6.1,59.1h35.7
		c12.4,0,22.5,10.1,22.5,22.5S524.8,286,512.4,286h-45.4c-5.2,19.4-12.1,39.5-21.3,59.1h136.7c12.4,0,22.5,10.1,22.5,22.5
		s-10.1,22.5-22.5,22.5H407.9C399.7,390.2,392.1,385.7,388.2,378.5z"/>
	<path d="M542,954.4h176c13.8,0,25-11.2,25-25v-50.9v-9.2c0-4.7-1.3-9.1-3.6-12.9c-2.9-4.7-7.3-8.5-12.5-10.5
		c-2.8-1.1-5.8-1.7-8.9-1.7H542c-3,0-5.8,0.5-8.4,1.5c-5.3,1.9-9.7,5.5-12.7,10.1c-2.5,3.9-3.9,8.5-3.9,13.4v8.6v51.5
		C517,943.2,528.1,954.4,542,954.4z"/>
	<path d="M462.2,846.7c-3.2-1.5-6.7-2.3-10.4-2.3h-176c-2.4,0-4.7,0.3-6.9,1c-5.3,1.5-9.9,4.8-13.1,9.1c-3.1,4.2-4.9,9.3-4.9,14.9
		v6.6v53.4c0,13.8,11.2,25,25,25h176c13.8,0,25-11.2,25-25v-49.2v-10.9c0-4-1-7.9-2.7-11.2C471.5,853.1,467.3,849,462.2,846.7z"/>
</g>
</svg>
