<?xml version="1.0" encoding="utf-8"?>
<!-- Generator: Adobe Illustrator 17.1.0, SVG Export Plug-In . SVG Version: 6.00 Build 0)  -->
<!DOCTYPE svg PUBLIC "-//W3C//DTD SVG 1.1//EN" "http://www.w3.org/Graphics/SVG/1.1/DTD/svg11.dtd">
<svg version="1.1" id="Layer_1" xmlns="http://www.w3.org/2000/svg" xmlns:xlink="http://www.w3.org/1999/xlink" x="0px" y="0px"
	 width="1000px" height="1000px" viewBox="0 0 1000 1000" enable-background="new 0 0 1000 1000" xml:space="preserve">
<g>
	<path d="M788.5,20.7H226.7c-27.6,0-50,22.4-50,50v848c0,27.6,22.4,50,50,50h561.7c27.6,0,50-22.4,50-50v-848
		C838.5,43.1,816.1,20.7,788.5,20.7z M585.6,886.9c0,13.8-11.2,25-25,25h-106c-13.8,0-25-11.2-25-25v-10.8c0-13.8,11.2-25,25-25h106
		c13.8,0,25,11.2,25,25V886.9z M752.5,798.2H262.7V161.3h489.9V798.2z"/>
	<path d="M339.7,663.4c6.1,11.2,17.9,18.1,30.7,18.1h268.9c19.3,0,35-15.7,35-35s-15.7-35-35-35h-210c13.6-29.2,25-60.8,34.1-94.8
		h65.4c19.3,0,35-15.7,35-35s-15.7-35-35-35h-50.4c0.7-4.3,1.4-8.6,2-13c4.8-32.7,6.9-61.1,7.8-81.8h99.7v35.3c0,19.3,15.7,35,35,35
		s35-15.7,35-35v-70.3c0-19.3-15.7-35-35-35H453.7c-9.5,0-18.6,3.9-25.2,10.7s-10.1,16-9.8,25.5c0,0.4,1.4,45.7-7.8,106.8
		c-1,6.9-2.2,14.2-3.6,21.8h-36.3c-19.3,0-35,15.7-35,35s15.7,35,35,35h19.4c-11.2,36.9-27.1,75.7-49.6,111
		C334,638.5,333.5,652.2,339.7,663.4z"/>
</g>
</svg>
