<?xml version="1.0" encoding="utf-8"?>
<!-- Generator: Adobe Illustrator 17.1.0, SVG Export Plug-In . SVG Version: 6.00 Build 0)  -->
<!DOCTYPE svg PUBLIC "-//W3C//DTD SVG 1.1//EN" "http://www.w3.org/Graphics/SVG/1.1/DTD/svg11.dtd">
<svg version="1.1" id="Layer_1" xmlns="http://www.w3.org/2000/svg" xmlns:xlink="http://www.w3.org/1999/xlink" x="0px" y="0px"
	 width="1000px" height="1000px" viewBox="0 0 1000 1000" enable-background="new 0 0 1000 1000" xml:space="preserve">
<g>
	<path d="M327.1,664.6c6.1,11.2,17.9,18.1,30.7,18.1h275.1c19.3,0,35-15.7,35-35s-15.7-35-35-35H416.7c14-29.9,25.7-62.3,35-97.2
		H525c19.3,0,35-15.7,35-35s-15.7-35-35-35h-58.3c0.8-4.6,1.5-9.1,2.2-13.8c4.9-33.4,7.1-62.3,7.9-83.4h102.1v28.5
		c0,19.3,15.7,35,35,35s35-15.7,35-35v-63.5c0-19.3-15.7-35-35-35H442.3c-9.5,0-18.6,3.9-25.2,10.7c-6.6,6.8-10.1,16-9.8,25.5
		c0,0.5,1.4,46.4-7.9,108.4c-1.1,7.1-2.3,14.7-3.8,22.5h-35.5c-19.3,0-35,15.7-35,35s15.7,35,35,35h18.6
		c-11.4,37.6-27.6,77.3-50.5,113.4C321.4,639.7,320.9,653.4,327.1,664.6z"/>
	<path d="M69.5,325.5c-19.3-1.5-32.9,18.4-24.5,35.8l69.2,142.8c8.3,17.1,31.9,19.1,42.9,3.5l92-129.9c11.2-15.8,0.9-37.8-18.4-39.4
		l-25-2c17.7-37.2,42.6-70.8,73.5-99c44-40.1,98.6-67.4,158-79c85.3-16.6,172,0.2,244.4,47.3c60.2,39.2,104.4,95.6,127.3,161.4
		c8.1,23.2,32,36.9,56.1,32.2l1-0.2c29.5-5.8,47.2-36.3,37.2-64.7c-12.2-34.6-29-67.4-50.2-97.9C822,192.1,783,154.3,737,124.4
		c-46-30-96.6-50.6-150.5-61.5c-55.8-11.2-112.7-11.4-169-0.4C340,77.7,268.6,113.4,211,165.9c-49.3,44.9-86.9,100.5-110,162.1
		L69.5,325.5z"/>
	<path d="M191.2,633.1c-8.1-23.2-32-36.9-56.1-32.2l-1,0.2c-29.5,5.8-47.2,36.3-37.2,64.7c12.2,34.6,29,67.4,50.2,97.9
		C178,808.1,217,845.8,263,875.8c46,30,96.6,50.6,150.5,61.5c28.2,5.7,56.7,8.5,85.2,8.5c27.9,0,55.9-2.7,83.8-8.2
		c77.5-15.1,149-50.9,206.6-103.3c49.3-44.9,86.9-100.5,109.9-162.1l31.5,2.5c19.3,1.5,32.9-18.4,24.5-35.8l-69.2-142.8
		c-8.3-17.1-31.9-19.1-42.9-3.5l-92,129.9c-11.2,15.8-0.9,37.8,18.4,39.4l25,2c-17.7,37.2-42.6,70.8-73.5,99
		c-44,40.1-98.6,67.4-158,79c-85.3,16.6-172-0.2-244.4-47.3C258.3,755.3,214.1,698.9,191.2,633.1z"/>
</g>
</svg>
