<?xml version="1.0" encoding="utf-8"?>
<!-- Generator: Adobe Illustrator 17.1.0, SVG Export Plug-In . SVG Version: 6.00 Build 0)  -->
<!DOCTYPE svg PUBLIC "-//W3C//DTD SVG 1.1//EN" "http://www.w3.org/Graphics/SVG/1.1/DTD/svg11.dtd">
<svg version="1.1" id="Layer_1" xmlns="http://www.w3.org/2000/svg" xmlns:xlink="http://www.w3.org/1999/xlink" x="0px" y="0px"
	 width="1000px" height="1000px" viewBox="0 0 1000 1000" enable-background="new 0 0 1000 1000" xml:space="preserve">
<g>
	<path d="M681.7,39.2H312c-21.8,0-36.3,22.5-27.4,42.3l89.2,197.9h241.3l93.6-197.4C718.3,62.2,703.7,39.2,681.7,39.2z"/>
	<path d="M941.4,892.2V773.1c0-49.5-17.5-97.5-49.5-135.4L615.2,309.5H497.4H373.9L101.7,638.1c-31.2,37.7-48.3,85.1-48.3,134v120.2
		c0,27.6,22.4,50,50,50h394h394C919,942.2,941.4,919.8,941.4,892.2z M590,805.5H375.7c-10,0-19.3-5.5-24.1-14.3
		c-4.8-8.8-4.5-19.5,0.9-28c18.1-28.4,30.9-59.6,40.1-90h-15.2c-15.2,0-27.5-12.3-27.5-27.5s12.3-27.5,27.5-27.5h28.4
		c10.6-57.9,9.3-103,9.3-103.8c-0.3-7.4,2.5-14.7,7.7-20.1c5.2-5.4,12.3-8.4,19.8-8.4h135.8c15.2,0,27.5,12.3,27.5,27.5v53.3
		c0,15.2-12.3,27.5-27.5,27.5s-27.5-12.3-27.5-27.5v-25.8h-81.1c-0.8,19-2.8,46.1-8,77.3h40.8c15.2,0,27.5,12.3,27.5,27.5
		s-12.3,27.5-27.5,27.5h-52.7c-6.8,25.3-15.8,51.6-27.9,77.3h168c15.2,0,27.5,12.3,27.5,27.5S605.1,805.5,590,805.5z"/>
</g>
</svg>
