<?xml version="1.0" encoding="utf-8"?>
<!-- Generator: Adobe Illustrator 17.1.0, SVG Export Plug-In . SVG Version: 6.00 Build 0)  -->
<!DOCTYPE svg PUBLIC "-//W3C//DTD SVG 1.1//EN" "http://www.w3.org/Graphics/SVG/1.1/DTD/svg11.dtd">
<svg version="1.1" id="Layer_1" xmlns="http://www.w3.org/2000/svg" xmlns:xlink="http://www.w3.org/1999/xlink" x="0px" y="0px"
	 width="1000px" height="1000px" viewBox="0 0 1000 1000" enable-background="new 0 0 1000 1000" xml:space="preserve">
<g>
	<path d="M660,117.3H344c-19.3,0-35,15.7-35,35v110h70v-75h246v75h70v-110C695,133,679.3,117.3,660,117.3z"/>
	<path d="M956,806.3v-464c0-27.6-22.4-50-50-50H695h-70H379h-70H98c-27.6,0-50,22.4-50,50v464c0,27.6,22.4,50,50,50h808
		C933.6,856.3,956,833.9,956,806.3z M615.3,719.3c-5,6.7-13,11-22,11H381.1c-10,0-19.3-5.5-24.1-14.3c-4.8-8.8-4.5-19.5,0.9-28
		c8-12.7,15-25.9,21.2-39.3c7.6-16.8,13.9-33.9,19-50.7h-13.3c-1.9,0-3.8-0.2-5.7-0.6c-12.5-2.6-21.8-13.7-21.8-26.9
		s9.4-24.3,21.8-26.9c1.8-0.4,3.7-0.6,5.7-0.6h26.5c10.6-58,9.3-103,9.2-103.8c-0.3-7.5,2.5-14.7,7.7-20.1s12.3-8.4,19.8-8.4h135.8
		c15.2,0,27.5,12.3,27.5,27.5v51.3c0,15.2-12.3,27.5-27.5,27.5s-27.5-12.3-27.5-27.5v-23.8h-81.1c-0.8,19-2.8,46.1-8,77.3h47.8
		c15.2,0,27.5,12.3,27.5,27.5s-12.3,27.5-27.5,27.5h-59.6c-6.8,25.3-15.8,51.6-27.9,77.3h166c15.2,0,27.5,12.3,27.5,27.5
		C620.8,709,618.8,714.7,615.3,719.3z"/>
</g>
</svg>
