<?xml version="1.0" encoding="utf-8"?>
<!-- Generator: Adobe Illustrator 17.1.0, SVG Export Plug-In . SVG Version: 6.00 Build 0)  -->
<!DOCTYPE svg PUBLIC "-//W3C//DTD SVG 1.1//EN" "http://www.w3.org/Graphics/SVG/1.1/DTD/svg11.dtd">
<svg version="1.1" id="Layer_1" xmlns="http://www.w3.org/2000/svg" xmlns:xlink="http://www.w3.org/1999/xlink" x="0px" y="0px"
	 width="1000px" height="1000px" viewBox="0 0 1000 1000" enable-background="new 0 0 1000 1000" xml:space="preserve">
<g>
	<path d="M923.6,341.3l-86.7-104.2c-14-16.8-39.8-16.8-53.8,0l-86.7,104.2c-13.5,16.3-2,41,19.2,41h188.8
		C925.6,382.3,937.2,357.6,923.6,341.3z"/>
	<path d="M904.4,590.7H715.6c-21.2,0-32.8,24.7-19.2,41l86.7,104.2c14,16.8,39.8,16.8,53.8,0l86.7-104.2
		C937.2,615.4,925.6,590.7,904.4,590.7z"/>
	<path d="M57.2,487.6c0,34.5,28,62.5,62.5,62.5h37c-1.3,4.3-2.6,8.5-4,12.7c-21.4,66.3-48.6,125.8-81.1,176.9
		c-12.2,19.2-13,43.6-2,63.6s32,32.4,54.8,32.4h470.8c34.5,0,62.5-28,62.5-62.5s-28-62.5-62.5-62.5h-366
		c16.2-35,30.5-72.2,43.1-111.3c5.2-16.1,10-32.6,14.5-49.3h128.2c34.5,0,62.5-28,62.5-62.5s-28-62.5-62.5-62.5H313.7
		c1.1-6.8,2.2-13.6,3.2-20.4c8.3-55.8,11.9-104.3,13.5-140.2h169.1v41.4c0,34.5,28,62.5,62.5,62.5s62.5-28,62.5-62.5V202
		c0-34.5-28-62.5-62.5-62.5H268.8c-17,0-33.2,6.9-45,19.1c-11.8,12.2-18.1,28.6-17.5,45.6c0,0.8,2.4,79.1-13.5,184.8
		c-1.8,12.2-3.8,24.2-6,36.1h-67.2C85.2,425.1,57.2,453,57.2,487.6z"/>
</g>
</svg>
