<?xml version="1.0" encoding="utf-8"?>
<!-- Generator: Adobe Illustrator 17.1.0, SVG Export Plug-In . SVG Version: 6.00 Build 0)  -->
<!DOCTYPE svg PUBLIC "-//W3C//DTD SVG 1.1//EN" "http://www.w3.org/Graphics/SVG/1.1/DTD/svg11.dtd">
<svg version="1.1" id="Layer_1" xmlns="http://www.w3.org/2000/svg" xmlns:xlink="http://www.w3.org/1999/xlink" x="0px" y="0px"
	 width="1000px" height="1000px" viewBox="0 0 1000 1000" enable-background="new 0 0 1000 1000" xml:space="preserve">
<g>
	<path d="M941,440.6h-19v267.1c0,44.1-35.9,80-80,80H208v19c0,27.6,22.4,50,50,50h683c27.6,0,50-22.4,50-50V490.6
		C991,463,968.6,440.6,941,440.6z"/>
	<path d="M842,757.7c27.6,0,50-22.4,50-50V440.6v-49c0-27.6-22.4-50-50-50h-19v99v168.1c0,44.1-35.9,80-80,80H208h-99v19
		c0,27.6,22.4,50,50,50h49H842z"/>
	<path d="M10,292.6v316.1c0,27.6,22.4,50,50,50h19h15h15h99h535c27.6,0,50-22.4,50-50V440.6v-99v-15v-15v-19c0-27.6-22.4-50-50-50
		H60C32.4,242.6,10,265,10,292.6z M296.4,472.1c-12.4,0-22.5-10.1-22.5-22.5c0-3.2,0.7-6.2,1.9-9c3.5-7.9,11.4-13.5,20.6-13.5h28.1
		c7.1-37.8,8.5-69.8,8.8-85.5c0.1-6.5,0-10.2,0-10.4c-0.1-1.6,0.1-3.1,0.3-4.6c0.8-4.4,2.8-8.5,6-11.8c1.2-1.2,2.5-2.3,3.9-3.2
		c3.6-2.4,7.9-3.7,12.3-3.7h122.4c4.6,0,8.8,1.4,12.3,3.7c5.1,3.4,8.8,8.7,9.8,15c0.2,1.2,0.3,2.5,0.3,3.8v11.2v31.6
		c0,12.4-10.1,22.5-22.5,22.5s-22.5-10.1-22.5-22.5v-20.3h-77.5c-0.6,17.6-2.5,43.8-7.7,74.2h42.5c9.2,0,17.2,5.6,20.6,13.5
		c1.2,2.8,1.9,5.8,1.9,9c0,12.4-10.1,22.5-22.5,22.5h-52.2c-6.4,24.2-15.1,49.5-27,74.2h162c12.4,0,22.5,10.1,22.5,22.5
		s-10.1,22.5-22.5,22.5H295.6c-8.2,0-15.8-4.5-19.7-11.7c-4-7.2-3.7-16,0.7-22.9c17-26.7,28.9-56.1,37.3-84.6H296.4z"/>
</g>
</svg>
