<?xml version="1.0" encoding="utf-8"?>
<!-- Generator: Adobe Illustrator 17.1.0, SVG Export Plug-In . SVG Version: 6.00 Build 0)  -->
<!DOCTYPE svg PUBLIC "-//W3C//DTD SVG 1.1//EN" "http://www.w3.org/Graphics/SVG/1.1/DTD/svg11.dtd">
<svg version="1.1" id="Layer_1" xmlns="http://www.w3.org/2000/svg" xmlns:xlink="http://www.w3.org/1999/xlink" x="0px" y="0px"
	 width="1000px" height="1000px" viewBox="0 0 1000 1000" enable-background="new 0 0 1000 1000" xml:space="preserve">
<g>
	<path d="M966,615.2V155.4c0-27.6-22.4-50-50-50H84c-27.6,0-50,22.4-50,50v459.8c0,27.6,22.4,50,50,50h285.1h261.9H916
		C943.6,665.2,966,642.8,966,615.2z M616.1,572.7c-1.5,0.2-3,0.3-4.5,0.3H383.8h-26.3c-10.9,0-21-6-26.3-15.6
		c-5.3-9.6-4.9-21.3,1-30.5c21.8-34.4,37.2-72.1,48.1-108.7H363c-16.6,0-30-13.4-30-30s13.4-30,30-30h31.5
		c12.8-68.9,11.2-122.7,11.2-123.7c-0.3-8.1,2.7-16,8.4-21.9s13.4-9.2,21.6-9.2h158.9c16.6,0,30,13.4,30,30v57.4
		c0,16.6-13.4,30-30,30s-30-13.4-30-30v-27.4h-99.2c-0.7,19.6-2.7,47.2-7.4,79.3c-0.8,5.2-1.6,10.4-2.5,15.5H516
		c16.6,0,30,13.4,30,30s-13.4,30-30,30h-73.4c-9,34.1-20.5,65.8-34.3,94.8h203.3c16.6,0,30,13.4,30,30
		C641.6,558.1,630.5,570.5,616.1,572.7z"/>
	<path d="M685,888.5c13.8,0,25-11.2,25-25v-2c0-13.8-11.2-25-25-25h-26.6l-22.6-141.3H364.3l-22.6,141.3H315c-13.8,0-25,11.2-25,25
		v2c0,13.8,11.2,25,25,25H685z"/>
</g>
</svg>
