<?xml version="1.0" encoding="utf-8"?>
<!-- Generator: Adobe Illustrator 17.1.0, SVG Export Plug-In . SVG Version: 6.00 Build 0)  -->
<!DOCTYPE svg PUBLIC "-//W3C//DTD SVG 1.1//EN" "http://www.w3.org/Graphics/SVG/1.1/DTD/svg11.dtd">
<svg version="1.1" id="Capa_1" xmlns="http://www.w3.org/2000/svg" xmlns:xlink="http://www.w3.org/1999/xlink" x="0px" y="0px"
	 width="1000px" height="1000px" viewBox="0 0 1000 1000" enable-background="new 0 0 1000 1000" xml:space="preserve">
<path d="M205,135v158h52V85h-2C227.4,85,205,107.4,205,135z"/>
<path d="M743,85v208h52V135c0-27.6-22.4-50-50-50H743z"/>
<path d="M337,33c-27.6,0-50,22.4-50,50v2v208h426V85v-2c0-27.6-22.4-50-50-50H337z"/>
<path d="M101.5,775h160.6V662.4h-41.5c-9.1,0-16.4-7.4-16.4-16.4s7.4-16.4,16.4-16.4h558.8c9.1,0,16.4,7.4,16.4,16.4
	s-7.4,16.4-16.4,16.4h-41.5V775h160.6c27.6,0,50-22.4,50-50V373c0-27.6-22.4-50-50-50H795h-52h-15h-15H287h-15h-15h-52H101.5
	c-27.6,0-50,22.4-50,50v352C51.5,752.6,73.9,775,101.5,775z M673.7,419.7c0-13.8,11.2-25,25-25H713h15h15h51.4c0.2,0,0.4,0,0.6,0
	c13.5,0.3,24.4,11.4,24.4,25v18c0,13.8-11.2,25-25,25h-18.1H743h-15h-29.3c-7.2,0-13.8-3.1-18.3-8c-4.1-4.5-6.7-10.4-6.7-17V419.7z"
	/>
<path d="M663,948c27.6,0,50-22.4,50-50v-93v-15v-15V662.4H287V775v15v15v93c0,27.6,22.4,50,50,50H663z M411.6,718.5h176.9
	c9.1,0,16.4,7.4,16.4,16.4s-7.4,16.4-16.4,16.4H411.6c-9.1,0-16.4-7.4-16.4-16.4S402.5,718.5,411.6,718.5z M411.6,798.7h176.9
	c5.3,0,9.9,2.5,13,6.3c2.2,2.8,3.5,6.3,3.5,10.1c0,9.1-7.4,16.4-16.4,16.4H411.6c-9.1,0-16.4-7.4-16.4-16.4c0-3.8,1.3-7.3,3.5-10.1
	C401.6,801.1,406.3,798.7,411.6,798.7z"/>
</svg>
