<?xml version="1.0" encoding="utf-8"?>
<!-- Generator: Adobe Illustrator 17.1.0, SVG Export Plug-In . SVG Version: 6.00 Build 0)  -->
<!DOCTYPE svg PUBLIC "-//W3C//DTD SVG 1.1//EN" "http://www.w3.org/Graphics/SVG/1.1/DTD/svg11.dtd">
<svg version="1.1" id="Layer_1" xmlns="http://www.w3.org/2000/svg" xmlns:xlink="http://www.w3.org/1999/xlink" x="0px" y="0px"
	 width="1000px" height="1000px" viewBox="0 0 1000 1000" enable-background="new 0 0 1000 1000" xml:space="preserve">
<g>
	<path d="M745.4,293.2h2.5c36.9,0,71.2,11.1,99.8,30.1v-95.8H31.2v290c0,27.6,22.4,50,50,50h416.3c1.1-38.7,29.8-70.6,67.1-76.6V474
		C564.6,374.3,645.7,293.2,745.4,293.2z M260,492.5c0,13.3-10.7,24-24,24H106.2c-13.3,0-24-10.7-24-24v-2.1c0-13.3,10.7-24,24-24
		H236c13.3,0,24,10.7,24,24V492.5z"/>
	<path d="M797.8,62.2H81.2c-27.6,0-50,22.4-50,50v32.2h816.6v-32.2C847.8,84.6,825.4,62.2,797.8,62.2z"/>
	<path d="M847.8,489.8h52.3V474c0-45.7-20.3-86.7-52.3-114.6c-26.7-23.3-61.7-37.4-99.8-37.4h-2.5c-83.9,0-152.1,68.2-152.1,152.1
		v15.8h52.3V474c0-55,44.7-99.7,99.7-99.7h2.5c55,0,99.7,44.7,99.7,99.7L847.8,489.8L847.8,489.8z"/>
	<path d="M928.8,521.5c-4.1-1.1-8.4-1.7-12.8-1.7h-1.5h-14.4h-52.3h0h-14.4H819H674.4h-14.4h-14.4h-52.3H579h-1.5
		c-4.4,0-8.7,0.6-12.8,1.7c-20.7,5.5-36.1,23.8-37.1,46c0,0.8-0.1,1.6-0.1,2.4v288.3c0,27.6,22.4,50,50,50H916c27.6,0,50-22.4,50-50
		V569.8C966,546.6,950.2,527.1,928.8,521.5z M809.3,683.6c-2.8,22.1-16.9,40.6-36.4,49.5v73.4c0,8.8-7.2,16-16,16h-20.3
		c-8.8,0-16-7.2-16-16v-73.4c-19.5-8.9-33.7-27.4-36.4-49.5c-0.3-2.6-0.5-5.2-0.5-7.9c0-2.2,0.1-4.4,0.3-6.5c0.5-5,1.6-9.8,3.2-14.4
		c8.6-24.6,32-42.2,59.5-42.2s50.9,17.6,59.5,42.2c1.6,4.6,2.7,9.4,3.2,14.4c0.2,2.1,0.3,4.3,0.3,6.5
		C809.8,678.4,809.6,681,809.3,683.6z"/>
</g>
</svg>
