<?xml version="1.0" encoding="utf-8"?>
<!-- Generator: Adobe Illustrator 17.1.0, SVG Export Plug-In . SVG Version: 6.00 Build 0)  -->
<!DOCTYPE svg PUBLIC "-//W3C//DTD SVG 1.1//EN" "http://www.w3.org/Graphics/SVG/1.1/DTD/svg11.dtd">
<svg version="1.1" id="Capa_1" xmlns="http://www.w3.org/2000/svg" xmlns:xlink="http://www.w3.org/1999/xlink" x="0px" y="0px"
	 width="1000px" height="1000px" viewBox="0 0 1000 1000" enable-background="new 0 0 1000 1000" xml:space="preserve">
<path d="M60,510.6c28.3,65.2,72.1,129.2,130.1,190.4c74.9,79,173.4,152.7,292.6,219l0.3,0.2c11.8,6.6,26.2,6.6,38,0l0.3-0.2
	c62.9-35,120.1-72,171-110.8H571.6c-44.1,0-80-35.9-80-80v-33.4c0-44.1,35.9-80,80-80h312.6c24.4-34.5,44.4-69.7,59.8-105.2
	c20.8-40.4,32.2-84.3,33.8-130.3c0.3-5.9,0.3-10,0.2-11.8c-0.1-40.2-7.7-79.2-22.6-116c-14.5-35.7-35.3-67.7-61.7-95.2
	c-26.4-27.5-57.2-49.1-91.5-64.2C766.7,77.4,729,69.5,690.1,69.5c-69.2,0-135.9,25.8-188.1,72.8c-52.3-47-118.9-72.8-188.1-72.8
	c-38.9,0-76.6,7.9-112.1,23.6c-34.3,15.1-65.1,36.7-91.5,64.2c-26.4,27.5-47.2,59.5-61.7,95.2C33.6,289.3,26,328.3,25.9,368.4
	c-0.1,1.9-0.1,6,0.2,11.9C27.8,426.4,39.1,470.2,60,510.6z"/>
<path d="M945.5,729.2v-33.4c0-27.6-22.4-50-50-50h-33.7H571.6c-27.6,0-50,22.4-50,50v33.4c0,27.6,22.4,50,50,50H730h165.4
	C923.1,779.2,945.5,756.9,945.5,729.2z"/>
</svg>
