<?xml version="1.0" encoding="utf-8"?>
<!-- Generator: Adobe Illustrator 17.1.0, SVG Export Plug-In . SVG Version: 6.00 Build 0)  -->
<!DOCTYPE svg PUBLIC "-//W3C//DTD SVG 1.1//EN" "http://www.w3.org/Graphics/SVG/1.1/DTD/svg11.dtd">
<svg version="1.1" id="Layer_1" xmlns="http://www.w3.org/2000/svg" xmlns:xlink="http://www.w3.org/1999/xlink" x="0px" y="0px"
	 width="1000px" height="1000px" viewBox="0 0 1000 1000" enable-background="new 0 0 1000 1000" xml:space="preserve">
<g>
	<path d="M641.6,81.5v49.2l156.7,156.7V81.5c0-27.6-22.4-50-50-50h-56.7C664,31.5,641.6,53.9,641.6,81.5z"/>
	<path d="M90.7,501.1h111V924c0,27.6,22.4,50,50,50h496.7c27.6,0,50-22.4,50-50V501.1h111c22.3,0,33.4-26.9,17.7-42.7L798.4,329.8
		L641.6,173.1L535.4,66.8c-9.8-9.8-22.6-14.6-35.4-14.6s-25.6,4.9-35.4,14.6L73,458.5C57.3,474.2,68.4,501.1,90.7,501.1z M500,459.8
		c119.1,0,215.7,96.6,215.7,215.7S619.1,891.1,500,891.1s-215.7-96.6-215.7-215.7S380.9,459.8,500,459.8z"/>
	<path d="M422.6,700h53.1v62.1h-45.9c-13.8,0-25,11.2-25,25s11.2,25,25,25h45.9V844c0,13.8,11.2,25,25,25s25-11.2,25-25v-31.9h50.7
		c13.8,0,25-11.2,25-25V675c0-13.8-11.2-25-25-25h-50.7v-62.1h42.5c13.8,0,25-11.2,25-25s-11.2-25-25-25h-42.5V506
		c0-13.8-11.2-25-25-25s-25,11.2-25,25v31.9h-53.1c-13.8,0-25,11.2-25,25V675C397.6,688.8,408.8,700,422.6,700z M525.7,700h25.7
		v62.1h-25.7V700z M447.6,587.9h28.1V650h-28.1V587.9z"/>
</g>
</svg>
