<?xml version="1.0" encoding="utf-8"?>
<!-- Generator: Adobe Illustrator 17.1.0, SVG Export Plug-In . SVG Version: 6.00 Build 0)  -->
<!DOCTYPE svg PUBLIC "-//W3C//DTD SVG 1.1//EN" "http://www.w3.org/Graphics/SVG/1.1/DTD/svg11.dtd">
<svg version="1.1" id="Layer_1" xmlns="http://www.w3.org/2000/svg" xmlns:xlink="http://www.w3.org/1999/xlink" x="0px" y="0px"
	 width="1000px" height="1000px" viewBox="0 0 1000 1000" enable-background="new 0 0 1000 1000" xml:space="preserve">
<g>
	<path d="M725.8,772.6c0,6.3-1.1,12.4-3.2,18.1c8.6-2.3,18.4-5.9,28-11.5c33.8-19.3,53.1-54.2,57.4-104c1.2-13.7,7.4-26.5,17.6-35.8
		c10.2-9.4,23.4-14.5,37.2-14.5l0.3,0l7.4,0l0.2-26.7c0.1-13.9-11.1-25.2-25-25.2l-63.8,0c-13.7,0-24.9,11.1-25,24.8l-0.3,45.4
		c0.8,46.8-12.2,76.2-30.7,94.5L725.8,772.6z"/>
	<path d="M914.3,655.3l-43.8-0.3l-7.4,0c0,0-0.1,0-0.2,0c-13,0-23.8,9.9-24.9,22.9c-12.4,143.5-132.5,147.2-144.9,147.2
		c-0.7,0-1,0-1,0l-217.3-0.3c-6.6,0-12-5.4-12-12.1l0-3.8c0-6.6,5.4-11.9,12-11.9c0,0,0,0,0,0l195.9,0.3c0,0,0,0,0,0
		c13.7,0,24.9-11.1,25-24.9l0.1-14.8l0.2-40.8c0.1-13.8-11-25.1-24.9-25.1l-97.1-0.6c-8.8-0.1-17.5-2.4-25.1-6.9
		c-24.3-14.3-86.8-46.2-162.8-46.2c-36.3,0-75.7,7.3-115.5,27.2l-33.7,0.2c1,4.1,1.5,8.4,1.5,12.9l0.2,214.9c0,3.9-0.4,7.7-1.2,11.4
		l108.4,0c13.9,0,27.7,1.3,41.3,3.9l53.4,10.1c60.5,11.5,121.9,17.4,183.5,17.8l81.4,0.5c0,0,217.2-10.2,233.3-254.9
		C940,667.6,928.7,655.4,914.3,655.3z"/>
	<path d="M205.2,665.5c-3.7-6.2-9.9-10.6-17.3-11.9c-1.4-0.2-2.8-0.4-4.3-0.4c0,0,0,0,0,0l-10.7,0l-47.3,0c-13.8,0-25,11.2-25,25
		l0.2,214.9c0,13.8,11.2,25,25,25c0,0,0,0,0,0l48,0l10,0c1.7,0,3.4-0.2,5-0.5c7.5-1.5,13.8-6.5,17.2-13.2c1.7-3.4,2.7-7.3,2.7-11.4
		l-0.2-214.9C208.7,673.6,207.4,669.2,205.2,665.5z"/>
	<path d="M692.3,238V83.2c0-16.6-13.4-30-30-30h-36.5c-16.6,0-30,13.4-30,30v58.3l-70.6-70.6c-9.8-9.8-25.6-9.8-35.4,0L252.3,308.4
		c-12.6,12.6-3.7,34.1,14.1,34.1h32.3c13.8,0,25,11.2,25,25v193.5c0,13.8,11.2,25,25,25H402c13.8,0,25-11.2,25-25V475
		c0-13.8,11.2-25,25-25h111c13.8,0,25,11.2,25,25v86.1c0,13.8,11.2,25,25,25h53.3c13.8,0,25-11.2,25-25V367.6c0-13.8,11.2-25,25-25
		h32.3c17.8,0,26.7-21.5,14.1-34.1L692.3,238z"/>
</g>
</svg>
