<?xml version="1.0" encoding="utf-8"?>
<!-- Generator: Adobe Illustrator 17.1.0, SVG Export Plug-In . SVG Version: 6.00 Build 0)  -->
<!DOCTYPE svg PUBLIC "-//W3C//DTD SVG 1.1//EN" "http://www.w3.org/Graphics/SVG/1.1/DTD/svg11.dtd">
<svg version="1.1" id="Layer_1" xmlns="http://www.w3.org/2000/svg" xmlns:xlink="http://www.w3.org/1999/xlink" x="0px" y="0px"
	 width="1000px" height="1000px" viewBox="0 0 1000 1000" enable-background="new 0 0 1000 1000" xml:space="preserve">
<g>
	<path d="M231.6,229.9l-56,56l70.6,70.6l81.6-65.7L267,229.9C257.2,220.2,241.4,220.2,231.6,229.9z"/>
	<path d="M771.7,229.9c-9.8-9.8-25.6-9.8-35.4,0L674,292.3l79.8,64.2l72.3-72.3L771.7,229.9z"/>
	<path d="M936.8,226.1c-6.1,0-12.4,2.3-17.5,7.4l-72,72l-91.3,91.3l-103.3-83.1l-137-110.3c-4.6-3.7-10.1-5.5-15.7-5.5
		s-11.1,1.8-15.7,5.5L349.2,312.2l-105.1,84.6l-89.7-89.7l-73.7-73.7c-5.1-5.1-11.4-7.4-17.5-7.4c-12.9,0-25.2,10-25.2,25v362.3
		c0,82.8,206.8,149.9,462,149.9s462-67.1,462-149.9V251.1C962,236.1,949.6,226.1,936.8,226.1z M158.7,565.4l-17.4,34.2
		c-3.7,7.3-14.1,7.3-17.8,0L106,565.4c-1.4-2.8-1.4-6.2,0-9.1l17.4-34.2c3.7-7.3,14.1-7.3,17.8,0l17.4,34.2
		C160.1,559.2,160.1,562.5,158.7,565.4z M564.4,608.7l-56.2,80.9c-4,5.7-12.4,5.7-16.4,0l-56.2-80.9c-2.4-3.4-2.4-8,0-11.4
		l56.2-80.9c4-5.7,12.4-5.7,16.4,0l56.2,80.9C566.8,600.7,566.8,605.2,564.4,608.7z M895.8,565.4l-17.4,34.2
		c-3.7,7.3-14.1,7.3-17.8,0l-17.4-34.2c-1.4-2.8-1.4-6.2,0-9.1l17.4-34.2c3.7-7.3,14.1-7.3,17.8,0l17.4,34.2
		C897.3,559.2,897.3,562.5,895.8,565.4z"/>
	<path d="M605,800.6c-33.7,2.5-68.9,3.9-105,3.9s-71.3-1.3-105-3.9c-172.6-12.9-308.6-57-348.6-112.9c-3.6-5-6.4-10-8.4-15.2v7.2
		v86.8c0,82.8,206.8,149.9,462,149.9s462-67.1,462-149.9v-86.8v-7.2c-2,5.1-4.8,10.2-8.4,15.2C913.6,743.7,777.6,787.7,605,800.6z"
		/>
</g>
</svg>
