<?xml version="1.0" encoding="utf-8"?>
<!-- Generator: Adobe Illustrator 17.1.0, SVG Export Plug-In . SVG Version: 6.00 Build 0)  -->
<!DOCTYPE svg PUBLIC "-//W3C//DTD SVG 1.1//EN" "http://www.w3.org/Graphics/SVG/1.1/DTD/svg11.dtd">
<svg version="1.1" id="Capa_1" xmlns="http://www.w3.org/2000/svg" xmlns:xlink="http://www.w3.org/1999/xlink" x="0px" y="0px"
	 width="1000px" height="1000px" viewBox="0 0 1000 1000" enable-background="new 0 0 1000 1000" xml:space="preserve">
<path d="M228.6,939.6c19.5,19.5,51.2,19.5,70.7,0l644.9-644.9c19.5-19.5,19.5-51.2,0-70.7L784,63.7c-19.5-19.5-51.2-19.5-70.7,0
	l-5.2,5.2l79.4,79.4c7.3,7.3,7.3,19.2,0,26.5c-3.7,3.7-8.5,5.5-13.3,5.5s-9.6-1.8-13.3-5.5l-79.4-79.4l-28.7,28.7l35.7,35.7
	c7.3,7.3,7.3,19.2,0,26.5c-3.7,3.7-8.5,5.5-13.3,5.5s-9.6-1.8-13.3-5.5l-35.7-35.7l-28.7,28.7l35.7,35.7c7.3,7.3,7.3,19.2,0,26.5
	c-3.7,3.7-8.5,5.5-13.3,5.5c-4.8,0-9.6-1.8-13.3-5.5L571,206l-28.7,28.7l35.7,35.7c7.3,7.3,7.3,19.2,0,26.5
	c-3.7,3.7-8.5,5.5-13.3,5.5s-9.6-1.8-13.3-5.5l-35.7-35.7L487,290l35.7,35.7c7.3,7.3,7.3,19.2,0,26.5c-3.7,3.7-8.5,5.5-13.3,5.5
	s-9.6-1.8-13.3-5.5l-35.7-35.7l-28.7,28.7l35.7,35.7c7.3,7.3,7.3,19.2,0,26.5c-3.7,3.7-8.5,5.5-13.3,5.5c-4.8,0-9.6-1.8-13.3-5.5
	l-35.7-35.7l-27,27l79.4,79.4c8.3,8.3,8.3,21.7,0,30c-4.1,4.1-9.6,6.2-15,6.2s-10.9-2.1-15-6.2l-79.4-79.4l-27,27l35.7,35.7
	c7.3,7.3,7.3,19.2,0,26.5c-3.7,3.7-8.5,5.5-13.3,5.5c-4.8,0-9.6-1.8-13.3-5.5l-35.7-35.7l-28.7,28.7l35.7,35.7
	c7.3,7.3,7.3,19.2,0,26.5c-3.7,3.7-8.5,5.5-13.3,5.5s-9.6-1.8-13.3-5.5l-35.7-35.7l-28.7,28.7l35.7,35.7c7.3,7.3,7.3,19.2,0,26.5
	c-3.7,3.7-8.5,5.5-13.3,5.5s-9.6-1.8-13.3-5.5l-35.7-35.7l-28.7,28.7l35.7,35.7c7.3,7.3,7.3,19.2,0,26.5c-3.7,3.7-8.5,5.5-13.3,5.5
	c-4.8,0-9.6-1.8-13.3-5.5l-35.7-35.7l-27,27l79.4,79.4c8.3,8.3,8.3,21.7,0,30c-4.1,4.1-9.6,6.2-15,6.2s-10.9-2.1-15-6.2l-79.4-79.4
	l-3.4,3.4c-19.5,19.5-19.5,51.2,0,70.7L228.6,939.6z"/>
</svg>
