<?xml version="1.0" encoding="utf-8"?>
<!-- Generator: Adobe Illustrator 17.1.0, SVG Export Plug-In . SVG Version: 6.00 Build 0)  -->
<!DOCTYPE svg PUBLIC "-//W3C//DTD SVG 1.1//EN" "http://www.w3.org/Graphics/SVG/1.1/DTD/svg11.dtd">
<svg version="1.1" id="Layer_1" xmlns="http://www.w3.org/2000/svg" xmlns:xlink="http://www.w3.org/1999/xlink" x="0px" y="0px"
	 width="1000px" height="1000px" viewBox="0 0 1000 1000" enable-background="new 0 0 1000 1000" xml:space="preserve">
<g>
	<path d="M544.8,708c0,57.7,22.5,112,63.3,152.8c40.8,40.8,95.1,63.3,152.8,63.3s112-22.5,152.8-63.3C954.6,820,977,765.8,977,708
		c0-34.9-8.5-69.5-24.6-100.2L805.1,305.3h24.7c13.8,0,25-11.2,25-25v-41.7c0-13.8-11.2-25-25-25H641.7
		c-4.6-41.4-66.3-74.2-141.8-74.2s-137.2,32.8-141.8,74.2H170c-13.8,0-25,11.2-25,25v41.7c0,13.8,11.2,25,25,25h31.6L54.3,607.8
		C38.2,638.5,29.7,673.2,29.7,708c0,57.7,22.5,112,63.3,152.8c40.8,40.8,95.1,63.3,152.8,63.3s112-22.5,152.8-63.3
		C439.5,820,462,765.8,462,708c0-34.9-8.5-69.5-24.6-100.2L290,305.3h426.8L569.4,607.8C553.3,638.5,544.8,673.2,544.8,708z
		 M383.6,634.5l0.4,0.9c11.9,22.6,17.9,47,17.9,72.7H89.7c0-25.7,6-50.1,17.9-72.7l0.2-0.4l138-283.2L383.6,634.5z M622.7,635.4
		l0.2-0.4l138-283.2l137.8,282.8l0.4,0.9c11.9,22.6,17.9,47,17.9,72.7H604.8C604.8,682.4,610.8,657.9,622.7,635.4z"/>
</g>
</svg>
