<?xml version="1.0" encoding="utf-8"?>
<!-- Generator: Adobe Illustrator 17.1.0, SVG Export Plug-In . SVG Version: 6.00 Build 0)  -->
<!DOCTYPE svg PUBLIC "-//W3C//DTD SVG 1.1//EN" "http://www.w3.org/Graphics/SVG/1.1/DTD/svg11.dtd">
<svg version="1.1" id="Capa_1" xmlns="http://www.w3.org/2000/svg" xmlns:xlink="http://www.w3.org/1999/xlink" x="0px" y="0px"
	 width="1000px" height="1000px" viewBox="0 0 1000 1000" enable-background="new 0 0 1000 1000" xml:space="preserve">
<path d="M856.9,321.8c76.5-62.4,88-175,25.6-251.5l-1.1-1.4L521.8,374l137.8,116.9L856.9,321.8z"/>
<path d="M337.5,530.4L270.7,587c-5.7-1.9-11.6-3.5-17.6-4.8c-6.4-1.4-12.9-2.4-19.5-3.1c-6-0.6-12.1-0.9-18.3-0.9
	c-98.4,0-178.4,80-178.4,178.4c0,98.4,80,178.4,178.4,178.4c97.8,0,177.4-79.1,178.4-176.6c0-0.6,0-1.2,0-1.7
	c0-5.8-0.3-11.6-0.8-17.3c-0.6-5.9-1.4-11.8-2.6-17.5l85.2-73L337.5,530.4z M179.7,659.5c5.1-1.9,10.3-3.3,15.8-4.4
	c5.8-1.1,11.7-1.8,17.8-1.9c0.7,0,1.4,0,2,0c57,0,103.4,46.4,103.4,103.4c0,7.8-0.9,15.5-2.5,22.8c-1.3,5.9-3.2,11.6-5.5,17
	c-2.1,5.1-4.6,9.9-7.5,14.5c-18.3,29.4-50.8,49-87.9,49c-57,0-103.4-46.4-103.4-103.4C111.9,712,140.2,674,179.7,659.5z"/>
<path d="M781.8,578.2c-6.2,0-12.3,0.3-18.3,0.9c-6.6,0.7-13.1,1.7-19.5,3.1c-6,1.3-11.8,2.9-17.6,4.8l-610.6-518l-1.1,1.4
	c-62.4,76.5-50.9,189.1,25.6,251.5l466.6,399.8c-1.1,5.8-2,11.6-2.6,17.5c-0.6,5.7-0.8,11.5-0.8,17.3c0,0.6,0,1.2,0,1.7
	c0.9,97.6,80.6,176.6,178.4,176.6c98.4,0,178.4-80,178.4-178.4C960.2,658.2,880.2,578.2,781.8,578.2z M694,810.9
	c-2.9-4.6-5.4-9.5-7.5-14.5c-2.3-5.5-4.1-11.2-5.5-17c-1.7-7.3-2.5-15-2.5-22.8c0-57,46.4-103.4,103.4-103.4c0.7,0,1.4,0,2,0
	c6.1,0.1,12,0.8,17.8,1.9c5.4,1.1,10.7,2.5,15.8,4.4c39.5,14.5,67.8,52.6,67.8,97.1c0,57-46.4,103.4-103.4,103.4
	C744.8,859.9,712.2,840.3,694,810.9z"/>
</svg>
