<?xml version="1.0" encoding="utf-8"?>
<!-- Generator: Adobe Illustrator 17.1.0, SVG Export Plug-In . SVG Version: 6.00 Build 0)  -->
<!DOCTYPE svg PUBLIC "-//W3C//DTD SVG 1.1//EN" "http://www.w3.org/Graphics/SVG/1.1/DTD/svg11.dtd">
<svg version="1.1" id="Capa_1" xmlns="http://www.w3.org/2000/svg" xmlns:xlink="http://www.w3.org/1999/xlink" x="0px" y="0px"
	 width="1000px" height="1000px" viewBox="0 0 1000 1000" enable-background="new 0 0 1000 1000" xml:space="preserve">
<path d="M589.8,587.4c9.9-48.7,25.2-124.3,25.3-124.4c28.9-33.9,46.7-173.9,46.7-225.3c0-103.6-72.4-187.5-161.8-187.5
	s-161.8,84-161.8,187.5c0,51.4,17.8,191.4,46.7,225.3c0,0,15.4,75.7,25.3,124.4H589.8z"/>
<path d="M133.5,843.3c-0.7,0-1.4,0-2.1-0.1v37.9c0,27.6,22.4,50,50,50h637.2c27.6,0,50-22.4,50-50v-37.9c-0.7,0-1.4,0.1-2.1,0.1
	H133.5z"/>
<path d="M883.8,806c5.6-2.1,10.7-5.1,15.2-8.9c10.7-9.2,17.5-22.8,17.5-38v-87.4c0-27.6-22.4-50-50-50H582.9H417.1H133.5
	c-27.6,0-50,22.4-50,50v87.4c0,15.2,6.8,28.8,17.5,38c4.5,3.8,9.6,6.8,15.2,8.9c4.8,1.8,9.9,2.8,15.2,3c0.7,0,1.4,0.1,2.1,0.1h732.9
	c0.7,0,1.4,0,2.1-0.1C873.9,808.8,879,807.7,883.8,806z"/>
</svg>
