<?xml version="1.0" encoding="utf-8"?>
<!-- Generator: Adobe Illustrator 17.1.0, SVG Export Plug-In . SVG Version: 6.00 Build 0)  -->
<!DOCTYPE svg PUBLIC "-//W3C//DTD SVG 1.1//EN" "http://www.w3.org/Graphics/SVG/1.1/DTD/svg11.dtd">
<svg version="1.1" id="Capa_1" xmlns="http://www.w3.org/2000/svg" xmlns:xlink="http://www.w3.org/1999/xlink" x="0px" y="0px"
	 width="1000px" height="1000px" viewBox="0 0 1000 1000" enable-background="new 0 0 1000 1000" xml:space="preserve">
<path d="M923.8,353.9l-355.3-0.4c0,0,20.6-84.3,24.3-123.8c2.5-27,3.1-53.9-3.1-80.5c-9.2-40-19.5-65-35.9-96
	C545,36.8,528,26.6,509.5,26.6h-68.8c-27.7,0-50.1,22.5-50,50.2c0.2,46.3,0.2,108.1-0.8,110.2c-27,56.8-58.3,111.3-93.6,163.3
	c-16.1,23.8-33,46.9-52.6,68c-8.6,9.2-13.3,21.4-13.3,33.9v437.2c0,12.9,5,25.4,14,34.7c13.4,13.8,37.4,30.2,76.8,30.2
	c124.3-0.5,325.7-1.6,468.9-0.6c17.9,0.1,34.5-9.3,43.5-24.8l126.3-216.2c8.6-15,13.1-32,13.2-49.3l0.7-259.3
	C973.8,376.4,951.4,354,923.8,353.9z"/>
<path d="M119.3,425.3H74.5c-27.6,0-50,22.4-50,50v429c0,27.6,22.4,50,50,50h44.7c27.6,0,50-22.4,50-50v-429
	C169.3,447.7,146.9,425.3,119.3,425.3z"/>
</svg>
