<?xml version="1.0" encoding="utf-8"?>
<!-- Generator: Adobe Illustrator 17.1.0, SVG Export Plug-In . SVG Version: 6.00 Build 0)  -->
<!DOCTYPE svg PUBLIC "-//W3C//DTD SVG 1.1//EN" "http://www.w3.org/Graphics/SVG/1.1/DTD/svg11.dtd">
<svg version="1.1" id="Layer_1" xmlns="http://www.w3.org/2000/svg" xmlns:xlink="http://www.w3.org/1999/xlink" x="0px" y="0px"
	 width="1000px" height="1000px" viewBox="0 0 1000 1000" enable-background="new 0 0 1000 1000" xml:space="preserve">
<g>
	<path d="M33.7,112.2v32.2h816.6v-32.2c0-27.6-22.4-50-50-50H83.7C56.1,62.2,33.7,84.6,33.7,112.2z"/>
	<path d="M33.7,517.4c0,27.6,22.4,50,50,50H500c0.8-29.7,25.1-53.6,55-53.6h46v-15.8c0-38.5-31.3-69.7-69.7-69.7h-2.5
		c-33,0-61.7,23.4-68.3,55.7c-2.5,12.3-9.2,23.5-18.8,31.4c-9.8,8.1-22.2,12.6-34.9,12.6h-2.9c-16.4,0-31.9-7.3-42.3-20
		c-10.4-12.7-14.6-29.2-11.4-45.3c8-40.8,30.2-78,62.4-104.7c16-13.3,34-23.7,53.4-30.9c20.1-7.4,41.3-11.2,62.9-11.2h2.5
		c24.6,0,48.4,4.8,70.9,14.3c21.7,9.2,41.2,22.3,57.9,39s29.8,36.2,39,57.9c9.5,22.5,14.3,46.3,14.3,70.9v15.8h137V227.5H33.7V517.4
		z M84.7,490.4c0-13.3,10.7-24,24-24h129.8c13.3,0,24,10.7,24,24v2.1c0,13.3-10.7,24-24,24H108.7c-13.3,0-24-10.7-24-24V490.4z"/>
	<path d="M683.3,513.9v-15.8c0-84-68.1-152.1-152.1-152.1h-2.5c-73.8,0-135.5,52.8-149.2,122.6c-3,15.3,8.7,29.5,24.3,29.5h2.9
		c11.9,0,21.9-8.5,24.3-20.1c9.3-45.4,49.6-79.7,97.7-79.7h2.5c55.1,0,99.7,44.7,99.7,99.7v15.8H683.3z"/>
	<path d="M943.5,543.9h-93.2h-137h-15h-15H631h-15h-15h-46c-13.3,0-24.2,10.4-25,23.6c0,0.5,0,0.9,0,1.4v338.3c0,13.8,11.2,25,25,25
		h388.5c13.8,0,25-11.2,25-25V568.9C968.5,555,957.3,543.9,943.5,543.9z M775.4,757.2v73.4c0,8.8-7.2,16-16,16h-20.3
		c-8.8,0-16-7.2-16-16v-73.4c-10.8-4.9-19.9-12.7-26.4-22.5c-6.1-9.2-9.9-20-10.5-31.7c-0.1-1.1-0.1-2.2-0.1-3.2
		c0-13.9,4.5-26.8,12.2-37.3c4.2-5.7,9.2-10.6,15-14.6c10.2-7.1,22.6-11.2,35.9-11.2c34.8,0,63.1,28.2,63.1,63.1
		C812.3,725.3,797.2,747.2,775.4,757.2z"/>
</g>
</svg>
