<?xml version="1.0" encoding="utf-8"?>
<!-- Generator: Adobe Illustrator 17.1.0, SVG Export Plug-In . SVG Version: 6.00 Build 0)  -->
<!DOCTYPE svg PUBLIC "-//W3C//DTD SVG 1.1//EN" "http://www.w3.org/Graphics/SVG/1.1/DTD/svg11.dtd">
<svg version="1.1" id="Layer_1" xmlns="http://www.w3.org/2000/svg" xmlns:xlink="http://www.w3.org/1999/xlink" x="0px" y="0px"
	 width="1000px" height="1000px" viewBox="0 0 1000 1000" enable-background="new 0 0 1000 1000" xml:space="preserve">
<g>
	<path d="M65,289.8c22.1,0,40-17.9,40-40c0-84.1,68.4-152.4,152.4-152.4h3.9c84.1,0,152.4,68.4,152.4,152.4v39.9h80v-39.9
		c0-62.1-24.2-120.5-68.1-164.4c-43.9-43.9-102.3-68.1-164.4-68.1h-3.9c-62.1,0-120.5,24.2-164.4,68.1C49.1,129.3,25,187.7,25,249.8
		C25,271.9,42.9,289.8,65,289.8z"/>
	<path d="M927.3,319.7H493.7h-80H357c-27.6,0-50,22.4-50,50v554.4c0,27.6,22.4,50,50,50h570.3c27.6,0,50-22.4,50-50V369.7
		C977.3,342.1,954.9,319.7,927.3,319.7z M682.1,660.4V772c0,13.8-11.2,25-25,25h-30c-13.8,0-25-11.2-25-25V660.4
		c-33.3-15.2-56.4-48.8-56.4-87.8c0-53.3,43.2-96.4,96.4-96.4s96.4,43.2,96.4,96.4C738.6,611.7,715.4,645.2,682.1,660.4z"/>
</g>
</svg>
