<?xml version="1.0" encoding="utf-8"?>
<!-- Generator: Adobe Illustrator 17.1.0, SVG Export Plug-In . SVG Version: 6.00 Build 0)  -->
<!DOCTYPE svg PUBLIC "-//W3C//DTD SVG 1.1//EN" "http://www.w3.org/Graphics/SVG/1.1/DTD/svg11.dtd">
<svg version="1.1" id="Capa_1" xmlns="http://www.w3.org/2000/svg" xmlns:xlink="http://www.w3.org/1999/xlink" x="0px" y="0px"
	 width="1000px" height="1000px" viewBox="0 0 1000 1000" enable-background="new 0 0 1000 1000" xml:space="preserve">
<path d="M867.8,915.6c11.5,0,20.7-9.3,20.7-20.7V271.8c0-18.5-22.3-27.7-35.4-14.7L230,880.2c-13.1,13.1-3.8,35.4,14.7,35.4H867.8z"
	/>
<path d="M936.7,32.4l-152,40.7c-16,4.3-21.3,24.3-9.6,36l30.4,30.4L41.2,903.8c-15.7,15.7-15.7,41.3,0,57
	c7.9,7.9,18.2,11.8,28.5,11.8s20.6-3.9,28.5-11.8l764.3-764.3l30.4,30.4c11.7,11.7,31.7,6.3,36-9.6l40.7-152
	C975,45.3,956.7,27,936.7,32.4z"/>
</svg>
