<?xml version="1.0" encoding="utf-8"?>
<!-- Generator: Adobe Illustrator 17.1.0, SVG Export Plug-In . SVG Version: 6.00 Build 0)  -->
<!DOCTYPE svg PUBLIC "-//W3C//DTD SVG 1.1//EN" "http://www.w3.org/Graphics/SVG/1.1/DTD/svg11.dtd">
<svg version="1.1" id="Layer_1" xmlns="http://www.w3.org/2000/svg" xmlns:xlink="http://www.w3.org/1999/xlink" x="0px" y="0px"
	 width="1000px" height="1000px" viewBox="0 0 1000 1000" enable-background="new 0 0 1000 1000" xml:space="preserve">
<g>
	<path d="M137.3,902.3C142,933.6,164.4,956,192,956h616c27.6,0,50-22.4,50-50V90c0-27.6-22.4-50-50-50H192
		c-27.6,0-50,22.4-54.7,46.3V902.3z M751.8,790.2L689,853l0,0l-18.3,18.3c-9.8,9.7-25.6,9.7-35.3,0L617,853l0,0l-18-17
		c-9.8-9.8-9.8-25.6,0-35.4l0.6-0.6c9.8-9.8,25.6-9.8,35.4,0l18,17l62.8-62.8c9.8-9.8,25.6-9.8,35.4,0l0.6,0.6
		C761.6,764.6,761.6,780.4,751.8,790.2z M767.2,642.1c0,13.8-11.2,25-25,25h-70.6c-13.8,0-25-11.2-25-25v-0.9c0-13.8,11.2-25,25-25
		h70.6c13.8,0,25,11.2,25,25V642.1z M767.2,510c0,13.8-11.2,25-25,25h-70.6c-13.8,0-25-11.2-25-25v-0.9c0-13.8,11.2-25,25-25h70.6
		c13.8,0,25,11.2,25,25V510z M742.2,352c13.8,0,25,11.2,25,25v0.9c0,13.8-11.2,25-25,25h-70.6c-13.8,0-25-11.2-25-25V377
		c0-13.8,11.2-25,25-25H742.2z M342.3,196c0-13.8,11.2-25,25-25h265.4c13.8,0,25,11.2,25,25v0.9c0,13.8-11.2,25-25,25H367.3
		c-13.8,0-25-11.2-25-25V196z M232.8,377c0-13.8,11.2-25,25-25h265.4c13.8,0,25,11.2,25,25v0.9c0,13.8-11.2,25-25,25H257.8
		c-13.8,0-25-11.2-25-25V377z M232.8,509.1c0-13.8,11.2-25,25-25h265.4c13.8,0,25,11.2,25,25v0.9c0,13.8-11.2,25-25,25H257.8
		c-13.8,0-25-11.2-25-25V509.1z M232.8,641.2c0-13.8,11.2-25,25-25h265.4c13.8,0,25,11.2,25,25v0.9c0,13.8-11.2,25-25,25H257.8
		c-13.8,0-25-11.2-25-25V641.2z"/>
</g>
</svg>
