<?xml version="1.0" encoding="utf-8"?>
<!-- Generator: Adobe Illustrator 17.1.0, SVG Export Plug-In . SVG Version: 6.00 Build 0)  -->
<!DOCTYPE svg PUBLIC "-//W3C//DTD SVG 1.1//EN" "http://www.w3.org/Graphics/SVG/1.1/DTD/svg11.dtd">
<svg version="1.1" id="Layer_1" xmlns="http://www.w3.org/2000/svg" xmlns:xlink="http://www.w3.org/1999/xlink" x="0px" y="0px"
	 width="1000px" height="1000px" viewBox="0 0 1000 1000" enable-background="new 0 0 1000 1000" xml:space="preserve">
<g>
	<path d="M255.6,231.2l355-96.9l-18.8-38c-12.3-24.7-42.3-34.9-67-22.6L207,231.2H255.6z"/>
	<path d="M720.8,137.1c-4.4,0-8.8,0.6-13.2,1.8l-83.4,22.8l-254.7,69.5h289.1h126L769,174C763,151.7,742.8,137.1,720.8,137.1z"/>
	<path d="M836.7,266.2h-11.4h-15.5h-15.5H676H241.3h-57h-48h-8.9H97.6c-15.8,0-29.9,7.3-39.1,18.8c-4.2,5.3-7.4,11.4-9.2,18.1
		c-1.1,4.2-1.8,8.6-1.8,13.1v6v57v494.1c0,27.6,22.4,50,50,50h739.1c27.6,0,50-22.4,50-50V733.8H589.9c-46.9,0-85-38.1-85-85v-45.8
		v-15.5v-15.5v-34.4c0-23,9.2-43.9,24.1-59.2c13.2-13.6,30.9-22.8,50.7-25.1c3.3-0.4,6.7-0.6,10.1-0.6H845h15.5h15.5h10.6V316.2
		C886.7,288.6,864.3,266.2,836.7,266.2z"/>
	<path d="M921.7,500.5c-5-4.6-10.9-8.1-17.5-10.4c-5.1-1.7-10.5-2.7-16.2-2.7h-1.3h-1h-15.5h-55.9H589.9c-27.6,0-50,22.4-50,50v24.9
		v15.5v15.5v55.4c0,27.6,22.4,50,50,50h296.8h1.3c5.7,0,11.1-1,16.2-2.7c6.6-2.2,12.5-5.8,17.5-10.4c10-9.1,16.3-22.3,16.3-36.9
		V537.4C938,522.8,931.7,509.6,921.7,500.5z M694.3,603c0,13.8-11.2,25-25,25h-16.6c-13.8,0-25-11.2-25-25v-16.6
		c0-8,3.7-15.1,9.6-19.6c4.3-3.3,9.6-5.4,15.4-5.4h4.2h12.4c13.8,0,25,11.2,25,25V603z"/>
</g>
</svg>
