<?xml version="1.0" encoding="utf-8"?>
<!-- Generator: Adobe Illustrator 17.1.0, SVG Export Plug-In . SVG Version: 6.00 Build 0)  -->
<!DOCTYPE svg PUBLIC "-//W3C//DTD SVG 1.1//EN" "http://www.w3.org/Graphics/SVG/1.1/DTD/svg11.dtd">
<svg version="1.1" id="Capa_1" xmlns="http://www.w3.org/2000/svg" xmlns:xlink="http://www.w3.org/1999/xlink" x="0px" y="0px"
	 width="1000px" height="1000px" viewBox="0 0 1000 1000" enable-background="new 0 0 1000 1000" xml:space="preserve">
<g>
	<path d="M583.5,672.2l0,0.1c-3.8,10.4,1.5,21.9,11.8,25.7c2.3,0.8,4.6,1.2,6.9,1.2c8.1,0,15.8-5,18.8-13.1c0.1-0.3,0.2-0.5,0.3-0.8
		c3.6-10.4-1.8-21.8-12.3-25.5C598.5,656.3,587.1,661.8,583.5,672.2z"/>
	<path d="M501.6,707l-0.9,0c-11,0-20,9-20,20s9,20,20,20l1.2,0c11-0.1,19.9-9.1,19.9-20.1c-0.1-11-9-19.9-20-19.9
		C501.7,707,501.6,707,501.6,707z"/>
	<path d="M552.1,697.8l-0.8,0.3c-10.3,4-15.3,15.6-11.3,25.9c3.1,7.9,10.6,12.7,18.6,12.7c2.4,0,4.9-0.4,7.3-1.4l1.1-0.4
		c10.3-4.1,15.2-15.8,11.1-26C574,698.6,562.3,693.7,552.1,697.8z"/>
	<path d="M450,698.2c-10.3-4-21.9,1.1-25.9,11.4c-4,10.3,1.1,21.9,11.4,25.9c0.4,0.2,0.8,0.3,1.2,0.4c2.3,0.9,4.7,1.3,7.1,1.3
		c8.1,0,15.7-4.9,18.7-12.9c3.9-10.3-1.3-21.9-11.6-25.8L450,698.2z"/>
	<path d="M391.8,661.5c-10.3,4-15.3,15.6-11.3,25.9l0.3,0.7c3.2,7.8,10.6,12.5,18.5,12.5c2.5,0,5-0.5,7.5-1.5
		c10.2-4.1,15.2-15.8,11-26l-0.1-0.3C413.7,662.5,402.1,657.4,391.8,661.5z"/>
	<path d="M339,593.9c44.2,39.5,100.6,61.2,160.4,61.2c57.6,0,112.2-20.1,155.6-57c25.1,67.6,137,62.6,137,62.6V362.2
		C792,198.6,659.4,66,495.8,66h-3c-138,0-162.9,89.6-162.9,89.6C203.9,199,199.8,347.9,199.8,347.9V660
		C286,666.9,323.6,623.3,339,593.9z M499.4,605.1c-53.7,0-102.3-22.3-137-58.2c-33.2-34.3-53.7-81.1-53.7-132.5
		c0-17.4,2.4-34.3,6.8-50.3c27.2-16.1,66.4-45.1,83.8-86.4c0,0,30,34.9,87.9,68.3c12.1,7,25.5,13.9,40.1,20.4
		c43.6,19.5,98,35.4,162.8,38.8c0.1,3.1,0.2,6.2,0.2,9.3c0,51.4-20.4,98-53.5,132.4C601.9,582.7,553.2,605.1,499.4,605.1z"/>
	<path d="M805.5,751l-133.1-46.2c-21-7.3-44.3,0.2-57.2,18.3L501.1,884.2L387,723.1c-12.9-18.2-36.2-25.6-57.2-18.3L196.7,751
		c-19.7,6.8-32.9,25.4-32.9,46.3V904c0,27.6,22.4,50,50,50h286.8h1.1h286.8c27.6,0,50-22.4,50-50V797.3
		C838.5,776.5,825.3,757.9,805.5,751z"/>
</g>
</svg>
