<?xml version="1.0" encoding="utf-8"?>
<!-- Generator: Adobe Illustrator 17.1.0, SVG Export Plug-In . SVG Version: 6.00 Build 0)  -->
<!DOCTYPE svg PUBLIC "-//W3C//DTD SVG 1.1//EN" "http://www.w3.org/Graphics/SVG/1.1/DTD/svg11.dtd">
<svg version="1.1" id="Layer_1" xmlns="http://www.w3.org/2000/svg" xmlns:xlink="http://www.w3.org/1999/xlink" x="0px" y="0px"
	 width="1000px" height="1000px" viewBox="0 0 1000 1000" enable-background="new 0 0 1000 1000" xml:space="preserve">
<g>
	<path d="M908.3,755.4H91.7c-27.6,0-50,22.4-50,50v64.5c0,27.6,22.4,50,50,50h816.5c27.6,0,50-22.4,50-50v-64.5
		C958.3,777.8,935.9,755.4,908.3,755.4z M537.6,848.2c0,13.8-11.2,25-25,25h-25.2c-13.8,0-25-11.2-25-25V823c0-13.8,11.2-25,25-25
		h25.2c13.8,0,25,11.2,25,25V848.2z"/>
	<path d="M85.6,649.9c0,27.6,22.4,50,50,50h728.9c27.6,0,50-22.4,50-50v-67c0-93.7-49-175.9-122.8-222.4v-181c0-27.6-22.4-50-50-50
		H258.4c-27.6,0-50,22.4-50,50v181C134.6,407,85.6,489.2,85.6,582.8V649.9z M451.7,596c0,13.8-11.2,25-25,25h-25.2
		c-13.8,0-25-11.2-25-25v-25.2c0-13.8,11.2-25,25-25h25.2c13.8,0,25,11.2,25,25V596z M537.6,440.2V458c0,13.8-11.2,25-25,25h-25.2
		c-13.8,0-25-11.2-25-25v-17.8v-7.5c0-13.8,11.2-25,25-25h25.2c13.8,0,25,11.2,25,25V440.2z M618.6,596c0,13.8-11.2,25-25,25h-25.2
		c-13.8,0-25-11.2-25-25v-25.2c0-13.8,11.2-25,25-25h25.2c13.8,0,25,11.2,25,25V596z M704.6,440.2V458c0,13.8-11.2,25-25,25h-25.2
		c-13.8,0-25-11.2-25-25v-17.8v-7.5c0-13.8,11.2-25,25-25h25.2c13.8,0,25,11.2,25,25V440.2z M711.8,570.8c0-13.8,11.2-25,25-25h25.2
		c13.8,0,25,11.2,25,25V596c0,13.8-11.2,25-25,25h-25.2c-13.8,0-25-11.2-25-25V570.8z M295.4,233.1c0-13.8,11.2-25,25-25h359.2
		c13.8,0,25,11.2,25,25v58c0,13.8-11.2,25-25,25H320.4c-13.8,0-25-11.2-25-25V233.1z M295.4,440.2v-7.5c0-13.8,11.2-25,25-25h25.2
		c13.8,0,25,11.2,25,25v7.5V458c0,13.8-11.2,25-25,25h-25.2c-13.8,0-25-11.2-25-25V440.2z M209.4,570.8c0-13.8,11.2-25,25-25h25.2
		c13.8,0,25,11.2,25,25V596c0,13.8-11.2,25-25,25h-25.2c-13.8,0-25-11.2-25-25V570.8z"/>
</g>
</svg>
