<?xml version="1.0" encoding="utf-8"?>
<!-- Generator: Adobe Illustrator 17.1.0, SVG Export Plug-In . SVG Version: 6.00 Build 0)  -->
<!DOCTYPE svg PUBLIC "-//W3C//DTD SVG 1.1//EN" "http://www.w3.org/Graphics/SVG/1.1/DTD/svg11.dtd">
<svg version="1.1" id="Layer_1" xmlns="http://www.w3.org/2000/svg" xmlns:xlink="http://www.w3.org/1999/xlink" x="0px" y="0px"
	 width="1000px" height="1000px" viewBox="0 0 1000 1000" enable-background="new 0 0 1000 1000" xml:space="preserve">
<g>
	<path d="M923.7,341.9L837,237.6c-14-16.8-39.8-16.8-53.8,0l-86.7,104.2c-13.5,16.3-2,41,19.2,41h188.8
		C925.7,382.9,937.3,358.2,923.7,341.9z"/>
	<path d="M904.5,591.2H715.7c-21.2,0-32.8,24.7-19.2,41l86.7,104.2c14,16.8,39.8,16.8,53.8,0l86.7-104.2
		C937.3,615.9,925.7,591.2,904.5,591.2z"/>
	<path d="M235.1,477.3h-61.9c-34.5,0-62.5,28-62.5,62.5s28,62.5,62.5,62.5h107.1v43.2H173.2c-34.5,0-62.5,28-62.5,62.5
		s28,62.5,62.5,62.5h107.1v86.6c0,34.5,28,62.5,62.5,62.5s62.5-28,62.5-62.5v-86.6h107.1c34.5,0,62.5-28,62.5-62.5
		s-28-62.5-62.5-62.5H405.3v-43.2h107.1c34.5,0,62.5-28,62.5-62.5s-28-62.5-62.5-62.5h-61.9l185.4-290.8
		c18.6-29.1,10-67.7-19.1-86.3c-29.1-18.6-67.7-10-86.3,19.1L342.8,413.7L155,119.3c-18.6-29.1-57.2-37.7-86.3-19.1
		c-29.1,18.6-37.7,57.2-19.1,86.3L235.1,477.3z"/>
</g>
</svg>
