<?xml version="1.0" encoding="utf-8"?>
<!-- Generator: Adobe Illustrator 17.1.0, SVG Export Plug-In . SVG Version: 6.00 Build 0)  -->
<!DOCTYPE svg PUBLIC "-//W3C//DTD SVG 1.1//EN" "http://www.w3.org/Graphics/SVG/1.1/DTD/svg11.dtd">
<svg version="1.1" id="Layer_1" xmlns="http://www.w3.org/2000/svg" xmlns:xlink="http://www.w3.org/1999/xlink" x="0px" y="0px"
	 width="1000px" height="1000px" viewBox="0 0 1000 1000" enable-background="new 0 0 1000 1000" xml:space="preserve">
<g>
	<path d="M966.1,615.7V156c0-27.6-22.4-50-50-50h-832c-27.6,0-50,22.4-50,50v459.8c0,27.6,22.4,50,50,50h285.1h261.9h285.1
		C943.7,665.7,966.1,643.3,966.1,615.7z M651.9,216.3l-100,156.9h37.5c16.6,0,30,13.4,30,30s-13.4,30-30,30h-58.9v28.3h58.9
		c16.6,0,30,13.4,30,30s-13.4,30-30,30h-58.9v13.7v34.5c0,16.6-13.4,30-30,30s-30-13.4-30-30v-34.5v-13.7h-58.9
		c-16.6,0-30-13.4-30-30s13.4-30,30-30h58.9v-28.3h-58.9c-16.6,0-30-13.4-30-30s13.4-30,30-30h37.5l-100-156.9
		c-8.9-14-4.8-32.5,9.2-41.4c14-8.9,32.5-4.8,41.4,9.2l100.8,158.2L601.3,184c8.9-14,27.5-18.1,41.4-9.2
		C656.7,183.7,660.8,202.3,651.9,216.3z"/>
	<path d="M685.1,889c13.8,0,25-11.2,25-25v-2c0-13.8-11.2-25-25-25h-26.6l-22.6-141.3H364.4L341.7,837h-26.6c-13.8,0-25,11.2-25,25
		v2c0,13.8,11.2,25,25,25H685.1z"/>
</g>
</svg>
