<?xml version="1.0" encoding="utf-8"?>
<!-- Generator: Adobe Illustrator 17.1.0, SVG Export Plug-In . SVG Version: 6.00 Build 0)  -->
<!DOCTYPE svg PUBLIC "-//W3C//DTD SVG 1.1//EN" "http://www.w3.org/Graphics/SVG/1.1/DTD/svg11.dtd">
<svg version="1.1" id="Layer_1" xmlns="http://www.w3.org/2000/svg" xmlns:xlink="http://www.w3.org/1999/xlink" x="0px" y="0px"
	 width="1000px" height="1000px" viewBox="0 0 1000 1000" enable-background="new 0 0 1000 1000" xml:space="preserve">
<g>
	<path d="M847.7,324.4l1.9-1.9l-7.6-8c-9.7-10.2-26-10.3-35.9-0.3L776,344.8c-9.4,9.6-9.6,24.9-0.4,34.7l22.7,24.1
		c24,22.9,34.4,44.4,36.7,63.5l21.1,21.1c2.8,2.8,5.2,5.7,7.2,8.9c1.6-3.5,3.1-7.3,4.3-11.4c3.7-12.4,4.4-25.1,1.9-37.6
		c-3.2-16.5-11.8-33.3-25.5-50.1c-8.7-10.6-13.1-24-12.3-37.6C832.4,346.8,838.1,334,847.7,324.4z"/>
	<path d="M909.6,315.3c-6.4,0-12.8,2.4-17.7,7.3l-21.6,21.6l-1.4,1.4c-9.1,9.1-9.9,23.5-1.7,33.4c76.3,92.9-0.6,166-0.6,166
		L741.6,670.1c-2,2-4.5,2.9-7.1,2.9c-2.6,0-5.1-1-7.1-2.9l-1.9-1.9c-3.9-3.9-3.9-10.2,0-14.1l109.3-109.3c9.8-9.8,9.8-25.6,0-35.4
		l-5.2-5.2L809.5,484c-4.9-4.9-11.3-7.3-17.7-7.3c-6.4,0-12.8,2.4-17.7,7.3l-55.7,55.7c-3.2,3.2-7.3,5.5-11.7,6.6
		c-27.7,6.8-134.9,39.5-172.5,147c-0.9,2.7-1.4,5.5-1.4,8.4v111.4c2.9-0.5,5.8-0.7,8.8-0.7h176c3.2,0,6.4,0.3,9.4,0.8l0.1-15.8
		c0-11.2,5.5-21.7,14.5-28.3l59.4-42.7c24.4-17.6,47.3-37.1,68.6-58.3l68.3-68.3c0,0,117.6-128.1-9.3-275.8
		C923.6,318.2,916.6,315.3,909.6,315.3z"/>
	<path d="M125.5,448.1c-2.4,12.5-1.8,25.2,1.9,37.6c1.2,4.1,2.7,7.9,4.3,11.4c2.1-3.2,4.5-6.1,7.2-8.9l21.1-21.1
		c2.3-19.1,12.6-40.6,36.7-63.5l22.7-24.1c9.2-9.8,9-25.1-0.4-34.7l-30.1-30.5c-9.9-10-26.1-9.9-35.9,0.3l-7.6,8l1.9,1.9
		c9.6,9.6,15.3,22.4,16.1,36c0.7,13.7-3.7,27.1-12.3,37.6C137.2,414.8,128.7,431.7,125.5,448.1z"/>
	<path d="M194.1,726.3l59.4,42.7c9.1,6.5,14.5,17.1,14.5,28.3l0.1,15.5c2.4-0.3,4.8-0.5,7.3-0.5h176c3.7,0,7.4,0.4,10.9,1.1V701.7
		c0-2.8-0.5-5.7-1.4-8.4c-37.6-107.5-144.8-140.2-172.5-147c-4.4-1.1-8.5-3.4-11.7-6.6L220.9,484c-4.9-4.9-11.3-7.3-17.7-7.3
		c-6.4,0-12.8,2.4-17.7,7.3l-20.2,20.2l-5.2,5.2c-9.8,9.8-9.8,25.6,0,35.4l109.3,109.3c3.9,3.9,3.9,10.2,0,14.1l-1.9,1.9
		c-2,2-4.5,2.9-7.1,2.9s-5.1-1-7.1-2.9L128.4,545.1c0,0-76.9-73.1-0.6-166c8.1-9.9,7.3-24.4-1.7-33.4l-1.4-1.4l-21.6-21.6
		c-4.9-4.9-11.3-7.3-17.7-7.3c-7,0-14,2.9-18.9,8.7c-126.9,147.7-9.3,275.8-9.3,275.8l68.3,68.3
		C146.7,689.3,169.7,708.8,194.1,726.3z"/>
	<path d="M727.2,270.3c0-126.3-102.4-228.7-228.7-228.7c-126.3,0-228.7,102.4-228.7,228.7c0,126.3,102.4,228.7,228.7,228.7
		C624.8,499,727.2,396.6,727.2,270.3z M606.3,161.6l-67,105.1h22.5c12.4,0,22.5,10.1,22.5,22.5s-10.1,22.5-22.5,22.5H523v15.8h38.7
		c12.4,0,22.5,10.1,22.5,22.5s-10.1,22.5-22.5,22.5H523v31.3c0,12.4-10.1,22.5-22.5,22.5S478,416.2,478,403.8v-31.3h-38.7
		c-12.4,0-22.5-10.1-22.5-22.5s10.1-22.5,22.5-22.5H478v-15.8h-38.7c-12.4,0-22.5-10.1-22.5-22.5s10.1-22.5,22.5-22.5h22.5
		l-67-105.1c-6.7-10.5-3.6-24.4,6.9-31.1c10.5-6.7,24.4-3.6,31.1,6.9l67.9,106.4l67.9-106.4c6.7-10.5,20.6-13.6,31.1-6.9
		C609.9,137.2,613,151.1,606.3,161.6z"/>
	<path d="M726.4,844c-2.8-1.1-5.8-1.6-8.9-1.6h-176c-3,0-5.8,0.5-8.4,1.5c-5.3,1.9-9.7,5.5-12.7,10.1c-2.5,3.9-3.9,8.5-3.9,13.4v8.6
		v51.5c0,13.8,11.2,25,25,25h176c13.8,0,25-11.2,25-25v-50.9v-9.2c0-4.7-1.3-9.1-3.6-12.9C736.1,849.8,731.7,846,726.4,844z"/>
	<path d="M275.4,952.4h176c13.8,0,25-11.2,25-25v-49.2v-10.9c0-4-1-7.9-2.7-11.2c-2.5-5.1-6.8-9.1-11.9-11.5
		c-3.2-1.5-6.7-2.3-10.4-2.3h-176c-2.4,0-4.7,0.3-6.9,1c-5.3,1.5-9.9,4.8-13.1,9.1c-3.1,4.2-4.9,9.3-4.9,14.9v6.6v53.4
		C250.4,941.2,261.5,952.4,275.4,952.4z"/>
</g>
</svg>
