<?xml version="1.0" encoding="utf-8"?>
<!-- Generator: Adobe Illustrator 17.1.0, SVG Export Plug-In . SVG Version: 6.00 Build 0)  -->
<!DOCTYPE svg PUBLIC "-//W3C//DTD SVG 1.1//EN" "http://www.w3.org/Graphics/SVG/1.1/DTD/svg11.dtd">
<svg version="1.1" id="Layer_1" xmlns="http://www.w3.org/2000/svg" xmlns:xlink="http://www.w3.org/1999/xlink" x="0px" y="0px"
	 width="1000px" height="1000px" viewBox="0 0 1000 1000" enable-background="new 0 0 1000 1000" xml:space="preserve">
<g>
	<path d="M225.7,26.7c-27.6,0-50,22.4-50,50v848c0,27.6,22.4,50,50,50h561.7c27.6,0,50-22.4,50-50v-848c0-27.6-22.4-50-50-50H225.7z
		 M584.6,892.9c0,13.8-11.2,25-25,25h-106c-13.8,0-25-11.2-25-25V882c0-13.8,11.2-25,25-25h106c13.8,0,25,11.2,25,25V892.9z
		 M751.5,804.2H261.7V167.2h489.9V804.2z"/>
	<path d="M446.3,483.7h-35.7c-19.3,0-35,15.7-35,35s15.7,35,35,35h61v25.3h-61c-19.3,0-35,15.7-35,35s15.7,35,35,35h61v49.4
		c0,19.3,15.7,35,35,35s35-15.7,35-35v-49.4h61c19.3,0,35-15.7,35-35s-15.7-35-35-35h-61v-25.3h61c19.3,0,35-15.7,35-35
		s-15.7-35-35-35h-35.7l105.4-165.3c10.4-16.3,5.6-37.9-10.7-48.3c-16.3-10.4-37.9-5.6-48.3,10.7L506.6,448L400,280.7
		c-10.4-16.3-32-21.1-48.3-10.7c-16.3,10.4-21.1,32-10.7,48.3L446.3,483.7z"/>
</g>
</svg>
