<?xml version="1.0" encoding="utf-8"?>
<!-- Generator: Adobe Illustrator 17.1.0, SVG Export Plug-In . SVG Version: 6.00 Build 0)  -->
<!DOCTYPE svg PUBLIC "-//W3C//DTD SVG 1.1//EN" "http://www.w3.org/Graphics/SVG/1.1/DTD/svg11.dtd">
<svg version="1.1" id="Layer_1" xmlns="http://www.w3.org/2000/svg" xmlns:xlink="http://www.w3.org/1999/xlink" x="0px" y="0px"
	 width="1000px" height="1000px" viewBox="0 0 1000 1000" enable-background="new 0 0 1000 1000" xml:space="preserve">
<g>
	<path d="M941,446.6h-19v267.1c0,44.1-35.9,80-80,80H208v19c0,27.6,22.4,50,50,50h683c27.6,0,50-22.4,50-50V496.6
		C991,469,968.6,446.6,941,446.6z"/>
	<path d="M842,347.6h-19v99v168.1c0,44.1-35.9,80-80,80H208h-99v19c0,27.6,22.4,50,50,50h49h634c27.6,0,50-22.4,50-50V446.6v-49
		C892,370,869.6,347.6,842,347.6z"/>
	<path d="M79,664.7h15h15h99h535c27.6,0,50-22.4,50-50V446.6v-99v-15v-15v-19c0-27.6-22.4-50-50-50H60c-27.6,0-50,22.4-50,50v316.1
		c0,27.6,22.4,50,50,50H79z M295.7,317.6c1.4-1.7,3.2-3.3,5.2-4.5c9.6-6.2,22.2-4,29.3,4.5c0.6,0.7,1.2,1.5,1.7,2.3l8.1,12.7l9.6,15
		l51.9,81.4l51.9-81.4l9.6-15l8.1-12.7c0.5-0.8,1.1-1.6,1.7-2.3c7.1-8.6,19.7-10.7,29.3-4.5c2,1.3,3.7,2.8,5.2,4.5
		c3.5,4.2,5.4,9.6,5.2,15c-0.1,4-1.2,7.9-3.5,11.5l-2.2,3.5l-63.1,99l-3.4,5.4h23.7c12.4,0,22.5,10.1,22.5,22.5S476.3,497,463.9,497
		H424v21.5h39.9c12.4,0,22.5,10.1,22.5,22.5s-10.1,22.5-22.5,22.5H424v27.8c0,12.4-10.1,22.5-22.5,22.5S379,603.7,379,591.3v-27.8
		h-39.9c-12.4,0-22.5-10.1-22.5-22.5s10.1-22.5,22.5-22.5H379V497h-39.9c-12.4,0-22.5-10.1-22.5-22.5s10.1-22.5,22.5-22.5h23.7
		l-3.4-5.4l-63.1-99l-2.2-3.5c-2.3-3.6-3.4-7.6-3.5-11.5C290.3,327.2,292.2,321.8,295.7,317.6z"/>
</g>
</svg>
