<?xml version="1.0" encoding="utf-8"?>
<!-- Generator: Adobe Illustrator 17.1.0, SVG Export Plug-In . SVG Version: 6.00 Build 0)  -->
<!DOCTYPE svg PUBLIC "-//W3C//DTD SVG 1.1//EN" "http://www.w3.org/Graphics/SVG/1.1/DTD/svg11.dtd">
<svg version="1.1" id="Layer_1" xmlns="http://www.w3.org/2000/svg" xmlns:xlink="http://www.w3.org/1999/xlink" x="0px" y="0px"
	 width="1000px" height="1000px" viewBox="0 0 1000 1000" enable-background="new 0 0 1000 1000" xml:space="preserve">
<g>
	<path d="M940.9,817.3L786.6,663c-16.3,24.9-35.2,48.2-56.5,69.5c-21.3,21.3-44.6,40.2-69.5,56.5l154.3,154.3
		c19.5,19.5,51.2,19.5,70.7,0l55.3-55.3C960.4,868.4,960.4,836.8,940.9,817.3z"/>
	<path d="M423.2,829.6c79.3,0,153.3-22.9,215.7-62.3c50.8-32.1,93.9-75.2,126-126c39.5-62.4,62.3-136.4,62.3-215.7
		c0-223.1-180.9-404-404-404s-404,180.9-404,404S200.1,829.6,423.2,829.6z M423.2,147.6c153.5,0,278,124.5,278,278
		c0,76.3-30.8,145.5-80.6,195.7c-0.5,0.5-1.1,1.1-1.6,1.6c-50.2,49.8-119.4,80.6-195.7,80.6c-153.5,0-278-124.5-278-278
		S269.7,147.6,423.2,147.6z"/>
	<path d="M367,425.1h-26.4c-17.9,0-32.5,14.6-32.5,32.5s14.6,32.5,32.5,32.5h50.1v17h-50.1c-17.9,0-32.5,14.6-32.5,32.5
		s14.6,32.5,32.5,32.5h50.1v40.1c0,17.9,14.6,32.5,32.5,32.5s32.5-14.6,32.5-32.5V572h50.1c17.9,0,32.5-14.6,32.5-32.5
		S523.8,507,505.8,507h-50.1v-17h50.1c17.9,0,32.5-14.6,32.5-32.5s-14.6-32.5-32.5-32.5h-26.4l88.3-138.5
		c9.6-15.1,5.2-35.2-9.9-44.9c-15.1-9.7-35.2-5.2-44.9,9.9l-89.7,140.7l-89.7-140.7c-9.6-15.1-29.7-19.6-44.9-9.9
		c-15.1,9.6-19.6,29.7-9.9,44.9L367,425.1z"/>
</g>
</svg>
