<?xml version="1.0" encoding="utf-8"?>
<!-- Generator: Adobe Illustrator 17.1.0, SVG Export Plug-In . SVG Version: 6.00 Build 0)  -->
<!DOCTYPE svg PUBLIC "-//W3C//DTD SVG 1.1//EN" "http://www.w3.org/Graphics/SVG/1.1/DTD/svg11.dtd">
<svg version="1.1" id="Layer_1" xmlns="http://www.w3.org/2000/svg" xmlns:xlink="http://www.w3.org/1999/xlink" x="0px" y="0px"
	 width="1000px" height="1000px" viewBox="0 0 1000 1000" enable-background="new 0 0 1000 1000" xml:space="preserve">
<g>
	<path d="M480.2,33.2l-371.5,151c-18.8,7.7-31.2,26-31.2,46.3v314c0,6.6,1.3,13.2,3.9,19.3c21.2,51,132.8,289.4,399.5,392.1
		c11.7,4.5,24.6,4.5,36.3,0c266.8-102.7,378.3-341.1,399.5-392.1c2.5-6.1,3.9-12.6,3.9-19.3v-314c0-20.3-12.3-38.7-31.2-46.3
		l-371.5-151C505.8,28.3,492.3,28.3,480.2,33.2z M606.2,275.2c9.6-15.1,29.7-19.6,44.9-9.9c15.1,9.6,19.6,29.7,9.9,44.9L554.8,476.7
		h39.1c17.9,0,32.5,14.6,32.5,32.5s-14.6,32.5-32.5,32.5h-62.4v29.1h62.4c17.9,0,32.5,14.6,32.5,32.5s-14.6,32.5-32.5,32.5h-62.4
		v50.9c0,17.9-14.6,32.5-32.5,32.5s-32.5-14.6-32.5-32.5v-50.9h-62.4c-17.9,0-32.5-14.6-32.5-32.5s14.6-32.5,32.5-32.5h62.4v-29.1
		h-62.4c-17.9,0-32.5-14.6-32.5-32.5s14.6-32.5,32.5-32.5h39.1L337.1,310.2c-9.6-15.1-5.2-35.2,9.9-44.9c15.1-9.7,35.2-5.2,44.9,9.9
		l107.1,168L606.2,275.2z"/>
</g>
</svg>
