<?xml version="1.0" encoding="utf-8"?>
<!-- Generator: Adobe Illustrator 17.1.0, SVG Export Plug-In . SVG Version: 6.00 Build 0)  -->
<!DOCTYPE svg PUBLIC "-//W3C//DTD SVG 1.1//EN" "http://www.w3.org/Graphics/SVG/1.1/DTD/svg11.dtd">
<svg version="1.1" id="Layer_1" xmlns="http://www.w3.org/2000/svg" xmlns:xlink="http://www.w3.org/1999/xlink" x="0px" y="0px"
	 width="1000px" height="1000px" viewBox="0 0 1000 1000" enable-background="new 0 0 1000 1000" xml:space="preserve">
<g>
	<path d="M656.5,286.9c-16.3-10.4-37.9-5.6-48.3,10.7L500,467.3L391.8,297.6c-10.4-16.3-32-21.1-48.3-10.7
		c-16.3,10.4-21.1,32-10.7,48.3l107,167.8h-36.9c-19.3,0-35,15.7-35,35s15.7,35,35,35H465v26.3h-62.1c-19.3,0-35,15.7-35,35
		s15.7,35,35,35H465v50.4c0,19.3,15.7,35,35,35s35-15.7,35-35v-50.4h62.1c19.3,0,35-15.7,35-35s-15.7-35-35-35H535V573h62.1
		c19.3,0,35-15.7,35-35s-15.7-35-35-35h-36.9l107-167.8C677.6,318.9,672.8,297.3,656.5,286.9z"/>
	<path d="M847.3,232.1c-30.9-44.5-69.9-82.2-115.9-112.2c-46-30-96.6-50.6-150.5-61.5c-55.8-11.2-112.7-11.4-169-0.4
		C334.4,73.2,263,109,205.4,161.4c-49.3,44.9-86.9,100.5-110,162.1L64,321.1c-19.3-1.5-32.9,18.4-24.5,35.8l69.2,142.8
		c8.3,17.1,31.9,19.1,42.9,3.5l92-129.9c11.2-15.8,0.9-37.8-18.4-39.4l-25-2c17.7-37.2,42.6-70.8,73.5-99c44-40.1,98.6-67.4,158-79
		c85.3-16.6,172,0.2,244.4,47.3c60.2,39.2,104.4,95.6,127.3,161.4c8.1,23.2,32,36.9,56.1,32.2l1-0.2c29.5-5.8,47.2-36.3,37.2-64.7
		C885.3,295.4,868.5,262.6,847.3,232.1z"/>
	<path d="M924.9,670.3c19.3,1.5,32.9-18.4,24.5-35.8l-69.2-142.8c-8.3-17.1-31.9-19.1-42.9-3.5l-92,129.9
		c-11.2,15.8-0.9,37.8,18.4,39.4l25,2c-17.7,37.2-42.6,70.8-73.5,99c-44,40.1-98.6,67.4-158,79c-85.3,16.6-172-0.2-244.4-47.3
		c-60.2-39.2-104.4-95.6-127.3-161.4c-8.1-23.2-32-36.9-56.1-32.2l-1,0.2C99,602.4,81.4,633,91.3,661.4c12.2,34.6,29,67.4,50.2,97.9
		c30.9,44.5,69.9,82.2,115.9,112.2c46,30,96.6,50.6,150.5,61.5c28.2,5.7,56.7,8.5,85.2,8.5c27.9,0,55.9-2.7,83.8-8.2
		c77.5-15.1,149-50.9,206.6-103.3c49.3-44.9,86.9-100.5,109.9-162.1L924.9,670.3z"/>
</g>
</svg>
