<?xml version="1.0" encoding="utf-8"?>
<!-- Generator: Adobe Illustrator 17.1.0, SVG Export Plug-In . SVG Version: 6.00 Build 0)  -->
<!DOCTYPE svg PUBLIC "-//W3C//DTD SVG 1.1//EN" "http://www.w3.org/Graphics/SVG/1.1/DTD/svg11.dtd">
<svg version="1.1" id="Layer_1" xmlns="http://www.w3.org/2000/svg" xmlns:xlink="http://www.w3.org/1999/xlink" x="0px" y="0px"
	 width="1000px" height="1000px" viewBox="0 0 1000 1000" enable-background="new 0 0 1000 1000" xml:space="preserve">
<g>
	<path d="M315.6,43.3c-21.8,0-36.3,22.5-27.4,42.3l89.2,197.9h241.3l93.6-197.4c9.4-19.9-5.1-42.9-27.1-42.9H315.6z"/>
	<path d="M57,898.3c0,27.6,22.4,50,50,50h394h394c27.6,0,50-22.4,50-50V779.1c0-49.5-17.5-97.5-49.5-135.4L618.8,315.6H501H377.5
		L105.3,644.1C74.1,681.8,57,729.2,57,778.1V898.3z M377.2,484.3c12.8-8.2,29.8-4.4,38,8.4L501,627.4l85.9-134.7
		c8.2-12.8,25.2-16.6,38-8.4c12.8,8.2,16.6,25.2,8.4,38l-84.9,133.2h29.6c15.2,0,27.5,12.3,27.5,27.5s-12.3,27.5-27.5,27.5h-49.4
		v21.3h49.4c15.2,0,27.5,12.3,27.5,27.5s-12.3,27.5-27.5,27.5h-49.4v40.1c0,15.2-12.3,27.5-27.5,27.5s-27.5-12.3-27.5-27.5v-40.1
		h-49.4c-15.2,0-27.5-12.3-27.5-27.5s12.3-27.5,27.5-27.5h49.4v-21.3h-49.4c-15.2,0-27.5-12.3-27.5-27.5s12.3-27.5,27.5-27.5h29.6
		l-84.9-133.2C360.6,509.5,364.3,492.5,377.2,484.3z"/>
</g>
</svg>
