<?xml version="1.0" encoding="utf-8"?>
<!-- Generator: Adobe Illustrator 17.1.0, SVG Export Plug-In . SVG Version: 6.00 Build 0)  -->
<!DOCTYPE svg PUBLIC "-//W3C//DTD SVG 1.1//EN" "http://www.w3.org/Graphics/SVG/1.1/DTD/svg11.dtd">
<svg version="1.1" id="Layer_1" xmlns="http://www.w3.org/2000/svg" xmlns:xlink="http://www.w3.org/1999/xlink" x="0px" y="0px"
	 width="1000px" height="1000px" viewBox="0 0 1000 1000" enable-background="new 0 0 1000 1000" xml:space="preserve">
<g>
	<path d="M721.1,165.1v-27.6c0-27.6-22.4-50-50-50H149.7c-27.6,0-50,22.4-50,50v27.6c0,27.6,22.4,50,50,50h521.4
		C698.7,215.1,721.1,192.7,721.1,165.1z"/>
	<path d="M641.3,344.1v-27.6c0-27.6-22.4-50-50-50H69.8c-27.6,0-50,22.4-50,50v27.6c0,27.6,22.4,50,50,50h521.4
		C618.9,394.1,641.3,371.7,641.3,344.1z"/>
	<path d="M483.7,483.1c15.5-15.5,32.4-29.1,50.5-40.8H69.8c-27.6,0-50,22.4-50,50v27.6c0,27.6,22.4,50,50,50h353
		C437.9,537.6,458.4,508.5,483.7,483.1z"/>
	<path d="M149.7,618c-27.6,0-50,22.4-50,50v27.6c0,27.6,22.4,50,50,50h247.4c-2.2-14.9-3.3-30.1-3.3-45.4c0-28.1,3.7-55.6,11.1-82.2
		H149.7z"/>
	<path d="M491.3,924.6c-2.5-2.4-5.1-4.8-7.6-7.3c-28.2-28.2-50.3-61-65.8-97.6c-3.2-7.5-6-15.1-8.6-22.7H69.8c-27.6,0-50,22.4-50,50
		v27.6c0,27.6,22.4,50,50,50H491.3z"/>
	<path d="M700.8,423.2c-36.2,0-70.8,7-102.5,19.6c-61,24.3-111.3,69.6-142,127.1c-8.2,15.3-14.9,31.4-20.2,48.2
		c-8.1,26-12.4,53.6-12.4,82.2c0,15.5,1.3,30.6,3.7,45.4c2.9,17.8,7.5,35,13.7,51.4c19.2,51.5,53.4,95.8,97.1,127.6
		c45.6,33.1,101.8,52.7,162.5,52.7c153,0,277-124,277-277C977.8,547.2,853.8,423.2,700.8,423.2z M818.5,581.9l-74.6,117H769
		c13.8,0,25,11.2,25,25s-11.2,25-25,25h-43.1v17.6H769c13.8,0,25,11.2,25,25s-11.2,25-25,25h-43.1v34.9c0,13.8-11.2,25-25,25
		s-25-11.2-25-25v-34.9h-43.1c-0.6,0-1.2,0-1.8-0.1c-9.9-0.7-18.2-7.2-21.6-16.1c-1-2.7-1.6-5.7-1.6-8.8c0-13.8,11.2-25,25-25h43.1
		V749h-43.1c-4.6,0-8.9-1.2-12.5-3.4c-7.4-4.3-12.5-12.4-12.5-21.6c0-13.8,11.2-25,25-25h25.1L606.1,618l-23-36.1
		c-2.4-3.8-3.7-7.9-3.9-12.1c-0.5-8.7,3.6-17.4,11.5-22.4c11.6-7.4,27.1-4,34.5,7.6l0.6,0.9l39.6,62.1l35.4,55.5l16.2-25.4
		l59.4-93.1c7.4-11.6,22.9-15.1,34.5-7.6C822.5,554.8,825.9,570.3,818.5,581.9z"/>
</g>
</svg>
