<?xml version="1.0" encoding="utf-8"?>
<!-- Generator: Adobe Illustrator 17.1.0, SVG Export Plug-In . SVG Version: 6.00 Build 0)  -->
<!DOCTYPE svg PUBLIC "-//W3C//DTD SVG 1.1//EN" "http://www.w3.org/Graphics/SVG/1.1/DTD/svg11.dtd">
<svg version="1.1" id="Layer_1" xmlns="http://www.w3.org/2000/svg" xmlns:xlink="http://www.w3.org/1999/xlink" x="0px" y="0px"
	 width="1000px" height="1000px" viewBox="0 0 1000 1000" enable-background="new 0 0 1000 1000" xml:space="preserve">
<g>
	<path d="M694,268.3v-60c0-46.9-38.1-85-85-85H393c-46.9,0-85,38.1-85,85v60h70v-60c0-8.3,6.7-15,15-15h216c8.3,0,15,6.7,15,15v60
		H694z"/>
	<path d="M905,298.3H694h-70H378h-70H97c-27.6,0-50,22.4-50,50v464c0,27.6,22.4,50,50,50h808c27.6,0,50-22.4,50-50v-464
		C955,320.7,932.6,298.3,905,298.3z M633.2,439.4l-9.2,14.5l-75.7,118.7h29.6c15.2,0,27.5,12.3,27.5,27.5s-12.3,27.5-27.5,27.5
		h-49.4v21.3h49.4c15.2,0,27.5,12.3,27.5,27.5s-12.3,27.5-27.5,27.5h-49.4v21.4V744c0,15.2-12.3,27.5-27.5,27.5
		s-27.5-12.3-27.5-27.5v-18.7v-21.4h-49.4c-15.2,0-27.5-12.3-27.5-27.5s12.3-27.5,27.5-27.5h49.4v-21.3h-49.4
		c-15.2,0-27.5-12.3-27.5-27.5s12.3-27.5,27.5-27.5h29.6L378,453.9l-9.2-14.5c-8.2-12.8-4.4-29.8,8.4-38c0.3-0.2,0.6-0.3,0.8-0.5
		c12.7-7.5,29.1-3.6,37.1,8.9L501,544.5l85.9-134.7c8-12.5,24.4-16.4,37.1-8.9c0.3,0.2,0.6,0.3,0.8,0.5
		C637.6,409.6,641.4,426.6,633.2,439.4z"/>
</g>
</svg>
